<svg width="504" height="497" viewBox="0 0 504 497" fill="none" xmlns="http://www.w3.org/2000/svg">
<rect x="23" width="457" height="497" fill="#D9D9D9"/>
<rect x="368" y="324" width="136" height="95" rx="10" fill="#CECECE" fill-opacity="0.95"/>
<path d="M405.792 356.992H402.56V360.304H400.864V356.992H397.632V355.456H400.864V352.144H402.56V355.456H405.792V356.992ZM409.39 359.52C410.414 358.635 411.219 357.909 411.806 357.344C412.403 356.768 412.899 356.171 413.294 355.552C413.689 354.933 413.886 354.315 413.886 353.696C413.886 353.056 413.731 352.555 413.422 352.192C413.123 351.829 412.649 351.648 411.998 351.648C411.369 351.648 410.878 351.851 410.526 352.256C410.185 352.651 410.003 353.184 409.982 353.856H408.222C408.254 352.64 408.617 351.712 409.31 351.072C410.014 350.421 410.905 350.096 411.982 350.096C413.145 350.096 414.051 350.416 414.702 351.056C415.363 351.696 415.694 352.549 415.694 353.616C415.694 354.384 415.497 355.125 415.102 355.84C414.718 356.544 414.254 357.179 413.71 357.744C413.177 358.299 412.494 358.944 411.662 359.68L410.942 360.32H416.014V361.84H408.238V360.512L409.39 359.52ZM417.616 356.016C417.616 354.171 417.926 352.731 418.544 351.696C419.174 350.651 420.251 350.128 421.776 350.128C423.302 350.128 424.374 350.651 424.992 351.696C425.622 352.731 425.936 354.171 425.936 356.016C425.936 357.883 425.622 359.344 424.992 360.4C424.374 361.445 423.302 361.968 421.776 361.968C420.251 361.968 419.174 361.445 418.544 360.4C417.926 359.344 417.616 357.883 417.616 356.016ZM424.144 356.016C424.144 355.152 424.086 354.421 423.968 353.824C423.862 353.227 423.638 352.741 423.296 352.368C422.955 351.984 422.448 351.792 421.776 351.792C421.104 351.792 420.598 351.984 420.256 352.368C419.915 352.741 419.686 353.227 419.568 353.824C419.462 354.421 419.408 355.152 419.408 356.016C419.408 356.912 419.462 357.664 419.568 358.272C419.675 358.88 419.899 359.371 420.24 359.744C420.592 360.117 421.104 360.304 421.776 360.304C422.448 360.304 422.955 360.117 423.296 359.744C423.648 359.371 423.878 358.88 423.984 358.272C424.091 357.664 424.144 356.912 424.144 356.016ZM440.199 353.184L434.791 366.144H432.903L434.695 361.856L431.223 353.184H433.255L435.735 359.904L438.311 353.184H440.199ZM449.655 357.376C449.655 357.707 449.634 358.005 449.591 358.272H442.855C442.908 358.976 443.17 359.541 443.639 359.968C444.108 360.395 444.684 360.608 445.367 360.608C446.348 360.608 447.042 360.197 447.447 359.376H449.415C449.148 360.187 448.663 360.853 447.959 361.376C447.266 361.888 446.402 362.144 445.367 362.144C444.524 362.144 443.767 361.957 443.095 361.584C442.434 361.2 441.911 360.667 441.527 359.984C441.154 359.291 440.967 358.491 440.967 357.584C440.967 356.677 441.148 355.883 441.511 355.2C441.884 354.507 442.402 353.973 443.063 353.6C443.735 353.227 444.503 353.04 445.367 353.04C446.199 353.04 446.94 353.221 447.591 353.584C448.242 353.947 448.748 354.459 449.111 355.12C449.474 355.771 449.655 356.523 449.655 357.376ZM447.751 356.8C447.74 356.128 447.5 355.589 447.031 355.184C446.562 354.779 445.98 354.576 445.287 354.576C444.658 354.576 444.119 354.779 443.671 355.184C443.223 355.579 442.956 356.117 442.871 356.8H447.751ZM450.842 357.552C450.842 356.667 451.023 355.883 451.386 355.2C451.759 354.517 452.261 353.989 452.89 353.616C453.53 353.232 454.234 353.04 455.002 353.04C455.695 353.04 456.298 353.179 456.81 353.456C457.333 353.723 457.749 354.059 458.058 354.464V353.184H459.898V362H458.058V360.688C457.749 361.104 457.327 361.451 456.794 361.728C456.261 362.005 455.653 362.144 454.97 362.144C454.213 362.144 453.519 361.952 452.89 361.568C452.261 361.173 451.759 360.629 451.386 359.936C451.023 359.232 450.842 358.437 450.842 357.552ZM458.058 357.584C458.058 356.976 457.93 356.448 457.674 356C457.429 355.552 457.103 355.211 456.698 354.976C456.293 354.741 455.855 354.624 455.386 354.624C454.917 354.624 454.479 354.741 454.074 354.976C453.669 355.2 453.338 355.536 453.082 355.984C452.837 356.421 452.714 356.944 452.714 357.552C452.714 358.16 452.837 358.693 453.082 359.152C453.338 359.611 453.669 359.963 454.074 360.208C454.49 360.443 454.927 360.56 455.386 360.56C455.855 360.56 456.293 360.443 456.698 360.208C457.103 359.973 457.429 359.632 457.674 359.184C457.93 358.725 458.058 358.192 458.058 357.584ZM464.118 354.464C464.384 354.016 464.736 353.669 465.174 353.424C465.622 353.168 466.15 353.04 466.758 353.04V354.928H466.294C465.579 354.928 465.035 355.109 464.662 355.472C464.299 355.835 464.118 356.464 464.118 357.36V362H462.294V353.184H464.118V354.464ZM471.634 362.144C470.941 362.144 470.317 362.021 469.762 361.776C469.218 361.52 468.786 361.179 468.466 360.752C468.146 360.315 467.976 359.829 467.954 359.296H469.842C469.874 359.669 470.05 359.984 470.37 360.24C470.701 360.485 471.112 360.608 471.602 360.608C472.114 360.608 472.509 360.512 472.786 360.32C473.074 360.117 473.218 359.861 473.218 359.552C473.218 359.221 473.058 358.976 472.738 358.816C472.429 358.656 471.933 358.48 471.25 358.288C470.589 358.107 470.05 357.931 469.634 357.76C469.218 357.589 468.856 357.328 468.546 356.976C468.248 356.624 468.098 356.16 468.098 355.584C468.098 355.115 468.237 354.688 468.514 354.304C468.792 353.909 469.186 353.6 469.698 353.376C470.221 353.152 470.818 353.04 471.49 353.04C472.493 353.04 473.298 353.296 473.906 353.808C474.525 354.309 474.856 354.997 474.898 355.872H473.074C473.042 355.477 472.882 355.163 472.594 354.928C472.306 354.693 471.917 354.576 471.426 354.576C470.946 354.576 470.578 354.667 470.322 354.848C470.066 355.029 469.938 355.269 469.938 355.568C469.938 355.803 470.024 356 470.194 356.16C470.365 356.32 470.573 356.448 470.818 356.544C471.064 356.629 471.426 356.741 471.906 356.88C472.546 357.051 473.069 357.227 473.474 357.408C473.89 357.579 474.248 357.835 474.546 358.176C474.845 358.517 475 358.971 475.01 359.536C475.01 360.037 474.872 360.485 474.594 360.88C474.317 361.275 473.922 361.584 473.41 361.808C472.909 362.032 472.317 362.144 471.634 362.144Z" fill="#282828"/>
<path d="M393.582 393.098C392.677 393.098 391.856 392.888 391.118 392.468C390.381 392.039 389.798 391.446 389.368 390.69C388.948 389.925 388.738 389.061 388.738 388.1C388.738 387.139 388.948 386.28 389.368 385.524C389.798 384.759 390.381 384.166 391.118 383.746C391.856 383.317 392.677 383.102 393.582 383.102C394.497 383.102 395.323 383.317 396.06 383.746C396.798 384.166 397.376 384.759 397.796 385.524C398.216 386.28 398.426 387.139 398.426 388.1C398.426 389.061 398.216 389.925 397.796 390.69C397.376 391.446 396.798 392.039 396.06 392.468C395.323 392.888 394.497 393.098 393.582 393.098ZM393.582 392.244C394.31 392.244 394.964 392.076 395.542 391.74C396.121 391.404 396.578 390.923 396.914 390.298C397.25 389.663 397.418 388.931 397.418 388.1C397.418 387.269 397.25 386.541 396.914 385.916C396.578 385.291 396.121 384.81 395.542 384.474C394.964 384.138 394.31 383.97 393.582 383.97C392.854 383.97 392.201 384.138 391.622 384.474C391.044 384.81 390.586 385.291 390.25 385.916C389.914 386.541 389.746 387.269 389.746 388.1C389.746 388.931 389.914 389.663 390.25 390.298C390.586 390.923 391.044 391.404 391.622 391.74C392.201 392.076 392.854 392.244 393.582 392.244ZM403.23 386.182H401.452V393H400.472V386.182H399.408V385.356H400.472V384.824C400.472 383.993 400.682 383.382 401.102 382.99C401.531 382.598 402.222 382.402 403.174 382.402V383.242C402.539 383.242 402.091 383.363 401.83 383.606C401.578 383.849 401.452 384.255 401.452 384.824V385.356H403.23V386.182ZM415.53 388.786C415.53 389.122 415.521 389.379 415.502 389.556H409.16C409.188 390.135 409.328 390.629 409.58 391.04C409.832 391.451 410.163 391.763 410.574 391.978C410.985 392.183 411.433 392.286 411.918 392.286C412.553 392.286 413.085 392.132 413.514 391.824C413.953 391.516 414.242 391.101 414.382 390.578H415.418C415.231 391.325 414.83 391.936 414.214 392.412C413.607 392.879 412.842 393.112 411.918 393.112C411.199 393.112 410.555 392.953 409.986 392.636C409.417 392.309 408.969 391.852 408.642 391.264C408.325 390.667 408.166 389.971 408.166 389.178C408.166 388.385 408.325 387.689 408.642 387.092C408.959 386.495 409.403 386.037 409.972 385.72C410.541 385.403 411.19 385.244 411.918 385.244C412.646 385.244 413.281 385.403 413.822 385.72C414.373 386.037 414.793 386.467 415.082 387.008C415.381 387.54 415.53 388.133 415.53 388.786ZM414.536 388.758C414.545 388.189 414.429 387.703 414.186 387.302C413.953 386.901 413.631 386.597 413.22 386.392C412.809 386.187 412.361 386.084 411.876 386.084C411.148 386.084 410.527 386.317 410.014 386.784C409.501 387.251 409.216 387.909 409.16 388.758H414.536ZM421.327 393L419.353 389.92L417.449 393H416.413L418.877 389.178L416.441 385.356H417.547L419.493 388.394L421.383 385.356H422.405L419.969 389.136L422.433 393H421.327ZM424.729 387.036C424.971 386.523 425.354 386.098 425.877 385.762C426.409 385.417 427.039 385.244 427.767 385.244C428.457 385.244 429.078 385.407 429.629 385.734C430.189 386.051 430.623 386.509 430.931 387.106C431.248 387.694 431.407 388.38 431.407 389.164C431.407 389.948 431.248 390.639 430.931 391.236C430.623 391.833 430.189 392.295 429.629 392.622C429.078 392.949 428.457 393.112 427.767 393.112C427.048 393.112 426.423 392.944 425.891 392.608C425.359 392.263 424.971 391.833 424.729 391.32V396.612H423.763V385.356H424.729V387.036ZM430.413 389.164C430.413 388.529 430.287 387.983 430.035 387.526C429.792 387.059 429.456 386.705 429.027 386.462C428.597 386.219 428.112 386.098 427.571 386.098C427.048 386.098 426.567 386.224 426.129 386.476C425.699 386.728 425.359 387.087 425.107 387.554C424.855 388.021 424.729 388.562 424.729 389.178C424.729 389.794 424.855 390.335 425.107 390.802C425.359 391.269 425.699 391.628 426.129 391.88C426.567 392.132 427.048 392.258 427.571 392.258C428.112 392.258 428.597 392.137 429.027 391.894C429.456 391.642 429.792 391.283 430.035 390.816C430.287 390.34 430.413 389.789 430.413 389.164ZM440.126 388.786C440.126 389.122 440.117 389.379 440.098 389.556H433.756C433.784 390.135 433.924 390.629 434.176 391.04C434.428 391.451 434.759 391.763 435.17 391.978C435.581 392.183 436.029 392.286 436.514 392.286C437.149 392.286 437.681 392.132 438.11 391.824C438.549 391.516 438.838 391.101 438.978 390.578H440.014C439.827 391.325 439.426 391.936 438.81 392.412C438.203 392.879 437.438 393.112 436.514 393.112C435.795 393.112 435.151 392.953 434.582 392.636C434.013 392.309 433.565 391.852 433.238 391.264C432.921 390.667 432.762 389.971 432.762 389.178C432.762 388.385 432.921 387.689 433.238 387.092C433.555 386.495 433.999 386.037 434.568 385.72C435.137 385.403 435.786 385.244 436.514 385.244C437.242 385.244 437.877 385.403 438.418 385.72C438.969 386.037 439.389 386.467 439.678 387.008C439.977 387.54 440.126 388.133 440.126 388.786ZM439.132 388.758C439.141 388.189 439.025 387.703 438.782 387.302C438.549 386.901 438.227 386.597 437.816 386.392C437.405 386.187 436.957 386.084 436.472 386.084C435.744 386.084 435.123 386.317 434.61 386.784C434.097 387.251 433.812 387.909 433.756 388.758H439.132ZM442.899 386.714C443.113 386.238 443.44 385.869 443.879 385.608C444.327 385.347 444.873 385.216 445.517 385.216V386.238H445.251C444.541 386.238 443.972 386.429 443.543 386.812C443.113 387.195 442.899 387.834 442.899 388.73V393H441.919V385.356H442.899V386.714ZM447.481 383.914C447.285 383.914 447.117 383.844 446.977 383.704C446.837 383.564 446.767 383.391 446.767 383.186C446.767 382.981 446.837 382.813 446.977 382.682C447.117 382.542 447.285 382.472 447.481 382.472C447.677 382.472 447.845 382.542 447.985 382.682C448.125 382.813 448.195 382.981 448.195 383.186C448.195 383.391 448.125 383.564 447.985 383.704C447.845 383.844 447.677 383.914 447.481 383.914ZM447.971 385.356V393H446.991V385.356H447.971ZM457.106 388.786C457.106 389.122 457.097 389.379 457.078 389.556H450.736C450.764 390.135 450.904 390.629 451.156 391.04C451.408 391.451 451.74 391.763 452.15 391.978C452.561 392.183 453.009 392.286 453.494 392.286C454.129 392.286 454.661 392.132 455.09 391.824C455.529 391.516 455.818 391.101 455.958 390.578H456.994C456.808 391.325 456.406 391.936 455.79 392.412C455.184 392.879 454.418 393.112 453.494 393.112C452.776 393.112 452.132 392.953 451.562 392.636C450.993 392.309 450.545 391.852 450.218 391.264C449.901 390.667 449.742 389.971 449.742 389.178C449.742 388.385 449.901 387.689 450.218 387.092C450.536 386.495 450.979 386.037 451.548 385.72C452.118 385.403 452.766 385.244 453.494 385.244C454.222 385.244 454.857 385.403 455.398 385.72C455.949 386.037 456.369 386.467 456.658 387.008C456.957 387.54 457.106 388.133 457.106 388.786ZM456.112 388.758C456.122 388.189 456.005 387.703 455.762 387.302C455.529 386.901 455.207 386.597 454.796 386.392C454.386 386.187 453.938 386.084 453.452 386.084C452.724 386.084 452.104 386.317 451.59 386.784C451.077 387.251 450.792 387.909 450.736 388.758H456.112ZM462.483 385.216C463.398 385.216 464.145 385.501 464.723 386.07C465.302 386.63 465.591 387.447 465.591 388.52V393H464.625V388.632C464.625 387.801 464.415 387.167 463.995 386.728C463.585 386.289 463.02 386.07 462.301 386.07C461.564 386.07 460.976 386.303 460.537 386.77C460.099 387.237 459.879 387.923 459.879 388.828V393H458.899V385.356H459.879V386.658C460.122 386.191 460.472 385.837 460.929 385.594C461.387 385.342 461.905 385.216 462.483 385.216ZM467.311 389.178C467.311 388.385 467.469 387.694 467.787 387.106C468.104 386.509 468.543 386.051 469.103 385.734C469.663 385.407 470.302 385.244 471.021 385.244C471.963 385.244 472.738 385.477 473.345 385.944C473.961 386.411 474.357 387.045 474.535 387.848H473.485C473.354 387.297 473.069 386.868 472.631 386.56C472.201 386.243 471.665 386.084 471.021 386.084C470.507 386.084 470.045 386.201 469.635 386.434C469.224 386.667 468.897 387.017 468.655 387.484C468.421 387.941 468.305 388.506 468.305 389.178C468.305 389.85 468.421 390.419 468.655 390.886C468.897 391.353 469.224 391.703 469.635 391.936C470.045 392.169 470.507 392.286 471.021 392.286C471.665 392.286 472.201 392.132 472.631 391.824C473.069 391.507 473.354 391.068 473.485 390.508H474.535C474.357 391.292 473.961 391.922 473.345 392.398C472.729 392.874 471.954 393.112 471.021 393.112C470.302 393.112 469.663 392.953 469.103 392.636C468.543 392.309 468.104 391.852 467.787 391.264C467.469 390.667 467.311 389.971 467.311 389.178ZM483.261 388.786C483.261 389.122 483.251 389.379 483.233 389.556H476.891C476.919 390.135 477.059 390.629 477.311 391.04C477.563 391.451 477.894 391.763 478.305 391.978C478.715 392.183 479.163 392.286 479.649 392.286C480.283 392.286 480.815 392.132 481.245 391.824C481.683 391.516 481.973 391.101 482.113 390.578H483.149C482.962 391.325 482.561 391.936 481.945 392.412C481.338 392.879 480.573 393.112 479.649 393.112C478.93 393.112 478.286 392.953 477.717 392.636C477.147 392.309 476.699 391.852 476.373 391.264C476.055 390.667 475.897 389.971 475.897 389.178C475.897 388.385 476.055 387.689 476.373 387.092C476.69 386.495 477.133 386.037 477.703 385.72C478.272 385.403 478.921 385.244 479.649 385.244C480.377 385.244 481.011 385.403 481.553 385.72C482.103 386.037 482.523 386.467 482.813 387.008C483.111 387.54 483.261 388.133 483.261 388.786ZM482.267 388.758C482.276 388.189 482.159 387.703 481.917 387.302C481.683 386.901 481.361 386.597 480.951 386.392C480.54 386.187 480.092 386.084 479.607 386.084C478.879 386.084 478.258 386.317 477.745 386.784C477.231 387.251 476.947 387.909 476.891 388.758H482.267Z" fill="#282828"/>
<rect y="50" width="140" height="95" rx="10" fill="#CECECE" fill-opacity="0.95"/>
<path d="M60.792 82.992H57.56V86.304H55.864V82.992H52.632V81.456H55.864V78.144H57.56V81.456H60.792V82.992ZM63.1419 78V76.336H66.4699V88H64.6299V78H63.1419ZM68.9756 82.016C68.9756 80.1707 69.285 78.7307 69.9036 77.696C70.533 76.6507 71.6103 76.128 73.1356 76.128C74.661 76.128 75.733 76.6507 76.3516 77.696C76.981 78.7307 77.2956 80.1707 77.2956 82.016C77.2956 83.8827 76.981 85.344 76.3516 86.4C75.733 87.4453 74.661 87.968 73.1356 87.968C71.6103 87.968 70.533 87.4453 69.9036 86.4C69.285 85.344 68.9756 83.8827 68.9756 82.016ZM75.5036 82.016C75.5036 81.152 75.445 80.4213 75.3276 79.824C75.221 79.2267 74.997 78.7413 74.6556 78.368C74.3143 77.984 73.8076 77.792 73.1356 77.792C72.4636 77.792 71.957 77.984 71.6156 78.368C71.2743 78.7413 71.045 79.2267 70.9276 79.824C70.821 80.4213 70.7676 81.152 70.7676 82.016C70.7676 82.912 70.821 83.664 70.9276 84.272C71.0343 84.88 71.2583 85.3707 71.5996 85.744C71.9516 86.1173 72.4636 86.304 73.1356 86.304C73.8076 86.304 74.3143 86.1173 74.6556 85.744C75.0076 85.3707 75.237 84.88 75.3436 84.272C75.4503 83.664 75.5036 82.912 75.5036 82.016ZM79.2256 82.016C79.2256 80.1707 79.535 78.7307 80.1536 77.696C80.783 76.6507 81.8603 76.128 83.3856 76.128C84.911 76.128 85.983 76.6507 86.6016 77.696C87.231 78.7307 87.5456 80.1707 87.5456 82.016C87.5456 83.8827 87.231 85.344 86.6016 86.4C85.983 87.4453 84.911 87.968 83.3856 87.968C81.8603 87.968 80.783 87.4453 80.1536 86.4C79.535 85.344 79.2256 83.8827 79.2256 82.016ZM85.7536 82.016C85.7536 81.152 85.695 80.4213 85.5776 79.824C85.471 79.2267 85.247 78.7413 84.9056 78.368C84.5643 77.984 84.0576 77.792 83.3856 77.792C82.7136 77.792 82.207 77.984 81.8656 78.368C81.5243 78.7413 81.295 79.2267 81.1776 79.824C81.071 80.4213 81.0176 81.152 81.0176 82.016C81.0176 82.912 81.071 83.664 81.1776 84.272C81.2843 84.88 81.5083 85.3707 81.8496 85.744C82.2016 86.1173 82.7136 86.304 83.3856 86.304C84.0576 86.304 84.5643 86.1173 84.9056 85.744C85.2576 85.3707 85.487 84.88 85.5936 84.272C85.7003 83.664 85.7536 82.912 85.7536 82.016Z" fill="#282828"/>
<path d="M28.6458 109.242V119H27.3718V114.576H22.4018V119H21.1278V109.242H22.4018V113.526H27.3718V109.242H28.6458ZM30.3452 115.136C30.3452 114.352 30.5038 113.666 30.8212 113.078C31.1385 112.481 31.5725 112.019 32.1232 111.692C32.6832 111.365 33.3038 111.202 33.9852 111.202C34.6572 111.202 35.2405 111.347 35.7352 111.636C36.2298 111.925 36.5985 112.289 36.8412 112.728V111.328H38.1292V119H36.8412V117.572C36.5892 118.02 36.2112 118.393 35.7072 118.692C35.2125 118.981 34.6338 119.126 33.9712 119.126C33.2898 119.126 32.6738 118.958 32.1232 118.622C31.5725 118.286 31.1385 117.815 30.8212 117.208C30.5038 116.601 30.3452 115.911 30.3452 115.136ZM36.8412 115.15C36.8412 114.571 36.7245 114.067 36.4912 113.638C36.2578 113.209 35.9405 112.882 35.5392 112.658C35.1472 112.425 34.7132 112.308 34.2372 112.308C33.7612 112.308 33.3272 112.42 32.9352 112.644C32.5432 112.868 32.2305 113.195 31.9972 113.624C31.7638 114.053 31.6472 114.557 31.6472 115.136C31.6472 115.724 31.7638 116.237 31.9972 116.676C32.2305 117.105 32.5432 117.437 32.9352 117.67C33.3272 117.894 33.7612 118.006 34.2372 118.006C34.7132 118.006 35.1472 117.894 35.5392 117.67C35.9405 117.437 36.2578 117.105 36.4912 116.676C36.7245 116.237 36.8412 115.729 36.8412 115.15ZM41.5561 112.742C41.8081 112.303 42.1814 111.939 42.6761 111.65C43.1801 111.351 43.7634 111.202 44.4261 111.202C45.1074 111.202 45.7234 111.365 46.2741 111.692C46.8341 112.019 47.2728 112.481 47.5901 113.078C47.9074 113.666 48.0661 114.352 48.0661 115.136C48.0661 115.911 47.9074 116.601 47.5901 117.208C47.2728 117.815 46.8341 118.286 46.2741 118.622C45.7234 118.958 45.1074 119.126 44.4261 119.126C43.7728 119.126 43.1941 118.981 42.6901 118.692C42.1954 118.393 41.8174 118.025 41.5561 117.586V122.64H40.2821V111.328H41.5561V112.742ZM46.7641 115.136C46.7641 114.557 46.6474 114.053 46.4141 113.624C46.1808 113.195 45.8634 112.868 45.4621 112.644C45.0701 112.42 44.6361 112.308 44.1601 112.308C43.6934 112.308 43.2594 112.425 42.8581 112.658C42.4661 112.882 42.1488 113.213 41.9061 113.652C41.6728 114.081 41.5561 114.581 41.5561 115.15C41.5561 115.729 41.6728 116.237 41.9061 116.676C42.1488 117.105 42.4661 117.437 42.8581 117.67C43.2594 117.894 43.6934 118.006 44.1601 118.006C44.6361 118.006 45.0701 117.894 45.4621 117.67C45.8634 117.437 46.1808 117.105 46.4141 116.676C46.6474 116.237 46.7641 115.724 46.7641 115.136ZM51.017 112.742C51.269 112.303 51.6424 111.939 52.137 111.65C52.641 111.351 53.2244 111.202 53.887 111.202C54.5684 111.202 55.1844 111.365 55.735 111.692C56.295 112.019 56.7337 112.481 57.051 113.078C57.3684 113.666 57.527 114.352 57.527 115.136C57.527 115.911 57.3684 116.601 57.051 117.208C56.7337 117.815 56.295 118.286 55.735 118.622C55.1844 118.958 54.5684 119.126 53.887 119.126C53.2337 119.126 52.655 118.981 52.151 118.692C51.6564 118.393 51.2784 118.025 51.017 117.586V122.64H49.743V111.328H51.017V112.742ZM56.225 115.136C56.225 114.557 56.1084 114.053 55.875 113.624C55.6417 113.195 55.3244 112.868 54.923 112.644C54.531 112.42 54.097 112.308 53.621 112.308C53.1544 112.308 52.7204 112.425 52.319 112.658C51.927 112.882 51.6097 113.213 51.367 113.652C51.1337 114.081 51.017 114.581 51.017 115.15C51.017 115.729 51.1337 116.237 51.367 116.676C51.6097 117.105 51.927 117.437 52.319 117.67C52.7204 117.894 53.1544 118.006 53.621 118.006C54.097 118.006 54.531 117.894 54.923 117.67C55.3244 117.437 55.6417 117.105 55.875 116.676C56.1084 116.237 56.225 115.724 56.225 115.136ZM65.812 111.328L61.192 122.612H59.876L61.388 118.916L58.294 111.328H59.708L62.116 117.544L64.496 111.328H65.812ZM72.0991 112.742C72.3511 112.303 72.7244 111.939 73.2191 111.65C73.7231 111.351 74.3064 111.202 74.9691 111.202C75.6504 111.202 76.2664 111.365 76.8171 111.692C77.3771 112.019 77.8157 112.481 78.1331 113.078C78.4504 113.666 78.6091 114.352 78.6091 115.136C78.6091 115.911 78.4504 116.601 78.1331 117.208C77.8157 117.815 77.3771 118.286 76.8171 118.622C76.2664 118.958 75.6504 119.126 74.9691 119.126C74.3157 119.126 73.7371 118.981 73.2331 118.692C72.7384 118.393 72.3604 118.025 72.0991 117.586V122.64H70.8251V111.328H72.0991V112.742ZM77.3071 115.136C77.3071 114.557 77.1904 114.053 76.9571 113.624C76.7237 113.195 76.4064 112.868 76.0051 112.644C75.6131 112.42 75.1791 112.308 74.7031 112.308C74.2364 112.308 73.8024 112.425 73.4011 112.658C73.0091 112.882 72.6917 113.213 72.4491 113.652C72.2157 114.081 72.0991 114.581 72.0991 115.15C72.0991 115.729 72.2157 116.237 72.4491 116.676C72.6917 117.105 73.0091 117.437 73.4011 117.67C73.8024 117.894 74.2364 118.006 74.7031 118.006C75.1791 118.006 75.6131 117.894 76.0051 117.67C76.4064 117.437 76.7237 117.105 76.9571 116.676C77.1904 116.237 77.3071 115.724 77.3071 115.136ZM79.81 115.136C79.81 114.352 79.9687 113.666 80.286 113.078C80.6033 112.481 81.0373 112.019 81.588 111.692C82.148 111.365 82.7687 111.202 83.45 111.202C84.122 111.202 84.7053 111.347 85.2 111.636C85.6947 111.925 86.0633 112.289 86.306 112.728V111.328H87.594V119H86.306V117.572C86.054 118.02 85.676 118.393 85.172 118.692C84.6773 118.981 84.0987 119.126 83.436 119.126C82.7547 119.126 82.1387 118.958 81.588 118.622C81.0373 118.286 80.6033 117.815 80.286 117.208C79.9687 116.601 79.81 115.911 79.81 115.136ZM86.306 115.15C86.306 114.571 86.1893 114.067 85.956 113.638C85.7227 113.209 85.4053 112.882 85.004 112.658C84.612 112.425 84.178 112.308 83.702 112.308C83.226 112.308 82.792 112.42 82.4 112.644C82.008 112.868 81.6953 113.195 81.462 113.624C81.2287 114.053 81.112 114.557 81.112 115.136C81.112 115.724 81.2287 116.237 81.462 116.676C81.6953 117.105 82.008 117.437 82.4 117.67C82.792 117.894 83.226 118.006 83.702 118.006C84.178 118.006 84.612 117.894 85.004 117.67C85.4053 117.437 85.7227 117.105 85.956 116.676C86.1893 116.237 86.306 115.729 86.306 115.15ZM91.3009 112.378V116.9C91.3009 117.273 91.3803 117.539 91.5389 117.698C91.6976 117.847 91.9729 117.922 92.3649 117.922H93.3029V119H92.1549C91.4456 119 90.9136 118.837 90.5589 118.51C90.2043 118.183 90.0269 117.647 90.0269 116.9V112.378H89.0329V111.328H90.0269V109.396H91.3009V111.328H93.3029V112.378H91.3009ZM95.5046 110.082C95.2619 110.082 95.0566 109.998 94.8886 109.83C94.7206 109.662 94.6366 109.457 94.6366 109.214C94.6366 108.971 94.7206 108.766 94.8886 108.598C95.0566 108.43 95.2619 108.346 95.5046 108.346C95.7379 108.346 95.9339 108.43 96.0926 108.598C96.2606 108.766 96.3446 108.971 96.3446 109.214C96.3446 109.457 96.2606 109.662 96.0926 109.83C95.9339 109.998 95.7379 110.082 95.5046 110.082ZM96.1206 111.328V119H94.8466V111.328H96.1206ZM105.292 114.87C105.292 115.113 105.278 115.369 105.25 115.64H99.1179C99.1645 116.396 99.4212 116.989 99.8879 117.418C100.364 117.838 100.938 118.048 101.61 118.048C102.161 118.048 102.618 117.922 102.982 117.67C103.355 117.409 103.617 117.063 103.766 116.634H105.138C104.933 117.371 104.522 117.973 103.906 118.44C103.29 118.897 102.525 119.126 101.61 119.126C100.882 119.126 100.229 118.963 99.6499 118.636C99.0805 118.309 98.6325 117.847 98.3059 117.25C97.9792 116.643 97.8159 115.943 97.8159 115.15C97.8159 114.357 97.9745 113.661 98.2919 113.064C98.6092 112.467 99.0525 112.009 99.6219 111.692C100.201 111.365 100.863 111.202 101.61 111.202C102.338 111.202 102.982 111.361 103.542 111.678C104.102 111.995 104.531 112.434 104.83 112.994C105.138 113.545 105.292 114.17 105.292 114.87ZM103.976 114.604C103.976 114.119 103.869 113.703 103.654 113.358C103.439 113.003 103.145 112.737 102.772 112.56C102.408 112.373 102.002 112.28 101.554 112.28C100.91 112.28 100.359 112.485 99.9019 112.896C99.4539 113.307 99.1972 113.876 99.1319 114.604H103.976ZM110.712 111.188C111.645 111.188 112.401 111.473 112.98 112.042C113.558 112.602 113.848 113.414 113.848 114.478V119H112.588V114.66C112.588 113.895 112.396 113.311 112.014 112.91C111.631 112.499 111.108 112.294 110.446 112.294C109.774 112.294 109.237 112.504 108.836 112.924C108.444 113.344 108.248 113.955 108.248 114.758V119H106.974V111.328H108.248V112.42C108.5 112.028 108.84 111.725 109.27 111.51C109.708 111.295 110.189 111.188 110.712 111.188ZM117.483 112.378V116.9C117.483 117.273 117.562 117.539 117.721 117.698C117.879 117.847 118.155 117.922 118.547 117.922H119.485V119H118.337C117.627 119 117.095 118.837 116.741 118.51C116.386 118.183 116.209 117.647 116.209 116.9V112.378H115.215V111.328H116.209V109.396H117.483V111.328H119.485V112.378H117.483Z" fill="#282828"/>
<path d="M314.261 280.643L292.612 230.192C285.28 213.076 271.793 212.386 262.732 228.674L249.66 252.208C243.02 264.148 230.639 265.183 222.062 254.486L220.541 252.553C211.618 241.373 199.03 242.753 192.597 255.521L180.7 279.332C172.331 295.896 184.436 315.427 202.972 315.427H291.229C309.212 315.427 321.316 297.138 314.261 280.643ZM212.517 218.804C218.02 218.804 223.298 216.623 227.19 212.74C231.081 208.857 233.267 203.591 233.267 198.099C233.267 192.608 231.081 187.342 227.19 183.459C223.298 179.576 218.02 177.395 212.517 177.395C207.014 177.395 201.736 179.576 197.845 183.459C193.953 187.342 191.767 192.608 191.767 198.099C191.767 203.591 193.953 208.857 197.845 212.74C201.736 216.623 207.014 218.804 212.517 218.804V218.804Z" stroke="#949393" stroke-width="2.5" stroke-linecap="round" stroke-linejoin="round"/>
</svg>
