<svg width="603" height="624" viewBox="0 0 603 624" fill="none" xmlns="http://www.w3.org/2000/svg">
<rect y="103" width="234.382" height="220" fill="#D9D9D9"/>
<rect x="333.461" y="353" width="234.382" height="219" fill="#D9D9D9"/>
<rect x="266.343" width="336.657" height="323" fill="#D9D9D9"/>
<rect x="74.5759" y="353" width="226.924" height="271" fill="#D9D9D9"/>
<path d="M482.554 170.295L467.214 134.554C462.018 122.428 452.461 121.939 446.041 133.478L436.778 150.151C432.073 158.61 423.3 159.343 417.222 151.765L416.144 150.396C409.822 142.475 400.902 143.453 396.343 152.498L387.914 169.366C381.983 181.101 390.56 194.938 403.695 194.938H466.233C478.976 194.938 487.553 181.981 482.554 170.295ZM410.459 126.487C414.358 126.487 418.098 124.941 420.856 122.19C423.613 119.44 425.162 115.709 425.162 111.818C425.162 107.928 423.613 104.197 420.856 101.447C418.098 98.6958 414.358 97.1504 410.459 97.1504C406.559 97.1504 402.819 98.6958 400.062 101.447C397.304 104.197 395.755 107.928 395.755 111.818C395.755 115.709 397.304 119.44 400.062 122.19C402.819 124.941 406.559 126.487 410.459 126.487V126.487Z" stroke="#949393" stroke-width="2.5" stroke-linecap="round" stroke-linejoin="round"/>
<path d="M155.879 230.708L143.982 202.99C139.953 193.586 132.541 193.207 127.562 202.156L120.379 215.086C116.73 221.645 109.926 222.214 105.213 216.337L104.377 215.275C99.4739 209.133 92.5563 209.891 89.0215 216.906L82.484 229.987C77.8849 239.087 84.5365 249.818 94.7228 249.818H143.222C153.104 249.818 159.756 239.77 155.879 230.708ZM99.968 196.734C102.992 196.734 105.892 195.535 108.031 193.402C110.169 191.269 111.371 188.375 111.371 185.358C111.371 182.341 110.169 179.448 108.031 177.315C105.892 175.182 102.992 173.983 99.968 173.983C96.9438 173.983 94.0435 175.182 91.9051 177.315C89.7667 179.448 88.5654 182.341 88.5654 185.358C88.5654 188.375 89.7667 191.269 91.9051 193.402C94.0435 195.535 96.9438 196.734 99.968 196.734V196.734Z" stroke="#949393" stroke-width="2.5" stroke-linecap="round" stroke-linejoin="round"/>
<path d="M224.879 494.134L212.982 466.417C208.953 457.013 201.541 456.634 196.562 465.583L189.379 478.512C185.73 485.072 178.926 485.641 174.213 479.764L173.377 478.702C168.474 472.559 161.556 473.318 158.021 480.333L151.484 493.414C146.885 502.514 153.536 513.245 163.723 513.245H212.222C222.104 513.245 228.756 503.197 224.879 494.134ZM168.968 460.16C171.992 460.16 174.892 458.962 177.031 456.829C179.169 454.695 180.371 451.802 180.371 448.785C180.371 445.768 179.169 442.875 177.031 440.742C174.892 438.608 171.992 437.41 168.968 437.41C165.944 437.41 163.044 438.608 160.905 440.742C158.767 442.875 157.565 445.768 157.565 448.785C157.565 451.802 158.767 454.695 160.905 456.829C163.044 458.962 165.944 460.16 168.968 460.16V460.16Z" stroke="#949393" stroke-width="2.5" stroke-linecap="round" stroke-linejoin="round"/>
<path d="M484.026 464.719L473.695 440.648C470.196 432.482 463.76 432.152 459.436 439.924L453.197 451.152C450.029 456.849 444.12 457.343 440.027 452.239L439.301 451.317C435.043 445.982 429.036 446.641 425.966 452.733L420.289 464.093C416.295 471.996 422.071 481.314 430.917 481.314H473.035C481.617 481.314 487.393 472.588 484.026 464.719ZM435.472 435.215C438.098 435.215 440.617 434.174 442.474 432.321C444.331 430.469 445.374 427.956 445.374 425.336C445.374 422.716 444.331 420.204 442.474 418.351C440.617 416.499 438.098 415.458 435.472 415.458C432.846 415.458 430.327 416.499 428.47 418.351C426.613 420.204 425.57 422.716 425.57 425.336C425.57 427.956 426.613 430.469 428.47 432.321C430.327 434.174 432.846 435.215 435.472 435.215V435.215Z" stroke="#949393" stroke-width="2.5" stroke-linecap="round" stroke-linejoin="round"/>
</svg>
