<svg width="62" height="62" viewBox="0 0 62 62" fill="none" xmlns="http://www.w3.org/2000/svg">
<rect width="62" height="62" rx="10" fill="#A6A4A4"/>
<mask id="path-2-inside-1_0_1" fill="white">
<path d="M23.2253 41.8376L22.9029 41.5524C22.1851 40.8754 21.7434 39.9566 21.6629 38.9732C21.6629 38.8616 21.6629 38.7624 21.5017 38.7252C20.9773 38.5784 20.5318 38.2309 20.2617 37.758L13.8633 28.1108C12.8465 26.5856 11.8297 25.0728 10.8253 23.5476C10.6554 23.3203 10.5361 23.0593 10.4757 22.782C10.4153 22.5047 10.415 22.2177 10.4749 21.9404C10.5349 21.663 10.6536 21.4017 10.8232 21.1741C10.9927 20.9466 11.2091 20.758 11.4577 20.6212C12.3066 20.0884 13.3299 19.9082 14.3097 20.119C15.2895 20.3298 16.1483 20.9149 16.7029 21.7496C18.1785 23.932 19.6293 26.1392 21.0925 28.334L23.5725 32.054C23.7271 32.3043 23.9448 32.5094 24.2039 32.6487C24.4629 32.788 24.7541 32.8566 25.0481 32.8476H29.7601C29.9585 32.8476 30.0453 32.8476 30.0329 32.5872C30.0329 31.7936 30.0329 30.9876 30.0329 30.1816C30.0329 29.9832 30.0329 29.9212 29.7725 29.8964C29.1604 29.8477 28.5656 29.6701 28.027 29.3752C27.4884 29.0802 27.0184 28.6747 26.6477 28.1852C26.5609 28.0736 26.4121 27.9496 26.4989 27.776C26.5857 27.6024 26.7593 27.6768 26.8957 27.6768H33.6165C33.7405 27.6768 33.8893 27.6768 33.9637 27.7884C34.0381 27.9 33.9637 28.0364 33.8521 28.148C33.4793 28.6471 33.0045 29.0612 32.4593 29.3626C31.9142 29.6641 31.3111 29.846 30.6901 29.8964C30.4669 29.8964 30.4049 29.9708 30.4049 30.194C30.4049 31.0207 30.4049 31.8143 30.4049 32.5748C30.4049 32.8104 30.4669 32.86 30.7025 32.86H37.6341C38.5725 32.8392 39.5039 33.0263 40.3614 33.4079C41.2189 33.7895 41.9814 34.3562 42.5941 35.0672C44.7848 37.5472 46.9837 39.9941 49.1909 42.408C49.2777 42.5196 49.3769 42.6188 49.4761 42.7304C49.5753 42.842 49.4761 42.5692 49.4761 42.5072C49.4761 33.8768 49.4761 25.2464 49.4761 16.616C49.4787 16.5345 49.4634 16.4533 49.4313 16.3784C49.3991 16.3034 49.351 16.2363 49.2901 16.182C46.9837 13.888 44.6401 11.5692 42.1601 9.2628C41.9865 9.0892 41.8997 9.1016 41.7509 9.2628C41.6021 9.424 41.1185 9.7464 41.0813 10.0316C41.0441 10.3168 41.4285 10.5648 41.6145 10.8376C42.1784 11.6808 42.5583 12.6335 42.7292 13.6334C42.9001 14.6334 42.8583 15.6581 42.6065 16.6408C42.4624 17.2713 42.2802 17.8924 42.0609 18.5008C41.9493 18.848 41.8501 18.8728 41.5773 18.6L34.5713 11.5692L31.6945 8.68C31.4093 8.3948 31.4341 8.308 31.8309 8.1716C32.8668 7.7805 33.9517 7.53431 35.0549 7.44C36.0689 7.36867 37.0863 7.52044 38.0354 7.88464C38.9844 8.24884 39.8421 8.81661 40.5481 9.548C40.7217 9.7216 40.8209 9.7464 40.9945 9.548C41.1681 9.3496 41.4781 9.0768 41.7013 8.8164C41.9245 8.556 42.0361 8.5808 42.2717 8.8164L49.7117 16.0208C49.7824 16.0867 49.837 16.1679 49.8714 16.2582C49.9058 16.3484 49.919 16.4454 49.9101 16.5416V36.0964C49.9101 38.3036 49.9101 40.5232 49.9101 42.7304C49.9044 42.8854 49.93 43.04 49.9854 43.1849C50.0408 43.3297 50.1248 43.462 50.2325 43.5736C50.9029 44.3127 51.2596 45.2836 51.2272 46.2809C51.1948 47.2783 50.7759 48.2239 50.0589 48.918C49.867 49.1176 49.6353 49.2748 49.3789 49.3795C49.1226 49.4842 48.8471 49.5341 48.5703 49.5259C48.2935 49.5178 48.0214 49.4517 47.7717 49.3321C47.5219 49.2124 47.3 49.0418 47.1201 48.8312L38.6261 39.3948C38.3561 39.0655 37.9699 38.8524 37.5473 38.7996C37.4481 38.7996 37.3365 38.7376 37.3241 38.9112C37.2806 39.4887 37.1116 40.0497 36.8289 40.5552C36.5462 41.0606 36.1566 41.4983 35.6873 41.8376C36.2316 42.2059 36.6708 42.7092 36.9621 43.2983C37.2534 43.8873 37.3866 44.5419 37.3489 45.198C37.3489 48.3972 37.3489 51.5964 37.3489 54.7956C37.3489 55.242 37.3489 55.242 36.9149 55.242H22.0349C21.6009 55.242 21.6009 55.242 21.6009 54.7832C21.6009 51.6088 21.6009 48.4344 21.6009 45.26C21.5543 44.598 21.6793 43.9351 21.9639 43.3356C22.2485 42.736 22.6829 42.2201 23.2253 41.8376ZM50.8401 46.1528C50.8388 45.2805 50.5115 44.4402 49.9225 43.7968L42.2593 35.278C41.6888 34.6188 40.9792 34.0944 40.1815 33.7428C39.3838 33.3911 38.518 33.2209 37.6465 33.2444H24.9613C24.5946 33.2589 24.2307 33.1744 23.9078 32.9999C23.5849 32.8253 23.3149 32.5672 23.1261 32.2524C22.3697 31.1116 21.6009 29.9708 20.8445 28.8176L16.3061 21.9976C16.0596 21.6155 15.7402 21.2858 15.3662 21.0272C14.9921 20.7687 14.5708 20.5864 14.1263 20.4908C13.6817 20.3952 13.2227 20.3882 12.7754 20.4701C12.3282 20.5521 11.9015 20.7214 11.5197 20.9684C11.3218 21.0791 11.1496 21.2305 11.0146 21.4128C10.8797 21.5951 10.785 21.8039 10.737 22.0255C10.6889 22.2472 10.6885 22.4765 10.7358 22.6983C10.7831 22.9201 10.877 23.1293 11.0113 23.312L20.4849 37.572C20.6493 37.8393 20.8817 38.0583 21.1584 38.2064C21.435 38.3545 21.7461 38.4266 22.0597 38.4152H36.9397C37.3278 38.3952 37.7152 38.4667 38.0706 38.624C38.426 38.7812 38.7395 39.0198 38.9857 39.3204C41.7509 42.4204 44.5285 45.5204 47.3185 48.5832C47.4672 48.7693 47.6559 48.9195 47.8705 49.0228C48.0852 49.126 48.3203 49.1796 48.5585 49.1796C48.7967 49.1796 49.0318 49.126 49.2465 49.0228C49.4612 48.9195 49.6498 48.7693 49.7985 48.5832C50.1241 48.267 50.3838 47.8894 50.5626 47.4722C50.7413 47.0551 50.8357 46.6066 50.8401 46.1528ZM29.4625 38.7872H22.2457C22.0101 38.7872 21.9605 38.7872 21.9977 39.0724C22.0731 39.5741 22.2534 40.0543 22.5268 40.4817C22.8003 40.909 23.1609 41.2738 23.5849 41.5524C23.8825 41.7508 23.8825 41.8376 23.5849 42.0236C23.0793 42.3166 22.6624 42.7411 22.3786 43.252C22.0948 43.7629 21.9546 44.3411 21.9729 44.9252C21.9729 47.2316 21.9729 49.5504 21.9729 51.8568C21.9729 52.1296 22.0597 52.1668 22.2953 52.1668H36.6173C36.7785 52.1668 36.9025 52.1668 36.9025 51.9436C36.9025 49.538 36.9025 47.1324 36.9025 44.7268C36.8821 44.1998 36.7266 43.687 36.4508 43.2374C36.175 42.7879 35.7883 42.4169 35.3277 42.16C34.9805 41.9368 34.9805 41.8624 35.3277 41.6268C35.7438 41.3434 36.0964 40.9766 36.3633 40.5496C36.6301 40.1227 36.8053 39.645 36.8777 39.1468C36.8777 38.9112 36.8777 38.8368 36.6049 38.8368L29.4625 38.7872ZM41.7881 18.1908C43.0281 14.7808 42.6065 11.8916 40.0149 9.5108C38.9444 8.58391 37.6255 7.99124 36.2216 7.80611C34.8177 7.62098 33.3903 7.85152 32.1161 8.4692L41.7881 18.1908ZM29.3881 54.87H36.5925C36.8033 54.87 36.8777 54.87 36.8653 54.6096C36.8653 53.9524 36.8653 53.3696 36.8653 52.6628C36.8653 52.4644 36.8653 52.4024 36.6173 52.4024C31.8061 52.4024 26.9825 52.4024 22.1713 52.4024C21.9481 52.4024 21.9233 52.4768 21.9233 52.6628C21.9233 53.3076 21.9233 53.9028 21.9233 54.5724C21.9233 54.8328 22.0101 54.87 22.2333 54.87H29.3881ZM27.0445 28.086C27.4956 28.6168 28.0721 29.0264 28.7218 29.2776C29.3715 29.5289 30.0737 29.6137 30.7645 29.5244C31.2785 29.48 31.7776 29.3292 32.2302 29.0816C32.6827 28.834 33.0788 28.4949 33.3933 28.086H27.0445Z"/>
</mask>
<path d="M23.2253 41.8376L22.9029 41.5524C22.1851 40.8754 21.7434 39.9566 21.6629 38.9732C21.6629 38.8616 21.6629 38.7624 21.5017 38.7252C20.9773 38.5784 20.5318 38.2309 20.2617 37.758L13.8633 28.1108C12.8465 26.5856 11.8297 25.0728 10.8253 23.5476C10.6554 23.3203 10.5361 23.0593 10.4757 22.782C10.4153 22.5047 10.415 22.2177 10.4749 21.9404C10.5349 21.663 10.6536 21.4017 10.8232 21.1741C10.9927 20.9466 11.2091 20.758 11.4577 20.6212C12.3066 20.0884 13.3299 19.9082 14.3097 20.119C15.2895 20.3298 16.1483 20.9149 16.7029 21.7496C18.1785 23.932 19.6293 26.1392 21.0925 28.334L23.5725 32.054C23.7271 32.3043 23.9448 32.5094 24.2039 32.6487C24.4629 32.788 24.7541 32.8566 25.0481 32.8476H29.7601C29.9585 32.8476 30.0453 32.8476 30.0329 32.5872C30.0329 31.7936 30.0329 30.9876 30.0329 30.1816C30.0329 29.9832 30.0329 29.9212 29.7725 29.8964C29.1604 29.8477 28.5656 29.6701 28.027 29.3752C27.4884 29.0802 27.0184 28.6747 26.6477 28.1852C26.5609 28.0736 26.4121 27.9496 26.4989 27.776C26.5857 27.6024 26.7593 27.6768 26.8957 27.6768H33.6165C33.7405 27.6768 33.8893 27.6768 33.9637 27.7884C34.0381 27.9 33.9637 28.0364 33.8521 28.148C33.4793 28.6471 33.0045 29.0612 32.4593 29.3626C31.9142 29.6641 31.3111 29.846 30.6901 29.8964C30.4669 29.8964 30.4049 29.9708 30.4049 30.194C30.4049 31.0207 30.4049 31.8143 30.4049 32.5748C30.4049 32.8104 30.4669 32.86 30.7025 32.86H37.6341C38.5725 32.8392 39.5039 33.0263 40.3614 33.4079C41.2189 33.7895 41.9814 34.3562 42.5941 35.0672C44.7848 37.5472 46.9837 39.9941 49.1909 42.408C49.2777 42.5196 49.3769 42.6188 49.4761 42.7304C49.5753 42.842 49.4761 42.5692 49.4761 42.5072C49.4761 33.8768 49.4761 25.2464 49.4761 16.616C49.4787 16.5345 49.4634 16.4533 49.4313 16.3784C49.3991 16.3034 49.351 16.2363 49.2901 16.182C46.9837 13.888 44.6401 11.5692 42.1601 9.2628C41.9865 9.0892 41.8997 9.1016 41.7509 9.2628C41.6021 9.424 41.1185 9.7464 41.0813 10.0316C41.0441 10.3168 41.4285 10.5648 41.6145 10.8376C42.1784 11.6808 42.5583 12.6335 42.7292 13.6334C42.9001 14.6334 42.8583 15.6581 42.6065 16.6408C42.4624 17.2713 42.2802 17.8924 42.0609 18.5008C41.9493 18.848 41.8501 18.8728 41.5773 18.6L34.5713 11.5692L31.6945 8.68C31.4093 8.3948 31.4341 8.308 31.8309 8.1716C32.8668 7.7805 33.9517 7.53431 35.0549 7.44C36.0689 7.36867 37.0863 7.52044 38.0354 7.88464C38.9844 8.24884 39.8421 8.81661 40.5481 9.548C40.7217 9.7216 40.8209 9.7464 40.9945 9.548C41.1681 9.3496 41.4781 9.0768 41.7013 8.8164C41.9245 8.556 42.0361 8.5808 42.2717 8.8164L49.7117 16.0208C49.7824 16.0867 49.837 16.1679 49.8714 16.2582C49.9058 16.3484 49.919 16.4454 49.9101 16.5416V36.0964C49.9101 38.3036 49.9101 40.5232 49.9101 42.7304C49.9044 42.8854 49.93 43.04 49.9854 43.1849C50.0408 43.3297 50.1248 43.462 50.2325 43.5736C50.9029 44.3127 51.2596 45.2836 51.2272 46.2809C51.1948 47.2783 50.7759 48.2239 50.0589 48.918C49.867 49.1176 49.6353 49.2748 49.3789 49.3795C49.1226 49.4842 48.8471 49.5341 48.5703 49.5259C48.2935 49.5178 48.0214 49.4517 47.7717 49.3321C47.5219 49.2124 47.3 49.0418 47.1201 48.8312L38.6261 39.3948C38.3561 39.0655 37.9699 38.8524 37.5473 38.7996C37.4481 38.7996 37.3365 38.7376 37.3241 38.9112C37.2806 39.4887 37.1116 40.0497 36.8289 40.5552C36.5462 41.0606 36.1566 41.4983 35.6873 41.8376C36.2316 42.2059 36.6708 42.7092 36.9621 43.2983C37.2534 43.8873 37.3866 44.5419 37.3489 45.198C37.3489 48.3972 37.3489 51.5964 37.3489 54.7956C37.3489 55.242 37.3489 55.242 36.9149 55.242H22.0349C21.6009 55.242 21.6009 55.242 21.6009 54.7832C21.6009 51.6088 21.6009 48.4344 21.6009 45.26C21.5543 44.598 21.6793 43.9351 21.9639 43.3356C22.2485 42.736 22.6829 42.2201 23.2253 41.8376ZM50.8401 46.1528C50.8388 45.2805 50.5115 44.4402 49.9225 43.7968L42.2593 35.278C41.6888 34.6188 40.9792 34.0944 40.1815 33.7428C39.3838 33.3911 38.518 33.2209 37.6465 33.2444H24.9613C24.5946 33.2589 24.2307 33.1744 23.9078 32.9999C23.5849 32.8253 23.3149 32.5672 23.1261 32.2524C22.3697 31.1116 21.6009 29.9708 20.8445 28.8176L16.3061 21.9976C16.0596 21.6155 15.7402 21.2858 15.3662 21.0272C14.9921 20.7687 14.5708 20.5864 14.1263 20.4908C13.6817 20.3952 13.2227 20.3882 12.7754 20.4701C12.3282 20.5521 11.9015 20.7214 11.5197 20.9684C11.3218 21.0791 11.1496 21.2305 11.0146 21.4128C10.8797 21.5951 10.785 21.8039 10.737 22.0255C10.6889 22.2472 10.6885 22.4765 10.7358 22.6983C10.7831 22.9201 10.877 23.1293 11.0113 23.312L20.4849 37.572C20.6493 37.8393 20.8817 38.0583 21.1584 38.2064C21.435 38.3545 21.7461 38.4266 22.0597 38.4152H36.9397C37.3278 38.3952 37.7152 38.4667 38.0706 38.624C38.426 38.7812 38.7395 39.0198 38.9857 39.3204C41.7509 42.4204 44.5285 45.5204 47.3185 48.5832C47.4672 48.7693 47.6559 48.9195 47.8705 49.0228C48.0852 49.126 48.3203 49.1796 48.5585 49.1796C48.7967 49.1796 49.0318 49.126 49.2465 49.0228C49.4612 48.9195 49.6498 48.7693 49.7985 48.5832C50.1241 48.267 50.3838 47.8894 50.5626 47.4722C50.7413 47.0551 50.8357 46.6066 50.8401 46.1528ZM29.4625 38.7872H22.2457C22.0101 38.7872 21.9605 38.7872 21.9977 39.0724C22.0731 39.5741 22.2534 40.0543 22.5268 40.4817C22.8003 40.909 23.1609 41.2738 23.5849 41.5524C23.8825 41.7508 23.8825 41.8376 23.5849 42.0236C23.0793 42.3166 22.6624 42.7411 22.3786 43.252C22.0948 43.7629 21.9546 44.3411 21.9729 44.9252C21.9729 47.2316 21.9729 49.5504 21.9729 51.8568C21.9729 52.1296 22.0597 52.1668 22.2953 52.1668H36.6173C36.7785 52.1668 36.9025 52.1668 36.9025 51.9436C36.9025 49.538 36.9025 47.1324 36.9025 44.7268C36.8821 44.1998 36.7266 43.687 36.4508 43.2374C36.175 42.7879 35.7883 42.4169 35.3277 42.16C34.9805 41.9368 34.9805 41.8624 35.3277 41.6268C35.7438 41.3434 36.0964 40.9766 36.3633 40.5496C36.6301 40.1227 36.8053 39.645 36.8777 39.1468C36.8777 38.9112 36.8777 38.8368 36.6049 38.8368L29.4625 38.7872ZM41.7881 18.1908C43.0281 14.7808 42.6065 11.8916 40.0149 9.5108C38.9444 8.58391 37.6255 7.99124 36.2216 7.80611C34.8177 7.62098 33.3903 7.85152 32.1161 8.4692L41.7881 18.1908ZM29.3881 54.87H36.5925C36.8033 54.87 36.8777 54.87 36.8653 54.6096C36.8653 53.9524 36.8653 53.3696 36.8653 52.6628C36.8653 52.4644 36.8653 52.4024 36.6173 52.4024C31.8061 52.4024 26.9825 52.4024 22.1713 52.4024C21.9481 52.4024 21.9233 52.4768 21.9233 52.6628C21.9233 53.3076 21.9233 53.9028 21.9233 54.5724C21.9233 54.8328 22.0101 54.87 22.2333 54.87H29.3881ZM27.0445 28.086C27.4956 28.6168 28.0721 29.0264 28.7218 29.2776C29.3715 29.5289 30.0737 29.6137 30.7645 29.5244C31.2785 29.48 31.7776 29.3292 32.2302 29.0816C32.6827 28.834 33.0788 28.4949 33.3933 28.086H27.0445Z" fill="white" stroke="white" stroke-width="182" mask="url(#path-2-inside-1_0_1)"/>
</svg>
