<svg width="62" height="62" viewBox="0 0 62 62" fill="none" xmlns="http://www.w3.org/2000/svg">
<rect width="62" height="62" rx="10" fill="#A6A4A4"/>
<path d="M14.432 36.7121C14.228 36.7121 14.132 36.4721 13.916 36.5441C13.3026 36.3506 12.7082 36.1016 12.14 35.8001C11.8186 35.5736 11.5855 35.2429 11.48 34.8641C11.48 34.5881 11.48 34.2761 11.732 34.0721L12.296 33.6401L12.452 33.5441L12.884 33.3401C13.1818 33.1954 13.4908 33.075 13.808 32.9801L14.348 32.8121L16.52 32.3441H16.748L17.252 32.2721C17.2844 32.2923 17.3218 32.303 17.36 32.303C17.3982 32.303 17.4356 32.2923 17.468 32.2721C17.768 32.2721 18.056 32.1761 18.344 32.1641C18.632 32.1521 18.668 32.0441 18.56 31.8161C18.3272 31.4023 18.1421 30.9635 18.008 30.5081C18.0039 30.4693 17.9916 30.4318 17.972 30.3981C17.9523 30.3644 17.9257 30.3352 17.894 30.3126C17.8622 30.2899 17.826 30.2742 17.7878 30.2665C17.7495 30.2589 17.7101 30.2594 17.672 30.2681C17.348 30.2681 17.06 30.0881 16.736 30.1481C16.5175 30.1844 16.2945 30.1844 16.076 30.1481C15.464 30.0041 14.876 29.8841 14.228 29.7521C14.228 29.6681 14.072 29.6801 13.988 29.7521C13.5617 29.6114 13.1169 29.5345 12.668 29.5241C12.572 29.3081 12.392 29.4161 12.248 29.4161C11.8341 29.157 11.3734 28.9817 10.892 28.9001L10.796 28.6001L10.256 28.2521C9.47603 27.3521 9.53603 27.0521 10.52 26.3441C10.578 26.303 10.6304 26.2546 10.676 26.2001L11.3 25.8881C11.732 25.8881 12.056 25.5281 12.5 25.4681C13.544 25.3241 14.552 25.0601 15.572 24.8561C16.184 24.8561 16.184 24.8561 16.04 24.2921C16.0278 24.2449 16.0278 24.1953 16.04 24.1481C15.992 23.3728 15.992 22.5954 16.04 21.8201V21.5921L16.148 20.8601L16.208 20.6681C16.28 20.5601 16.1 20.4641 16.208 20.3201C16.316 20.1761 16.376 19.8761 16.112 19.6481C15.8746 19.4325 15.6175 19.2397 15.344 19.0721C14.96 18.8321 14.816 18.2201 15.104 18.0881C15.4516 17.8779 15.7738 17.6283 16.064 17.3441C16.8563 16.826 17.4323 16.0366 17.684 15.1241C17.8092 14.9738 17.8993 14.7975 17.948 14.6081C18.0426 14.176 18.1669 13.751 18.32 13.3361C18.32 13.3361 18.32 13.2761 18.32 13.2401C18.3623 13.2005 18.395 13.1519 18.4158 13.0978C18.4365 13.0438 18.4448 12.9858 18.44 12.9281C18.692 12.7361 18.596 12.4481 18.668 12.2081C18.884 12.2801 18.944 11.9561 19.16 12.0281C19.16 12.0281 19.16 12.0281 19.16 12.0881C19.3391 12.2412 19.4651 12.447 19.52 12.6761C19.7 13.3481 19.904 14.0321 20.144 14.6801C20.456 15.5321 20.216 15.5801 21.26 15.2201C21.524 15.1361 21.836 15.2201 22.076 14.9801H22.16C22.292 14.9801 22.4 15.0881 22.556 15.0641C23.7264 14.9097 24.9155 14.9789 26.06 15.2681H26.252L28.244 16.1681L29.012 16.6361C29.0971 16.7372 29.2074 16.8138 29.3319 16.8581C29.4563 16.9023 29.5903 16.9127 29.72 16.8881C30.4123 16.9895 31.1157 16.9895 31.808 16.8881C33.3684 16.6437 34.8771 16.1408 36.272 15.4001C36.531 15.3952 36.7839 15.3206 37.004 15.1841L37.628 15.0641C37.6792 15.0743 37.7322 15.0721 37.7823 15.0574C37.8325 15.0428 37.8784 15.0163 37.916 14.9801H38.444C38.528 14.9801 38.612 14.9801 38.672 14.9801H39.236H39.824H40.448C40.6838 15.0586 40.9316 15.0952 41.18 15.0881L41.384 15.1481C42.0931 15.2924 42.7821 15.5221 43.436 15.8321L44.312 16.3241C44.5179 16.6095 44.801 16.8301 45.128 16.9601V17.0561L46.328 18.7481L46.484 19.0841C46.592 19.2641 46.484 19.5401 46.82 19.6001C46.7937 19.7013 46.7886 19.8069 46.8051 19.9102C46.8216 20.0134 46.8594 20.1122 46.916 20.2001C47.2352 21.4576 47.3527 22.7578 47.264 24.0521L47.168 24.6401C47.168 24.6401 47.168 24.6401 47.168 24.7241C47.168 24.8081 47.168 24.8801 47.252 24.8801L48.284 25.0481L49.244 25.2161C49.2882 25.2492 49.3387 25.2726 49.3924 25.285C49.4461 25.2974 49.5019 25.2985 49.556 25.2881C49.7465 25.3925 49.9636 25.4384 50.18 25.4201C50.5662 25.5741 50.9688 25.6829 51.38 25.7441C51.5748 25.8497 51.7856 25.9227 52.004 25.9601L52.64 26.2481L53.132 26.5721L53.456 26.9201C53.5598 27.1788 53.5929 27.4604 53.552 27.7361C53.1554 28.3156 52.5702 28.7396 51.896 28.9361C50.0641 29.5204 48.179 29.9223 46.268 30.1361L45.56 30.2321C45.416 30.2321 45.368 30.2321 45.32 30.4361C45.164 30.9041 44.924 31.3481 44.816 31.8281C44.708 31.9721 44.6 32.1161 44.912 32.1041H45.224H45.44L47.42 32.4281H47.612L50.228 33.1601L50.864 33.4601L51.272 33.6881L51.788 34.2281C52.076 35.1161 51.476 35.5481 50.864 35.9681L49.664 36.4361C48.8 36.7361 47.876 36.8441 47 37.0841C46.2423 37.2789 45.4659 37.3916 44.684 37.4201C44.432 37.4201 44.372 37.5521 44.384 37.7801C44.482 39.0638 44.4539 40.3539 44.3 41.6321C44.204 42.3161 44.096 43.0001 43.988 43.6721V43.8761C43.58 45.3888 43.0296 46.8593 42.344 48.2681L42.104 48.6761C41.3753 50.021 40.4307 51.2371 39.308 52.2761C38.6233 53.053 37.7056 53.5876 36.692 53.8001H36.368H36.272C36.1482 53.7154 36.002 53.6695 35.852 53.6681C35.4811 53.507 35.1852 53.211 35.024 52.8401C35.0358 52.7824 35.0331 52.7226 35.0164 52.6661C34.9997 52.6096 34.9693 52.5581 34.928 52.5161V52.3121V52.1081C35.033 51.3266 35.2057 50.5557 35.444 49.8041C35.6656 48.9426 35.8102 48.0632 35.876 47.1761C35.9601 46.0684 35.9359 44.9551 35.804 43.8521V43.4321C35.6 42.8561 35.66 42.2321 35.42 41.6681C35.528 41.6681 35.516 41.5601 35.42 41.5001C35.4258 41.4817 35.4271 41.4621 35.4238 41.4431C35.4204 41.4241 35.4125 41.4061 35.4007 41.3908C35.3889 41.3755 35.3736 41.3632 35.3561 41.3551C35.3386 41.347 35.3193 41.3432 35.3 41.3441C35.1516 40.5208 34.9142 39.7161 34.592 38.9441C34.5485 38.7384 34.4295 38.5565 34.2584 38.4343C34.0874 38.3121 33.8767 38.2585 33.668 38.2841L32.468 38.3441H31.424C31.424 38.3441 31.424 38.3441 31.424 38.2841C31.268 38.0681 31.1 38.0801 30.932 38.2841C30.764 38.4881 30.932 38.3921 30.932 38.4401C30.932 38.4881 30.776 38.3081 30.68 38.2721C30.4835 38.1775 30.2682 38.1283 30.05 38.1283C29.8319 38.1283 29.6166 38.1775 29.42 38.2721C29.3593 38.2692 29.2993 38.2865 29.2494 38.3212C29.1995 38.3559 29.1625 38.4062 29.144 38.4641C28.6624 39.5008 28.2962 40.5874 28.052 41.7041C28.0211 41.7298 27.998 41.7637 27.9853 41.8018C27.9725 41.84 27.9707 41.881 27.98 41.9201C27.5475 43.8894 27.4421 45.9165 27.668 47.9201C27.6998 48.4539 27.7965 48.9818 27.956 49.4921V49.6961L28.148 50.5241C28.1366 50.5643 28.1386 50.6072 28.1538 50.6462C28.1689 50.6852 28.1964 50.7182 28.232 50.7401C28.2212 50.8899 28.2637 51.0387 28.352 51.1601V51.3761C28.4333 51.6186 28.4646 51.875 28.4442 52.1299C28.4238 52.3849 28.352 52.633 28.2331 52.8595C28.1143 53.0859 27.9509 53.286 27.7527 53.4476C27.5546 53.6093 27.3257 53.7292 27.08 53.8001H26.756C25.772 53.8001 25.148 53.1161 24.452 52.6001C24.0806 52.3949 23.7574 52.1125 23.504 51.7721C23.3964 51.5589 23.2402 51.3739 23.048 51.2321C22.868 51.081 22.7175 50.8979 22.604 50.6921L21.548 49.1441C21.3493 48.8814 21.1765 48.6001 21.032 48.3041C20.3557 46.9438 19.8248 45.5159 19.448 44.0441L19.316 43.2881L19.232 42.8921C19.352 42.8201 19.34 42.7001 19.352 42.5801C19.364 42.4601 19.352 42.2801 19.532 42.2921C19.712 42.3041 19.748 42.4361 19.76 42.5801V42.8921C19.436 43.4081 19.58 43.7081 20.168 43.7201V43.8281C20.084 44.1761 19.976 44.5481 20.42 44.7521C20.684 45.4481 20.912 46.1561 21.212 46.8401C22.1816 49.2718 23.8524 51.3603 26.012 52.8401C26.193 52.9835 26.4161 53.0637 26.647 53.0682C26.8779 53.0728 27.1039 53.0015 27.2904 52.8654C27.477 52.7292 27.6137 52.5357 27.6798 52.3144C27.7458 52.0931 27.7375 51.8562 27.656 51.6401C27.4299 50.9478 27.2456 50.2425 27.104 49.5281C26.3717 45.8626 26.7433 42.0622 28.172 38.6081C28.172 38.5121 28.412 38.3921 28.172 38.2601C28.304 37.9841 28.172 37.9241 27.908 37.8761L28.016 37.5761C28.2563 37.6373 28.5106 37.609 28.7314 37.4964C28.9523 37.3837 29.1245 37.1945 29.216 36.9641C29.4909 36.5175 29.8645 36.1398 30.308 35.8601C30.718 35.537 31.2221 35.3563 31.744 35.3455C32.2659 35.3346 32.777 35.4942 33.2 35.8001C33.6784 36.1132 34.0869 36.5217 34.4 37.0001C34.4692 37.1359 34.5797 37.2462 34.7155 37.3152C34.8514 37.3842 35.0056 37.4083 35.156 37.3841C37.832 37.2881 40.496 37.1201 43.16 36.8561C43.592 36.8561 43.52 36.5801 43.484 36.3281C43.29 34.5956 43.5334 32.8422 44.192 31.2281L44.564 30.1841C42.464 30.3521 40.436 30.5921 38.384 30.6041C37.8029 30.4606 37.1988 30.4361 36.608 30.5321C36.608 30.5321 36.536 30.6401 36.5 30.6881H35.66C35.588 30.6881 35.516 30.5801 35.444 30.5801C34.328 30.5801 33.224 30.5801 32.12 30.5801C31.964 30.5801 31.832 30.5801 31.784 30.7601C31.736 30.9401 31.64 30.7601 31.592 30.7601L31.46 30.1721C31.652 30.1721 31.856 30.2681 32.012 30.0881H32.324C32.3473 30.1236 32.3795 30.1523 32.4175 30.1712C32.4554 30.1902 32.4977 30.1988 32.54 30.1961H35.3C35.3299 30.2072 35.3617 30.2119 35.3935 30.2099C35.4253 30.208 35.4564 30.1994 35.4846 30.1847C35.5129 30.17 35.5378 30.1495 35.5577 30.1246C35.5775 30.0997 35.592 30.0709 35.6 30.0401H35.804C38.708 29.9801 41.6 29.7761 44.504 29.5121C44.6474 29.5104 44.7864 29.4629 44.9008 29.3765C45.0153 29.2902 45.0991 29.1695 45.14 29.0321C45.8866 27.4079 46.3842 25.6805 46.616 23.9081C46.849 22.1699 46.5166 20.4029 45.668 18.8681C44.8898 17.6391 43.7489 16.6822 42.4032 16.1297C41.0575 15.5772 39.5734 15.4565 38.156 15.7841C37.0897 16.0315 36.0521 16.3894 35.06 16.8521C33.7751 17.3579 32.4184 17.6576 31.04 17.7401C31.4241 17.9706 31.8252 18.1711 32.24 18.3401C33.2347 18.7527 34.2799 19.0311 35.348 19.1681C35.636 19.1681 35.84 19.3121 35.792 19.6241C35.744 19.9361 35.528 19.9601 35.276 19.9241H35.012C33.0848 19.6244 31.2415 18.9255 29.6 17.8721C28.7496 17.3007 27.8638 16.7836 26.948 16.3241C25.1723 15.5242 23.1637 15.4088 21.308 16.0001C20.912 16.1201 20.888 16.2401 21.164 16.5281C21.5379 16.9161 21.9389 17.2771 22.364 17.6081C23.408 18.4481 23.564 18.4001 22.364 19.3241C21.5014 19.8891 20.8283 20.7001 20.432 21.6521C20.132 22.4921 19.892 23.3441 19.592 24.1721C19.508 24.4361 19.592 24.8201 19.124 24.8321C18.656 24.8441 18.716 24.4481 18.632 24.1961C18.452 23.6441 18.32 23.0921 18.128 22.5521C17.9228 21.7934 17.5678 21.0835 17.084 20.4641C16.8586 21.1989 16.7454 21.9635 16.748 22.7321C16.818 24.7559 17.2742 26.7476 18.092 28.6001C18.356 29.2721 18.668 29.6561 19.424 29.5841C19.774 29.5763 20.1238 29.6044 20.468 29.6681L22.184 29.8121C22.472 29.8121 22.652 29.9681 22.604 30.2801C22.556 30.5921 22.328 30.6041 22.088 30.5801H21.728L18.8 30.2321L19.088 31.0601C18.995 31.1089 18.9171 31.1822 18.8628 31.2721C18.8085 31.362 18.7798 31.4651 18.7798 31.5701C18.7798 31.6751 18.8085 31.7782 18.8628 31.8681C18.9171 31.958 18.995 32.0313 19.088 32.0801C19.2003 32.1208 19.2921 32.204 19.3437 32.3117C19.3953 32.4194 19.4026 32.5431 19.364 32.6561C19.16 33.1361 19.484 33.0281 19.724 33.0521V33.2561C19.352 33.6641 19.724 34.1081 19.724 34.5281C19.724 34.6601 19.724 34.9001 19.952 34.9241V35.1401H19.652V34.9121C19.6442 34.931 19.6401 34.9513 19.64 34.9718C19.64 34.9923 19.644 35.0126 19.6518 35.0315C19.6596 35.0504 19.671 35.0677 19.6855 35.0822C19.6999 35.0967 19.7171 35.1082 19.736 35.1161C19.568 35.4281 19.556 35.2481 19.52 35.0561C19.484 34.8641 19.52 34.2761 19.244 33.9641V33.6521C19.4 33.5081 19.388 33.4001 19.172 33.3401C19.172 32.7761 18.872 32.5841 18.332 32.7881C18.248 32.7881 18.164 32.7881 18.08 32.7881C16.4383 32.9974 14.8271 33.4002 13.28 33.9881C12.92 34.1321 12.392 34.2881 12.392 34.6961C12.392 35.1041 12.908 35.2481 13.268 35.4041C14.2847 35.8015 15.3377 36.0989 16.412 36.2921C16.508 36.5561 16.652 36.5081 16.832 36.3881H16.928C16.9358 36.4488 16.9568 36.5071 16.9894 36.5588C17.0221 36.6105 17.0657 36.6545 17.1171 36.6877C17.1685 36.7208 17.2266 36.7423 17.2872 36.7507C17.3478 36.7591 17.4095 36.7541 17.468 36.7361C18.08 36.5201 18.02 36.9641 18.08 37.3001H17.564C17.5378 37.2701 17.5034 37.2484 17.465 37.2378C17.4266 37.2271 17.386 37.2279 17.348 37.2401C17.036 37.2401 16.736 37.0361 16.412 37.1441C16.316 36.9761 16.136 37.0001 15.992 37.0001C15.38 37.0001 14.924 36.7961 14.432 36.7121ZM36.572 46.7321C36.5275 48.3665 36.2362 49.9848 35.708 51.5321C35.6238 51.7434 35.6136 51.977 35.679 52.1948C35.7443 52.4127 35.8814 52.602 36.068 52.7321C36.2383 52.8684 36.4499 52.9427 36.668 52.9427C36.8861 52.9427 37.0978 52.8684 37.268 52.7321C38.173 52.1814 38.9834 51.4885 39.668 50.6801C42.6066 47.128 44.0368 42.5661 43.652 37.9721C43.652 37.6001 43.496 37.5161 43.148 37.5641C41.072 37.8161 38.984 37.9481 36.896 38.0321L35.072 38.2001C36.0077 40.2953 36.5215 42.5543 36.584 44.8481C36.4129 45.4639 36.4087 46.1142 36.572 46.7321ZM19.136 23.0441C19.3316 22.1057 19.7125 21.2158 20.2565 20.4266C20.8005 19.6374 21.4966 18.9647 22.304 18.4481C21.4892 17.9499 20.7876 17.2869 20.2441 16.5016C19.7006 15.7164 19.3273 14.8261 19.148 13.8881C18.9496 14.8253 18.5661 15.7135 18.0201 16.5006C17.474 17.2877 16.7764 17.958 15.968 18.4721C16.7821 18.9754 17.4835 19.6412 18.0286 20.4279C18.5737 21.2145 18.9507 22.1052 19.136 23.0441ZM44.144 35.3081C44.144 35.3081 44.144 35.4401 44.144 35.5601C44.228 36.7601 44.228 36.7601 45.344 36.5921C46.9631 36.3864 48.5508 35.9834 50.072 35.3921C50.456 35.2361 51.008 35.1041 50.996 34.6721C50.984 34.2401 50.456 34.1081 50.072 33.9521C48.3435 33.3359 46.5462 32.9329 44.72 32.7521C44.492 32.7521 44.396 32.7521 44.336 33.0281C44.1989 33.7802 44.1346 34.5437 44.144 35.3081ZM17.6 29.3081C17.0964 28.1452 16.6949 26.9406 16.4 25.7081C16.34 25.4801 16.196 25.5161 16.04 25.5521C15.5 25.6481 14.948 25.7321 14.408 25.8401C13.2789 26.0286 12.1782 26.3593 11.132 26.8241C10.916 26.9321 10.592 27.0521 10.604 27.3401C10.616 27.6281 10.916 27.6881 11.12 27.7961C11.8795 28.1699 12.6872 28.4365 13.52 28.5881C14.8658 28.9027 16.2279 29.1431 17.6 29.3081ZM45.8 29.3081C46.412 29.2241 47 29.1641 47.504 29.0681C49.0674 28.8564 50.5989 28.4534 52.064 27.8681C52.364 27.7481 52.796 27.6161 52.796 27.2921C52.796 26.9681 52.376 26.8241 52.076 26.6921C50.8689 26.2068 49.6079 25.8684 48.32 25.6841C47.912 25.6121 47.396 25.3841 47.12 25.5521C46.844 25.7201 46.832 26.2841 46.724 26.6801C46.496 27.5921 46.112 28.4081 45.8 29.3081ZM33.8 37.4201C33.176 36.6521 32.6 35.9441 31.628 36.0281C31.2243 36.1021 30.8431 36.2684 30.5142 36.514C30.1853 36.7596 29.9176 37.078 29.732 37.4441C31.04 37.4801 32.336 37.4921 33.74 37.4201H33.8ZM29 37.5641C28.9498 37.573 28.903 37.5957 28.8649 37.6296C28.8268 37.6635 28.7988 37.7073 28.784 37.7561C28.784 37.8881 28.892 37.8401 28.964 37.8761C29.036 37.9121 29.144 37.8761 29.156 37.7201C29.168 37.5641 29.036 37.5761 28.94 37.5641H29Z" fill="white"/>
<path d="M23.9959 37.3C23.9119 37.3 23.8399 37.444 23.7319 37.372C23.6239 37.3 23.9119 37.348 23.9959 37.3Z" fill="white"/>
<path d="M14.8161 24.6641C14.8202 24.6919 14.8202 24.7202 14.8161 24.7481C14.8161 24.7481 14.7561 24.7481 14.7321 24.7481C14.7081 24.7481 14.7321 24.6761 14.7321 24.6641H14.8161Z" fill="white"/>
<path d="M41.264 17.7999C41.3614 17.7958 41.457 17.8279 41.5322 17.8899C41.6075 17.9519 41.6573 18.0395 41.672 18.1359C41.7701 18.4145 41.8503 18.6991 41.912 18.9879C42.0463 19.7196 42.3284 20.4162 42.7411 21.0352C43.1537 21.6542 43.6882 22.1825 44.312 22.5879C44.66 22.8159 44.792 23.1399 44.384 23.3799C43.6717 23.8639 43.0672 24.4901 42.6088 25.2192C42.1503 25.9482 41.8477 26.7642 41.72 27.6159C41.648 27.8559 41.636 28.1679 41.288 28.1799C40.94 28.1919 40.892 27.8559 40.808 27.6039C40.702 27.3258 40.6138 27.0412 40.544 26.7519C40.2529 25.4309 39.4616 24.274 38.336 23.5239C37.736 23.1039 37.736 22.9239 38.336 22.4919C39.428 21.7527 40.203 20.6308 40.508 19.3479C40.592 18.9639 40.724 18.5799 40.844 18.2079C40.94 17.9919 41.024 17.7999 41.264 17.7999ZM41.264 19.6119C40.9363 21.0068 40.0746 22.2175 38.864 22.9839C40.0685 23.7513 40.9288 24.9556 41.264 26.3439C41.587 25.0465 42.3558 23.9039 43.436 23.1159C43.604 23.0079 43.568 22.9119 43.436 22.8039C42.3511 22.0386 41.583 20.9035 41.276 19.6119H41.264Z" fill="white"/>
<path d="M26.288 26.4639C26.42 26.0079 26.552 25.5399 26.696 25.0839C26.756 24.8919 26.84 24.7239 27.08 24.7239C27.32 24.7239 27.428 24.8919 27.5 25.1079C27.68 25.7319 27.872 26.3079 28.064 26.9799C27.9699 26.9995 27.8844 27.0484 27.8198 27.1195C27.7551 27.1906 27.7146 27.2804 27.704 27.3759C27.7527 27.6233 27.8527 27.8579 27.9973 28.0645C28.142 28.2712 28.3281 28.4453 28.544 28.5759C28.712 28.5759 28.736 28.4799 28.772 28.3599L30.212 29.5599C30.464 29.7639 30.428 30.0039 30.212 30.2199C29.5124 30.6905 28.9185 31.3017 28.4681 32.0144C28.0177 32.7272 27.7207 33.526 27.596 34.3599C27.536 34.6119 27.512 34.9119 27.164 34.9239C26.816 34.9359 26.78 34.6359 26.708 34.3959C26.4535 33.4017 26.0871 32.4396 25.616 31.5279C26.036 31.5279 25.928 31.1319 25.988 30.8799C26.5409 31.5938 26.9486 32.4092 27.188 33.2799C27.3027 32.5782 27.56 31.9074 27.9439 31.3089C28.3277 30.7104 28.8301 30.1969 29.42 29.7999C28.3007 29.101 27.5028 27.9882 27.2 26.7039C27.128 26.4279 27.08 26.5119 26.984 26.7039C26.7899 26.54 26.5418 26.4544 26.288 26.4639Z" fill="white"/>
<path d="M25.376 31.3L24.056 30.196C23.72 29.92 23.72 29.668 24.056 29.392C24.6887 28.965 25.248 28.4382 25.712 27.832C25.964 27.832 26.144 28.108 26.432 28.036C26.0992 28.6458 25.6313 29.1712 25.064 29.572C24.896 29.704 24.752 29.812 24.992 29.992C24.9803 30.1361 25.0049 30.2808 25.0636 30.4129C25.1223 30.5449 25.2132 30.6602 25.328 30.748C25.508 30.916 25.616 31.096 25.376 31.3Z" fill="white"/>
<path d="M28.7721 28.3241C28.7721 28.4441 28.7721 28.5761 28.5441 28.5401C28.3283 28.4096 28.1421 28.2354 27.9974 28.0288C27.8528 27.8221 27.7529 27.5876 27.7041 27.3401C27.7147 27.2446 27.7552 27.1548 27.8199 27.0837C27.8845 27.0126 27.97 26.9637 28.0641 26.9441C28.2921 27.2441 28.2081 27.7001 28.5441 27.9521L28.6521 28.1081C28.6521 28.1921 28.6521 28.2881 28.7721 28.3241Z" fill="white"/>
<path d="M25.3759 31.2999C25.6159 31.0959 25.5079 30.9159 25.3759 30.7479C25.2612 30.6601 25.1703 30.5449 25.1116 30.4128C25.0529 30.2807 25.0282 30.136 25.0399 29.9919C25.3915 30.22 25.7035 30.5037 25.9639 30.8319C25.9039 31.0839 25.9639 31.4319 25.5919 31.4799L25.3759 31.2999Z" fill="white"/>
<path d="M26.2879 26.4641C26.5345 26.4509 26.7776 26.5277 26.9719 26.6801C26.9627 26.8715 26.8958 27.0555 26.7799 27.2081H26.5519C26.5519 26.9201 26.2879 27.0521 26.1439 27.0041C25.9999 26.9561 26.2159 26.6321 26.2879 26.4641Z" fill="white"/>
<path d="M26.4439 28.036C26.1559 28.108 25.9759 27.856 25.7239 27.832C25.8319 27.592 25.9519 27.364 26.0719 27.136C26.1439 27.304 26.2279 27.448 26.4439 27.412C26.5159 27.604 26.2759 27.58 26.1919 27.736H26.5759L26.4439 28.036Z" fill="white"/>
<path d="M26.444 27.3999C26.228 27.3999 26.144 27.2919 26.072 27.1239L26.144 26.9799C26.288 26.9799 26.528 26.8959 26.552 27.1839C26.444 27.1839 26.432 27.3039 26.444 27.3999Z" fill="white"/>
<path d="M28.7601 28.3479C28.6641 28.3479 28.6641 28.2159 28.6401 28.1319C28.6161 28.0479 28.8321 28.2159 28.7601 28.3479Z" fill="white"/>
<path d="M28.6519 28.144L28.5439 27.988L28.6519 28.144Z" fill="white"/>
<path d="M23.9839 37.924C24.4159 37.744 24.9079 37.924 25.3519 37.768C25.5439 37.696 25.6159 37.876 25.6159 38.056C25.0684 38.0847 24.5196 38.0403 23.9839 37.924Z" fill="white"/>
<path d="M20.072 43.288C19.976 43.288 19.952 43.504 19.844 43.432C19.736 43.36 19.904 43.204 19.844 43.072H20L20.072 43.288Z" fill="white"/>
<path d="M19.8679 43.0719C19.8325 43.0516 19.8035 43.0217 19.7844 42.9856C19.7653 42.9494 19.7568 42.9087 19.7599 42.8679C19.7954 42.8882 19.8243 42.9182 19.8434 42.9543C19.8626 42.9904 19.871 43.0312 19.8679 43.0719Z" fill="white"/>
<path d="M19.2439 38.6921C19.2439 38.5721 19.2439 38.4521 19.3399 38.3801C19.3399 38.4881 19.3639 38.6081 19.2439 38.6921Z" fill="white"/>
<path d="M26.7799 27.208C26.7612 27.3993 26.6907 27.5819 26.5759 27.736H26.1919C26.2759 27.58 26.5159 27.604 26.4439 27.412C26.5639 27.412 26.5519 27.292 26.5519 27.196H26.7799V27.208Z" fill="white"/>
<path d="M26.5519 27.196C26.5519 27.292 26.5519 27.376 26.4439 27.412C26.3359 27.448 26.4439 27.232 26.5519 27.196Z" fill="white"/>
</svg>
