<svg width="662" height="522" viewBox="0 0 662 522" fill="none" xmlns="http://www.w3.org/2000/svg">
<rect x="80" width="500" height="468" fill="#D9D9D9"/>
<line x1="642.5" y1="2.18557e-08" x2="642.5" y2="174" stroke="#282828"/>
<rect y="338" width="281" height="184" rx="10" fill="#CECECE" fill-opacity="0.95"/>
<path d="M25.4091 437V425.364H26.8182V435.75H32.2273V437H25.4091ZM37.7727 437.182C36.9848 437.182 36.2936 436.994 35.6989 436.619C35.108 436.244 34.6458 435.72 34.3125 435.045C33.983 434.371 33.8182 433.583 33.8182 432.682C33.8182 431.773 33.983 430.979 34.3125 430.301C34.6458 429.623 35.108 429.097 35.6989 428.722C36.2936 428.347 36.9848 428.159 37.7727 428.159C38.5606 428.159 39.25 428.347 39.8409 428.722C40.4356 429.097 40.8977 429.623 41.2273 430.301C41.5606 430.979 41.7273 431.773 41.7273 432.682C41.7273 433.583 41.5606 434.371 41.2273 435.045C40.8977 435.72 40.4356 436.244 39.8409 436.619C39.25 436.994 38.5606 437.182 37.7727 437.182ZM37.7727 435.977C38.3712 435.977 38.8636 435.824 39.25 435.517C39.6364 435.21 39.9223 434.807 40.108 434.307C40.2936 433.807 40.3864 433.265 40.3864 432.682C40.3864 432.098 40.2936 431.555 40.108 431.051C39.9223 430.547 39.6364 430.14 39.25 429.83C38.8636 429.519 38.3712 429.364 37.7727 429.364C37.1742 429.364 36.6818 429.519 36.2955 429.83C35.9091 430.14 35.6231 430.547 35.4375 431.051C35.2519 431.555 35.1591 432.098 35.1591 432.682C35.1591 433.265 35.2519 433.807 35.4375 434.307C35.6231 434.807 35.9091 435.21 36.2955 435.517C36.6818 435.824 37.1742 435.977 37.7727 435.977ZM43.7741 437V428.273H45.0696V429.591H45.1605C45.3196 429.159 45.6075 428.809 46.0241 428.54C46.4408 428.271 46.9105 428.136 47.4332 428.136C47.5317 428.136 47.6548 428.138 47.8026 428.142C47.9503 428.146 48.062 428.152 48.1378 428.159V429.523C48.0923 429.511 47.9882 429.494 47.8253 429.472C47.6662 429.445 47.4976 429.432 47.3196 429.432C46.8954 429.432 46.5166 429.521 46.1832 429.699C45.8537 429.873 45.5923 430.116 45.3991 430.426C45.2098 430.733 45.1151 431.083 45.1151 431.477V437H43.7741ZM53.1207 437.182C52.2798 437.182 51.5545 436.996 50.9446 436.625C50.3385 436.25 49.8707 435.727 49.5412 435.057C49.2154 434.383 49.0526 433.598 49.0526 432.705C49.0526 431.811 49.2154 431.023 49.5412 430.341C49.8707 429.655 50.3291 429.121 50.9162 428.739C51.5071 428.352 52.1965 428.159 52.9844 428.159C53.4389 428.159 53.8878 428.235 54.331 428.386C54.7741 428.538 55.1776 428.784 55.5412 429.125C55.9048 429.462 56.1946 429.909 56.4105 430.466C56.6264 431.023 56.7344 431.708 56.7344 432.523V433.091H50.0071V431.932H55.3707C55.3707 431.439 55.2723 431 55.0753 430.614C54.8821 430.227 54.6056 429.922 54.2457 429.699C53.8897 429.475 53.4692 429.364 52.9844 429.364C52.4503 429.364 51.9882 429.496 51.598 429.761C51.2116 430.023 50.9143 430.364 50.706 430.784C50.4976 431.205 50.3935 431.655 50.3935 432.136V432.909C50.3935 433.568 50.5071 434.127 50.7344 434.585C50.9654 435.04 51.2855 435.386 51.6946 435.625C52.1037 435.86 52.5791 435.977 53.1207 435.977C53.473 435.977 53.7912 435.928 54.0753 435.83C54.3632 435.727 54.6113 435.576 54.8196 435.375C55.0279 435.17 55.1889 434.917 55.3026 434.614L56.598 434.977C56.4616 435.417 56.2325 435.803 55.9105 436.136C55.5885 436.466 55.1908 436.723 54.7173 436.909C54.2438 437.091 53.7116 437.182 53.1207 437.182ZM58.7741 437V428.273H60.0696V429.636H60.1832C60.3651 429.17 60.6586 428.809 61.0639 428.551C61.4692 428.29 61.956 428.159 62.5241 428.159C63.0999 428.159 63.5791 428.29 63.9616 428.551C64.348 428.809 64.6491 429.17 64.8651 429.636H64.956C65.1795 429.186 65.5147 428.828 65.9616 428.562C66.4086 428.294 66.9446 428.159 67.5696 428.159C68.3499 428.159 68.9882 428.403 69.4844 428.892C69.9806 429.377 70.2287 430.133 70.2287 431.159V437H68.8878V431.159C68.8878 430.515 68.7116 430.055 68.3594 429.778C68.0071 429.502 67.5923 429.364 67.1151 429.364C66.5014 429.364 66.026 429.549 65.6889 429.92C65.3518 430.288 65.1832 430.754 65.1832 431.318V437H63.8196V431.023C63.8196 430.527 63.6586 430.127 63.3366 429.824C63.0147 429.517 62.5999 429.364 62.0923 429.364C61.7438 429.364 61.4181 429.456 61.1151 429.642C60.8158 429.828 60.5734 430.085 60.3878 430.415C60.206 430.741 60.1151 431.117 60.1151 431.545V437H58.7741ZM77.1804 437V428.273H78.5213V437H77.1804ZM77.8622 426.818C77.6009 426.818 77.3755 426.729 77.1861 426.551C77.0005 426.373 76.9077 426.159 76.9077 425.909C76.9077 425.659 77.0005 425.445 77.1861 425.267C77.3755 425.089 77.6009 425 77.8622 425C78.1236 425 78.3471 425.089 78.5327 425.267C78.7221 425.445 78.8168 425.659 78.8168 425.909C78.8168 426.159 78.7221 426.373 78.5327 426.551C78.3471 426.729 78.1236 426.818 77.8622 426.818ZM80.9773 440.273V428.273H82.2727V429.659H82.4318C82.5303 429.508 82.6667 429.314 82.8409 429.08C83.0189 428.841 83.2727 428.629 83.6023 428.443C83.9356 428.254 84.3864 428.159 84.9545 428.159C85.6894 428.159 86.3371 428.343 86.8977 428.71C87.4583 429.078 87.8958 429.598 88.2102 430.273C88.5246 430.947 88.6818 431.742 88.6818 432.659C88.6818 433.583 88.5246 434.384 88.2102 435.062C87.8958 435.737 87.4602 436.259 86.9034 436.631C86.3466 436.998 85.7045 437.182 84.9773 437.182C84.4167 437.182 83.9678 437.089 83.6307 436.903C83.2936 436.714 83.0341 436.5 82.8523 436.261C82.6705 436.019 82.5303 435.818 82.4318 435.659H82.3182V440.273H80.9773ZM82.2955 432.636C82.2955 433.295 82.392 433.877 82.5852 434.381C82.7784 434.881 83.0606 435.273 83.4318 435.557C83.803 435.837 84.2576 435.977 84.7955 435.977C85.3561 435.977 85.8239 435.83 86.1989 435.534C86.5777 435.235 86.8617 434.833 87.0511 434.33C87.2443 433.822 87.3409 433.258 87.3409 432.636C87.3409 432.023 87.2462 431.47 87.0568 430.977C86.8712 430.481 86.589 430.089 86.2102 429.801C85.8352 429.509 85.3636 429.364 84.7955 429.364C84.25 429.364 83.7917 429.502 83.4205 429.778C83.0492 430.051 82.7689 430.434 82.5795 430.926C82.3902 431.415 82.2955 431.985 82.2955 432.636ZM96.9091 430.227L95.7045 430.568C95.6288 430.367 95.517 430.172 95.3693 429.983C95.2254 429.79 95.0284 429.631 94.7784 429.506C94.5284 429.381 94.2083 429.318 93.8182 429.318C93.2841 429.318 92.839 429.441 92.483 429.688C92.1307 429.93 91.9545 430.239 91.9545 430.614C91.9545 430.947 92.0758 431.21 92.3182 431.403C92.5606 431.597 92.9394 431.758 93.4545 431.886L94.75 432.205C95.5303 432.394 96.1117 432.684 96.4943 433.074C96.8769 433.46 97.0682 433.958 97.0682 434.568C97.0682 435.068 96.9242 435.515 96.6364 435.909C96.3523 436.303 95.9545 436.614 95.4432 436.841C94.9318 437.068 94.3371 437.182 93.6591 437.182C92.7689 437.182 92.0322 436.989 91.4489 436.602C90.8655 436.216 90.4962 435.652 90.3409 434.909L91.6136 434.591C91.7348 435.061 91.964 435.413 92.3011 435.648C92.642 435.883 93.0871 436 93.6364 436C94.2614 436 94.7576 435.867 95.125 435.602C95.4962 435.333 95.6818 435.011 95.6818 434.636C95.6818 434.333 95.5758 434.08 95.3636 433.875C95.1515 433.667 94.8258 433.511 94.3864 433.409L92.9318 433.068C92.1326 432.879 91.5455 432.585 91.1705 432.188C90.7992 431.786 90.6136 431.284 90.6136 430.682C90.6136 430.189 90.7519 429.754 91.0284 429.375C91.3087 428.996 91.6894 428.699 92.1705 428.483C92.6553 428.267 93.2045 428.159 93.8182 428.159C94.6818 428.159 95.3598 428.348 95.8523 428.727C96.3485 429.106 96.7008 429.606 96.9091 430.227ZM104.587 433.432V428.273H105.928V437H104.587V435.523H104.496C104.291 435.966 103.973 436.343 103.541 436.653C103.109 436.96 102.564 437.114 101.905 437.114C101.359 437.114 100.875 436.994 100.45 436.756C100.026 436.513 99.6927 436.15 99.4503 435.665C99.2079 435.176 99.0866 434.561 99.0866 433.818V428.273H100.428V433.727C100.428 434.364 100.606 434.871 100.962 435.25C101.321 435.629 101.78 435.818 102.337 435.818C102.67 435.818 103.009 435.733 103.354 435.562C103.702 435.392 103.994 435.131 104.229 434.778C104.467 434.426 104.587 433.977 104.587 433.432ZM108.384 437V428.273H109.679V429.636H109.793C109.974 429.17 110.268 428.809 110.673 428.551C111.079 428.29 111.565 428.159 112.134 428.159C112.709 428.159 113.188 428.29 113.571 428.551C113.957 428.809 114.259 429.17 114.474 429.636H114.565C114.789 429.186 115.124 428.828 115.571 428.562C116.018 428.294 116.554 428.159 117.179 428.159C117.959 428.159 118.598 428.403 119.094 428.892C119.59 429.377 119.838 430.133 119.838 431.159V437H118.497V431.159C118.497 430.515 118.321 430.055 117.969 429.778C117.616 429.502 117.202 429.364 116.724 429.364C116.111 429.364 115.635 429.549 115.298 429.92C114.961 430.288 114.793 430.754 114.793 431.318V437H113.429V431.023C113.429 430.527 113.268 430.127 112.946 429.824C112.624 429.517 112.209 429.364 111.702 429.364C111.353 429.364 111.027 429.456 110.724 429.642C110.425 429.828 110.183 430.085 109.997 430.415C109.815 430.741 109.724 431.117 109.724 431.545V437H108.384ZM130.085 437.182C129.358 437.182 128.716 436.998 128.159 436.631C127.602 436.259 127.167 435.737 126.852 435.062C126.538 434.384 126.381 433.583 126.381 432.659C126.381 431.742 126.538 430.947 126.852 430.273C127.167 429.598 127.604 429.078 128.165 428.71C128.725 428.343 129.373 428.159 130.108 428.159C130.676 428.159 131.125 428.254 131.455 428.443C131.788 428.629 132.042 428.841 132.216 429.08C132.394 429.314 132.532 429.508 132.631 429.659H132.744V425.364H134.085V437H132.79V435.659H132.631C132.532 435.818 132.392 436.019 132.21 436.261C132.028 436.5 131.769 436.714 131.432 436.903C131.095 437.089 130.646 437.182 130.085 437.182ZM130.267 435.977C130.805 435.977 131.259 435.837 131.631 435.557C132.002 435.273 132.284 434.881 132.477 434.381C132.67 433.877 132.767 433.295 132.767 432.636C132.767 431.985 132.672 431.415 132.483 430.926C132.294 430.434 132.013 430.051 131.642 429.778C131.271 429.502 130.813 429.364 130.267 429.364C129.699 429.364 129.225 429.509 128.847 429.801C128.472 430.089 128.189 430.481 128 430.977C127.814 431.47 127.722 432.023 127.722 432.636C127.722 433.258 127.816 433.822 128.006 434.33C128.199 434.833 128.483 435.235 128.858 435.534C129.237 435.83 129.706 435.977 130.267 435.977ZM140.273 437.182C139.485 437.182 138.794 436.994 138.199 436.619C137.608 436.244 137.146 435.72 136.812 435.045C136.483 434.371 136.318 433.583 136.318 432.682C136.318 431.773 136.483 430.979 136.812 430.301C137.146 429.623 137.608 429.097 138.199 428.722C138.794 428.347 139.485 428.159 140.273 428.159C141.061 428.159 141.75 428.347 142.341 428.722C142.936 429.097 143.398 429.623 143.727 430.301C144.061 430.979 144.227 431.773 144.227 432.682C144.227 433.583 144.061 434.371 143.727 435.045C143.398 435.72 142.936 436.244 142.341 436.619C141.75 436.994 141.061 437.182 140.273 437.182ZM140.273 435.977C140.871 435.977 141.364 435.824 141.75 435.517C142.136 435.21 142.422 434.807 142.608 434.307C142.794 433.807 142.886 433.265 142.886 432.682C142.886 432.098 142.794 431.555 142.608 431.051C142.422 430.547 142.136 430.14 141.75 429.83C141.364 429.519 140.871 429.364 140.273 429.364C139.674 429.364 139.182 429.519 138.795 429.83C138.409 430.14 138.123 430.547 137.938 431.051C137.752 431.555 137.659 432.098 137.659 432.682C137.659 433.265 137.752 433.807 137.938 434.307C138.123 434.807 138.409 435.21 138.795 435.517C139.182 435.824 139.674 435.977 140.273 435.977ZM147.615 425.364V437H146.274V425.364H147.615ZM153.616 437.182C152.829 437.182 152.137 436.994 151.543 436.619C150.952 436.244 150.49 435.72 150.156 435.045C149.827 434.371 149.662 433.583 149.662 432.682C149.662 431.773 149.827 430.979 150.156 430.301C150.49 429.623 150.952 429.097 151.543 428.722C152.137 428.347 152.829 428.159 153.616 428.159C154.404 428.159 155.094 428.347 155.685 428.722C156.279 429.097 156.741 429.623 157.071 430.301C157.404 430.979 157.571 431.773 157.571 432.682C157.571 433.583 157.404 434.371 157.071 435.045C156.741 435.72 156.279 436.244 155.685 436.619C155.094 436.994 154.404 437.182 153.616 437.182ZM153.616 435.977C154.215 435.977 154.707 435.824 155.094 435.517C155.48 435.21 155.766 434.807 155.952 434.307C156.137 433.807 156.23 433.265 156.23 432.682C156.23 432.098 156.137 431.555 155.952 431.051C155.766 430.547 155.48 430.14 155.094 429.83C154.707 429.519 154.215 429.364 153.616 429.364C153.018 429.364 152.526 429.519 152.139 429.83C151.753 430.14 151.467 430.547 151.281 431.051C151.096 431.555 151.003 432.098 151.003 432.682C151.003 433.265 151.096 433.807 151.281 434.307C151.467 434.807 151.753 435.21 152.139 435.517C152.526 435.824 153.018 435.977 153.616 435.977ZM159.618 437V428.273H160.913V429.591H161.004C161.163 429.159 161.451 428.809 161.868 428.54C162.285 428.271 162.754 428.136 163.277 428.136C163.375 428.136 163.499 428.138 163.646 428.142C163.794 428.146 163.906 428.152 163.982 428.159V429.523C163.936 429.511 163.832 429.494 163.669 429.472C163.51 429.445 163.341 429.432 163.163 429.432C162.739 429.432 162.36 429.521 162.027 429.699C161.697 429.873 161.436 430.116 161.243 430.426C161.054 430.733 160.959 431.083 160.959 431.477V437H159.618ZM176.253 430.227L175.048 430.568C174.973 430.367 174.861 430.172 174.713 429.983C174.569 429.79 174.372 429.631 174.122 429.506C173.872 429.381 173.552 429.318 173.162 429.318C172.628 429.318 172.183 429.441 171.827 429.688C171.474 429.93 171.298 430.239 171.298 430.614C171.298 430.947 171.42 431.21 171.662 431.403C171.904 431.597 172.283 431.758 172.798 431.886L174.094 432.205C174.874 432.394 175.455 432.684 175.838 433.074C176.221 433.46 176.412 433.958 176.412 434.568C176.412 435.068 176.268 435.515 175.98 435.909C175.696 436.303 175.298 436.614 174.787 436.841C174.276 437.068 173.681 437.182 173.003 437.182C172.113 437.182 171.376 436.989 170.793 436.602C170.209 436.216 169.84 435.652 169.685 434.909L170.957 434.591C171.079 435.061 171.308 435.413 171.645 435.648C171.986 435.883 172.431 436 172.98 436C173.605 436 174.101 435.867 174.469 435.602C174.84 435.333 175.026 435.011 175.026 434.636C175.026 434.333 174.92 434.08 174.707 433.875C174.495 433.667 174.17 433.511 173.73 433.409L172.276 433.068C171.476 432.879 170.889 432.585 170.514 432.188C170.143 431.786 169.957 431.284 169.957 430.682C169.957 430.189 170.096 429.754 170.372 429.375C170.652 428.996 171.033 428.699 171.514 428.483C171.999 428.267 172.548 428.159 173.162 428.159C174.026 428.159 174.704 428.348 175.196 428.727C175.692 429.106 176.045 429.606 176.253 430.227ZM178.43 437V428.273H179.771V437H178.43ZM179.112 426.818C178.851 426.818 178.625 426.729 178.436 426.551C178.25 426.373 178.158 426.159 178.158 425.909C178.158 425.659 178.25 425.445 178.436 425.267C178.625 425.089 178.851 425 179.112 425C179.374 425 179.597 425.089 179.783 425.267C179.972 425.445 180.067 425.659 180.067 425.909C180.067 426.159 179.972 426.373 179.783 426.551C179.597 426.729 179.374 426.818 179.112 426.818ZM186.023 428.273V429.409H181.5V428.273H186.023ZM182.818 426.182H184.159V434.5C184.159 434.879 184.214 435.163 184.324 435.352C184.438 435.538 184.581 435.663 184.756 435.727C184.934 435.788 185.121 435.818 185.318 435.818C185.466 435.818 185.587 435.811 185.682 435.795C185.777 435.777 185.852 435.761 185.909 435.75L186.182 436.955C186.091 436.989 185.964 437.023 185.801 437.057C185.638 437.095 185.432 437.114 185.182 437.114C184.803 437.114 184.432 437.032 184.068 436.869C183.708 436.706 183.409 436.458 183.17 436.125C182.936 435.792 182.818 435.371 182.818 434.864V426.182ZM195.108 437.205C194.555 437.205 194.053 437.1 193.602 436.892C193.152 436.68 192.794 436.375 192.528 435.977C192.263 435.576 192.131 435.091 192.131 434.523C192.131 434.023 192.229 433.617 192.426 433.307C192.623 432.992 192.886 432.746 193.216 432.568C193.545 432.39 193.909 432.258 194.307 432.17C194.708 432.08 195.112 432.008 195.517 431.955C196.047 431.886 196.477 431.835 196.807 431.801C197.14 431.763 197.383 431.701 197.534 431.614C197.689 431.527 197.767 431.375 197.767 431.159V431.114C197.767 430.553 197.614 430.117 197.307 429.807C197.004 429.496 196.544 429.341 195.926 429.341C195.286 429.341 194.784 429.481 194.42 429.761C194.057 430.042 193.801 430.341 193.653 430.659L192.381 430.205C192.608 429.674 192.911 429.261 193.29 428.966C193.672 428.667 194.089 428.458 194.54 428.341C194.994 428.22 195.441 428.159 195.881 428.159C196.161 428.159 196.483 428.193 196.847 428.261C197.214 428.326 197.568 428.46 197.909 428.665C198.254 428.869 198.54 429.178 198.767 429.591C198.994 430.004 199.108 430.557 199.108 431.25V437H197.767V435.818H197.699C197.608 436.008 197.456 436.21 197.244 436.426C197.032 436.642 196.75 436.826 196.398 436.977C196.045 437.129 195.616 437.205 195.108 437.205ZM195.312 436C195.843 436 196.29 435.896 196.653 435.688C197.021 435.479 197.297 435.21 197.483 434.881C197.672 434.551 197.767 434.205 197.767 433.841V432.614C197.71 432.682 197.585 432.744 197.392 432.801C197.203 432.854 196.983 432.902 196.733 432.943C196.487 432.981 196.246 433.015 196.011 433.045C195.78 433.072 195.593 433.095 195.449 433.114C195.1 433.159 194.775 433.233 194.472 433.335C194.172 433.434 193.93 433.583 193.744 433.784C193.563 433.981 193.472 434.25 193.472 434.591C193.472 435.057 193.644 435.409 193.989 435.648C194.337 435.883 194.778 436 195.312 436ZM201.555 437V428.273H202.851V429.636H202.964C203.146 429.17 203.44 428.809 203.845 428.551C204.25 428.29 204.737 428.159 205.305 428.159C205.881 428.159 206.36 428.29 206.743 428.551C207.129 428.809 207.43 429.17 207.646 429.636H207.737C207.961 429.186 208.296 428.828 208.743 428.562C209.19 428.294 209.726 428.159 210.351 428.159C211.131 428.159 211.769 428.403 212.266 428.892C212.762 429.377 213.01 430.133 213.01 431.159V437H211.669V431.159C211.669 430.515 211.493 430.055 211.141 429.778C210.788 429.502 210.374 429.364 209.896 429.364C209.283 429.364 208.807 429.549 208.47 429.92C208.133 430.288 207.964 430.754 207.964 431.318V437H206.601V431.023C206.601 430.527 206.44 430.127 206.118 429.824C205.796 429.517 205.381 429.364 204.874 429.364C204.525 429.364 204.199 429.456 203.896 429.642C203.597 429.828 203.355 430.085 203.169 430.415C202.987 430.741 202.896 431.117 202.896 431.545V437H201.555ZM219.121 437.182C218.28 437.182 217.554 436.996 216.945 436.625C216.339 436.25 215.871 435.727 215.541 435.057C215.215 434.383 215.053 433.598 215.053 432.705C215.053 431.811 215.215 431.023 215.541 430.341C215.871 429.655 216.329 429.121 216.916 428.739C217.507 428.352 218.196 428.159 218.984 428.159C219.439 428.159 219.888 428.235 220.331 428.386C220.774 428.538 221.178 428.784 221.541 429.125C221.905 429.462 222.195 429.909 222.411 430.466C222.626 431.023 222.734 431.708 222.734 432.523V433.091H216.007V431.932H221.371C221.371 431.439 221.272 431 221.075 430.614C220.882 430.227 220.606 429.922 220.246 429.699C219.89 429.475 219.469 429.364 218.984 429.364C218.45 429.364 217.988 429.496 217.598 429.761C217.212 430.023 216.914 430.364 216.706 430.784C216.498 431.205 216.393 431.655 216.393 432.136V432.909C216.393 433.568 216.507 434.127 216.734 434.585C216.965 435.04 217.286 435.386 217.695 435.625C218.104 435.86 218.579 435.977 219.121 435.977C219.473 435.977 219.791 435.928 220.075 435.83C220.363 435.727 220.611 435.576 220.82 435.375C221.028 435.17 221.189 434.917 221.303 434.614L222.598 434.977C222.462 435.417 222.232 435.803 221.911 436.136C221.589 436.466 221.191 436.723 220.717 436.909C220.244 437.091 219.712 437.182 219.121 437.182ZM228.57 428.273V429.409H224.047V428.273H228.57ZM225.365 426.182H226.706V434.5C226.706 434.879 226.761 435.163 226.871 435.352C226.984 435.538 227.128 435.663 227.303 435.727C227.481 435.788 227.668 435.818 227.865 435.818C228.013 435.818 228.134 435.811 228.229 435.795C228.323 435.777 228.399 435.761 228.456 435.75L228.729 436.955C228.638 436.989 228.511 437.023 228.348 437.057C228.185 437.095 227.979 437.114 227.729 437.114C227.35 437.114 226.979 437.032 226.615 436.869C226.255 436.706 225.956 436.458 225.717 436.125C225.482 435.792 225.365 435.371 225.365 434.864V426.182ZM232.587 435.409L232.496 436.023C232.431 436.455 232.333 436.917 232.2 437.409C232.071 437.902 231.937 438.366 231.797 438.801C231.657 439.237 231.541 439.583 231.45 439.841H230.428C230.477 439.598 230.541 439.278 230.621 438.881C230.7 438.483 230.78 438.038 230.859 437.545C230.943 437.057 231.011 436.557 231.064 436.045L231.132 435.409H232.587ZM27.7955 456.205C27.2424 456.205 26.7405 456.1 26.2898 455.892C25.839 455.68 25.4811 455.375 25.2159 454.977C24.9508 454.576 24.8182 454.091 24.8182 453.523C24.8182 453.023 24.9167 452.617 25.1136 452.307C25.3106 451.992 25.5739 451.746 25.9034 451.568C26.233 451.39 26.5966 451.258 26.9943 451.17C27.3958 451.08 27.7992 451.008 28.2045 450.955C28.7348 450.886 29.1648 450.835 29.4943 450.801C29.8277 450.763 30.0701 450.701 30.2216 450.614C30.3769 450.527 30.4545 450.375 30.4545 450.159V450.114C30.4545 449.553 30.3011 449.117 29.9943 448.807C29.6913 448.496 29.2311 448.341 28.6136 448.341C27.9735 448.341 27.4716 448.481 27.108 448.761C26.7443 449.042 26.4886 449.341 26.3409 449.659L25.0682 449.205C25.2955 448.674 25.5985 448.261 25.9773 447.966C26.3598 447.667 26.7765 447.458 27.2273 447.341C27.6818 447.22 28.1288 447.159 28.5682 447.159C28.8485 447.159 29.1705 447.193 29.5341 447.261C29.9015 447.326 30.2557 447.46 30.5966 447.665C30.9413 447.869 31.2273 448.178 31.4545 448.591C31.6818 449.004 31.7955 449.557 31.7955 450.25V456H30.4545V454.818H30.3864C30.2955 455.008 30.1439 455.21 29.9318 455.426C29.7197 455.642 29.4375 455.826 29.0852 455.977C28.733 456.129 28.303 456.205 27.7955 456.205ZM28 455C28.5303 455 28.9773 454.896 29.3409 454.688C29.7083 454.479 29.9848 454.21 30.1705 453.881C30.3598 453.551 30.4545 453.205 30.4545 452.841V451.614C30.3977 451.682 30.2727 451.744 30.0795 451.801C29.8902 451.854 29.6705 451.902 29.4205 451.943C29.1742 451.981 28.9337 452.015 28.6989 452.045C28.4678 452.072 28.2803 452.095 28.1364 452.114C27.7879 452.159 27.4621 452.233 27.1591 452.335C26.8598 452.434 26.6174 452.583 26.4318 452.784C26.25 452.981 26.1591 453.25 26.1591 453.591C26.1591 454.057 26.3314 454.409 26.6761 454.648C27.0246 454.883 27.4659 455 28 455ZM37.7884 456.182C36.9702 456.182 36.2656 455.989 35.6747 455.602C35.0838 455.216 34.6293 454.684 34.3111 454.006C33.9929 453.328 33.8338 452.553 33.8338 451.682C33.8338 450.795 33.9967 450.013 34.3224 449.335C34.652 448.653 35.1103 448.121 35.6974 447.739C36.2884 447.352 36.9777 447.159 37.7656 447.159C38.3793 447.159 38.9323 447.273 39.4247 447.5C39.9171 447.727 40.3205 448.045 40.6349 448.455C40.9493 448.864 41.1444 449.341 41.2202 449.886H39.8793C39.777 449.489 39.5497 449.136 39.1974 448.83C38.849 448.519 38.3793 448.364 37.7884 448.364C37.2656 448.364 36.8073 448.5 36.4134 448.773C36.0232 449.042 35.7183 449.422 35.4986 449.915C35.2827 450.403 35.1747 450.977 35.1747 451.636C35.1747 452.311 35.2808 452.898 35.4929 453.398C35.7088 453.898 36.0118 454.286 36.402 454.562C36.7959 454.839 37.258 454.977 37.7884 454.977C38.1368 454.977 38.4531 454.917 38.7372 454.795C39.0213 454.674 39.2618 454.5 39.4588 454.273C39.6558 454.045 39.7959 453.773 39.8793 453.455H41.2202C41.1444 453.97 40.9569 454.434 40.6577 454.847C40.3622 455.256 39.9702 455.581 39.4815 455.824C38.9967 456.062 38.4323 456.182 37.7884 456.182ZM46.8395 456.182C45.9986 456.182 45.2732 455.996 44.6634 455.625C44.0573 455.25 43.5895 454.727 43.2599 454.057C42.9342 453.383 42.7713 452.598 42.7713 451.705C42.7713 450.811 42.9342 450.023 43.2599 449.341C43.5895 448.655 44.0478 448.121 44.6349 447.739C45.2259 447.352 45.9152 447.159 46.7031 447.159C47.1577 447.159 47.6065 447.235 48.0497 447.386C48.4929 447.538 48.8963 447.784 49.2599 448.125C49.6236 448.462 49.9134 448.909 50.1293 449.466C50.3452 450.023 50.4531 450.708 50.4531 451.523V452.091H43.7259V450.932H49.0895C49.0895 450.439 48.991 450 48.794 449.614C48.6009 449.227 48.3243 448.922 47.9645 448.699C47.6084 448.475 47.188 448.364 46.7031 448.364C46.169 448.364 45.7069 448.496 45.3168 448.761C44.9304 449.023 44.633 449.364 44.4247 449.784C44.2164 450.205 44.1122 450.655 44.1122 451.136V451.909C44.1122 452.568 44.2259 453.127 44.4531 453.585C44.6842 454.04 45.0043 454.386 45.4134 454.625C45.8224 454.86 46.2978 454.977 46.8395 454.977C47.1918 454.977 47.5099 454.928 47.794 454.83C48.0819 454.727 48.33 454.576 48.5384 454.375C48.7467 454.17 48.9077 453.917 49.0213 453.614L50.3168 453.977C50.1804 454.417 49.9512 454.803 49.6293 455.136C49.3073 455.466 48.9096 455.723 48.4361 455.909C47.9626 456.091 47.4304 456.182 46.8395 456.182ZM56.2884 447.273V448.409H51.7656V447.273H56.2884ZM53.0838 445.182H54.4247V453.5C54.4247 453.879 54.4796 454.163 54.5895 454.352C54.7031 454.538 54.8471 454.663 55.0213 454.727C55.1993 454.788 55.3868 454.818 55.5838 454.818C55.7315 454.818 55.8527 454.811 55.9474 454.795C56.0421 454.777 56.1179 454.761 56.1747 454.75L56.4474 455.955C56.3565 455.989 56.2296 456.023 56.0668 456.057C55.9039 456.095 55.6974 456.114 55.4474 456.114C55.0687 456.114 54.6974 456.032 54.3338 455.869C53.974 455.706 53.6747 455.458 53.4361 455.125C53.2012 454.792 53.0838 454.371 53.0838 453.864V445.182ZM58.3054 456V447.273H59.6463V456H58.3054ZM58.9872 445.818C58.7259 445.818 58.5005 445.729 58.3111 445.551C58.1255 445.373 58.0327 445.159 58.0327 444.909C58.0327 444.659 58.1255 444.445 58.3111 444.267C58.5005 444.089 58.7259 444 58.9872 444C59.2486 444 59.4721 444.089 59.6577 444.267C59.8471 444.445 59.9418 444.659 59.9418 444.909C59.9418 445.159 59.8471 445.373 59.6577 445.551C59.4721 445.729 59.2486 445.818 58.9872 445.818ZM62.1023 456V447.273H63.3977V448.636H63.5114C63.6932 448.17 63.9867 447.809 64.392 447.551C64.7973 447.29 65.2841 447.159 65.8523 447.159C66.428 447.159 66.9072 447.29 67.2898 447.551C67.6761 447.809 67.9773 448.17 68.1932 448.636H68.2841C68.5076 448.186 68.8428 447.828 69.2898 447.562C69.7367 447.294 70.2727 447.159 70.8977 447.159C71.678 447.159 72.3163 447.403 72.8125 447.892C73.3087 448.377 73.5568 449.133 73.5568 450.159V456H72.2159V450.159C72.2159 449.515 72.0398 449.055 71.6875 448.778C71.3352 448.502 70.9205 448.364 70.4432 448.364C69.8295 448.364 69.3542 448.549 69.017 448.92C68.6799 449.288 68.5114 449.754 68.5114 450.318V456H67.1477V450.023C67.1477 449.527 66.9867 449.127 66.6648 448.824C66.3428 448.517 65.928 448.364 65.4205 448.364C65.072 448.364 64.7462 448.456 64.4432 448.642C64.1439 448.828 63.9015 449.085 63.7159 449.415C63.5341 449.741 63.4432 450.117 63.4432 450.545V456H62.1023ZM84.054 456.182C83.2358 456.182 82.5313 455.989 81.9403 455.602C81.3494 455.216 80.8949 454.684 80.5767 454.006C80.2585 453.328 80.0994 452.553 80.0994 451.682C80.0994 450.795 80.2623 450.013 80.5881 449.335C80.9176 448.653 81.3759 448.121 81.9631 447.739C82.554 447.352 83.2434 447.159 84.0312 447.159C84.6449 447.159 85.1979 447.273 85.6903 447.5C86.1828 447.727 86.5862 448.045 86.9006 448.455C87.215 448.864 87.41 449.341 87.4858 449.886H86.1449C86.0426 449.489 85.8153 449.136 85.4631 448.83C85.1146 448.519 84.6449 448.364 84.054 448.364C83.5313 448.364 83.0729 448.5 82.679 448.773C82.2888 449.042 81.9839 449.422 81.7642 449.915C81.5483 450.403 81.4403 450.977 81.4403 451.636C81.4403 452.311 81.5464 452.898 81.7585 453.398C81.9744 453.898 82.2775 454.286 82.6676 454.562C83.0616 454.839 83.5237 454.977 84.054 454.977C84.4025 454.977 84.7188 454.917 85.0028 454.795C85.2869 454.674 85.5275 454.5 85.7244 454.273C85.9214 454.045 86.0616 453.773 86.1449 453.455H87.4858C87.41 453.97 87.2225 454.434 86.9233 454.847C86.6278 455.256 86.2358 455.581 85.7472 455.824C85.2623 456.062 84.6979 456.182 84.054 456.182ZM92.9915 456.182C92.2036 456.182 91.5123 455.994 90.9176 455.619C90.3267 455.244 89.8646 454.72 89.5312 454.045C89.2017 453.371 89.0369 452.583 89.0369 451.682C89.0369 450.773 89.2017 449.979 89.5312 449.301C89.8646 448.623 90.3267 448.097 90.9176 447.722C91.5123 447.347 92.2036 447.159 92.9915 447.159C93.7794 447.159 94.4688 447.347 95.0597 447.722C95.6544 448.097 96.1165 448.623 96.446 449.301C96.7794 449.979 96.946 450.773 96.946 451.682C96.946 452.583 96.7794 453.371 96.446 454.045C96.1165 454.72 95.6544 455.244 95.0597 455.619C94.4688 455.994 93.7794 456.182 92.9915 456.182ZM92.9915 454.977C93.59 454.977 94.0824 454.824 94.4688 454.517C94.8551 454.21 95.1411 453.807 95.3267 453.307C95.5123 452.807 95.6051 452.265 95.6051 451.682C95.6051 451.098 95.5123 450.555 95.3267 450.051C95.1411 449.547 94.8551 449.14 94.4688 448.83C94.0824 448.519 93.59 448.364 92.9915 448.364C92.393 448.364 91.9006 448.519 91.5142 448.83C91.1278 449.14 90.8419 449.547 90.6562 450.051C90.4706 450.555 90.3778 451.098 90.3778 451.682C90.3778 452.265 90.4706 452.807 90.6562 453.307C90.8419 453.807 91.1278 454.21 91.5142 454.517C91.9006 454.824 92.393 454.977 92.9915 454.977ZM100.334 450.75V456H98.9929V447.273H100.288V448.636H100.402C100.607 448.193 100.917 447.837 101.334 447.568C101.75 447.295 102.288 447.159 102.947 447.159C103.538 447.159 104.055 447.28 104.499 447.523C104.942 447.761 105.286 448.125 105.533 448.614C105.779 449.098 105.902 449.712 105.902 450.455V456H104.561V450.545C104.561 449.86 104.383 449.326 104.027 448.943C103.671 448.557 103.182 448.364 102.561 448.364C102.133 448.364 101.75 448.456 101.413 448.642C101.08 448.828 100.817 449.098 100.624 449.455C100.43 449.811 100.334 450.242 100.334 450.75ZM114.534 449.227L113.33 449.568C113.254 449.367 113.142 449.172 112.994 448.983C112.85 448.79 112.653 448.631 112.403 448.506C112.153 448.381 111.833 448.318 111.443 448.318C110.909 448.318 110.464 448.441 110.108 448.688C109.756 448.93 109.58 449.239 109.58 449.614C109.58 449.947 109.701 450.21 109.943 450.403C110.186 450.597 110.564 450.758 111.08 450.886L112.375 451.205C113.155 451.394 113.737 451.684 114.119 452.074C114.502 452.46 114.693 452.958 114.693 453.568C114.693 454.068 114.549 454.515 114.261 454.909C113.977 455.303 113.58 455.614 113.068 455.841C112.557 456.068 111.962 456.182 111.284 456.182C110.394 456.182 109.657 455.989 109.074 455.602C108.491 455.216 108.121 454.652 107.966 453.909L109.239 453.591C109.36 454.061 109.589 454.413 109.926 454.648C110.267 454.883 110.712 455 111.261 455C111.886 455 112.383 454.867 112.75 454.602C113.121 454.333 113.307 454.011 113.307 453.636C113.307 453.333 113.201 453.08 112.989 452.875C112.777 452.667 112.451 452.511 112.011 452.409L110.557 452.068C109.758 451.879 109.17 451.585 108.795 451.188C108.424 450.786 108.239 450.284 108.239 449.682C108.239 449.189 108.377 448.754 108.653 448.375C108.934 447.996 109.314 447.699 109.795 447.483C110.28 447.267 110.83 447.159 111.443 447.159C112.307 447.159 112.985 447.348 113.477 447.727C113.973 448.106 114.326 448.606 114.534 449.227ZM120.371 456.182C119.53 456.182 118.804 455.996 118.195 455.625C117.589 455.25 117.121 454.727 116.791 454.057C116.465 453.383 116.303 452.598 116.303 451.705C116.303 450.811 116.465 450.023 116.791 449.341C117.121 448.655 117.579 448.121 118.166 447.739C118.757 447.352 119.446 447.159 120.234 447.159C120.689 447.159 121.138 447.235 121.581 447.386C122.024 447.538 122.428 447.784 122.791 448.125C123.155 448.462 123.445 448.909 123.661 449.466C123.876 450.023 123.984 450.708 123.984 451.523V452.091H117.257V450.932H122.621C122.621 450.439 122.522 450 122.325 449.614C122.132 449.227 121.856 448.922 121.496 448.699C121.14 448.475 120.719 448.364 120.234 448.364C119.7 448.364 119.238 448.496 118.848 448.761C118.462 449.023 118.164 449.364 117.956 449.784C117.748 450.205 117.643 450.655 117.643 451.136V451.909C117.643 452.568 117.757 453.127 117.984 453.585C118.215 454.04 118.536 454.386 118.945 454.625C119.354 454.86 119.829 454.977 120.371 454.977C120.723 454.977 121.041 454.928 121.325 454.83C121.613 454.727 121.861 454.576 122.07 454.375C122.278 454.17 122.439 453.917 122.553 453.614L123.848 453.977C123.712 454.417 123.482 454.803 123.161 455.136C122.839 455.466 122.441 455.723 121.967 455.909C121.494 456.091 120.962 456.182 120.371 456.182ZM129.57 456.182C128.751 456.182 128.047 455.989 127.456 455.602C126.865 455.216 126.411 454.684 126.092 454.006C125.774 453.328 125.615 452.553 125.615 451.682C125.615 450.795 125.778 450.013 126.104 449.335C126.433 448.653 126.892 448.121 127.479 447.739C128.07 447.352 128.759 447.159 129.547 447.159C130.161 447.159 130.714 447.273 131.206 447.5C131.698 447.727 132.102 448.045 132.416 448.455C132.731 448.864 132.926 449.341 133.001 449.886H131.661C131.558 449.489 131.331 449.136 130.979 448.83C130.63 448.519 130.161 448.364 129.57 448.364C129.047 448.364 128.589 448.5 128.195 448.773C127.804 449.042 127.5 449.422 127.28 449.915C127.064 450.403 126.956 450.977 126.956 451.636C126.956 452.311 127.062 452.898 127.274 453.398C127.49 453.898 127.793 454.286 128.183 454.562C128.577 454.839 129.039 454.977 129.57 454.977C129.918 454.977 130.234 454.917 130.518 454.795C130.803 454.674 131.043 454.5 131.24 454.273C131.437 454.045 131.577 453.773 131.661 453.455H133.001C132.926 453.97 132.738 454.434 132.439 454.847C132.143 455.256 131.751 455.581 131.263 455.824C130.778 456.062 130.214 456.182 129.57 456.182ZM138.757 447.273V448.409H134.234V447.273H138.757ZM135.553 445.182H136.893V453.5C136.893 453.879 136.948 454.163 137.058 454.352C137.172 454.538 137.316 454.663 137.49 454.727C137.668 454.788 137.856 454.818 138.053 454.818C138.2 454.818 138.321 454.811 138.416 454.795C138.511 454.777 138.587 454.761 138.643 454.75L138.916 455.955C138.825 455.989 138.698 456.023 138.536 456.057C138.373 456.095 138.166 456.114 137.916 456.114C137.537 456.114 137.166 456.032 136.803 455.869C136.443 455.706 136.143 455.458 135.905 455.125C135.67 454.792 135.553 454.371 135.553 453.864V445.182ZM144.339 456.182C143.499 456.182 142.773 455.996 142.163 455.625C141.557 455.25 141.089 454.727 140.76 454.057C140.434 453.383 140.271 452.598 140.271 451.705C140.271 450.811 140.434 450.023 140.76 449.341C141.089 448.655 141.548 448.121 142.135 447.739C142.726 447.352 143.415 447.159 144.203 447.159C144.658 447.159 145.107 447.235 145.55 447.386C145.993 447.538 146.396 447.784 146.76 448.125C147.124 448.462 147.413 448.909 147.629 449.466C147.845 450.023 147.953 450.708 147.953 451.523V452.091H141.226V450.932H146.589C146.589 450.439 146.491 450 146.294 449.614C146.101 449.227 145.824 448.922 145.464 448.699C145.108 448.475 144.688 448.364 144.203 448.364C143.669 448.364 143.207 448.496 142.817 448.761C142.43 449.023 142.133 449.364 141.925 449.784C141.716 450.205 141.612 450.655 141.612 451.136V451.909C141.612 452.568 141.726 453.127 141.953 453.585C142.184 454.04 142.504 454.386 142.913 454.625C143.322 454.86 143.798 454.977 144.339 454.977C144.692 454.977 145.01 454.928 145.294 454.83C145.582 454.727 145.83 454.576 146.038 454.375C146.247 454.17 146.408 453.917 146.521 453.614L147.817 453.977C147.68 454.417 147.451 454.803 147.129 455.136C146.807 455.466 146.41 455.723 145.936 455.909C145.463 456.091 144.93 456.182 144.339 456.182ZM153.788 447.273V448.409H149.266V447.273H153.788ZM150.584 445.182H151.925V453.5C151.925 453.879 151.98 454.163 152.089 454.352C152.203 454.538 152.347 454.663 152.521 454.727C152.699 454.788 152.887 454.818 153.084 454.818C153.232 454.818 153.353 454.811 153.447 454.795C153.542 454.777 153.618 454.761 153.675 454.75L153.947 455.955C153.857 455.989 153.73 456.023 153.567 456.057C153.404 456.095 153.197 456.114 152.947 456.114C152.569 456.114 152.197 456.032 151.834 455.869C151.474 455.706 151.175 455.458 150.936 455.125C150.701 454.792 150.584 454.371 150.584 453.864V445.182ZM161.305 452.432V447.273H162.646V456H161.305V454.523H161.214C161.01 454.966 160.692 455.343 160.26 455.653C159.828 455.96 159.283 456.114 158.624 456.114C158.078 456.114 157.593 455.994 157.169 455.756C156.745 455.513 156.411 455.15 156.169 454.665C155.927 454.176 155.805 453.561 155.805 452.818V447.273H157.146V452.727C157.146 453.364 157.324 453.871 157.68 454.25C158.04 454.629 158.499 454.818 159.055 454.818C159.389 454.818 159.728 454.733 160.072 454.562C160.421 454.392 160.713 454.131 160.947 453.778C161.186 453.426 161.305 452.977 161.305 452.432ZM165.102 456V447.273H166.398V448.591H166.489C166.648 448.159 166.936 447.809 167.352 447.54C167.769 447.271 168.239 447.136 168.761 447.136C168.86 447.136 168.983 447.138 169.131 447.142C169.278 447.146 169.39 447.152 169.466 447.159V448.523C169.42 448.511 169.316 448.494 169.153 448.472C168.994 448.445 168.826 448.432 168.648 448.432C168.223 448.432 167.845 448.521 167.511 448.699C167.182 448.873 166.92 449.116 166.727 449.426C166.538 449.733 166.443 450.083 166.443 450.477V456H165.102ZM178.124 456.205C177.571 456.205 177.069 456.1 176.618 455.892C176.167 455.68 175.809 455.375 175.544 454.977C175.279 454.576 175.146 454.091 175.146 453.523C175.146 453.023 175.245 452.617 175.442 452.307C175.639 451.992 175.902 451.746 176.232 451.568C176.561 451.39 176.925 451.258 177.322 451.17C177.724 451.08 178.127 451.008 178.533 450.955C179.063 450.886 179.493 450.835 179.822 450.801C180.156 450.763 180.398 450.701 180.55 450.614C180.705 450.527 180.783 450.375 180.783 450.159V450.114C180.783 449.553 180.629 449.117 180.322 448.807C180.019 448.496 179.559 448.341 178.942 448.341C178.302 448.341 177.8 448.481 177.436 448.761C177.072 449.042 176.817 449.341 176.669 449.659L175.396 449.205C175.624 448.674 175.927 448.261 176.305 447.966C176.688 447.667 177.105 447.458 177.555 447.341C178.01 447.22 178.457 447.159 178.896 447.159C179.177 447.159 179.499 447.193 179.862 447.261C180.23 447.326 180.584 447.46 180.925 447.665C181.269 447.869 181.555 448.178 181.783 448.591C182.01 449.004 182.124 449.557 182.124 450.25V456H180.783V454.818H180.714C180.624 455.008 180.472 455.21 180.26 455.426C180.048 455.642 179.766 455.826 179.413 455.977C179.061 456.129 178.631 456.205 178.124 456.205ZM178.328 455C178.858 455 179.305 454.896 179.669 454.688C180.036 454.479 180.313 454.21 180.499 453.881C180.688 453.551 180.783 453.205 180.783 452.841V451.614C180.726 451.682 180.601 451.744 180.408 451.801C180.218 451.854 179.999 451.902 179.749 451.943C179.502 451.981 179.262 452.015 179.027 452.045C178.796 452.072 178.608 452.095 178.464 452.114C178.116 452.159 177.79 452.233 177.487 452.335C177.188 452.434 176.946 452.583 176.76 452.784C176.578 452.981 176.487 453.25 176.487 453.591C176.487 454.057 176.66 454.409 177.004 454.648C177.353 454.883 177.794 455 178.328 455ZM187.866 456.182C187.139 456.182 186.497 455.998 185.94 455.631C185.384 455.259 184.948 454.737 184.634 454.062C184.319 453.384 184.162 452.583 184.162 451.659C184.162 450.742 184.319 449.947 184.634 449.273C184.948 448.598 185.385 448.078 185.946 447.71C186.507 447.343 187.154 447.159 187.889 447.159C188.457 447.159 188.906 447.254 189.236 447.443C189.569 447.629 189.823 447.841 189.997 448.08C190.175 448.314 190.313 448.508 190.412 448.659H190.526V444.364H191.866V456H190.571V454.659H190.412C190.313 454.818 190.173 455.019 189.991 455.261C189.81 455.5 189.55 455.714 189.213 455.903C188.876 456.089 188.427 456.182 187.866 456.182ZM188.048 454.977C188.586 454.977 189.041 454.837 189.412 454.557C189.783 454.273 190.065 453.881 190.259 453.381C190.452 452.877 190.548 452.295 190.548 451.636C190.548 450.985 190.454 450.415 190.264 449.926C190.075 449.434 189.795 449.051 189.423 448.778C189.052 448.502 188.594 448.364 188.048 448.364C187.48 448.364 187.007 448.509 186.628 448.801C186.253 449.089 185.971 449.481 185.781 449.977C185.596 450.47 185.503 451.023 185.503 451.636C185.503 452.258 185.598 452.822 185.787 453.33C185.98 453.833 186.264 454.235 186.639 454.534C187.018 454.83 187.488 454.977 188.048 454.977ZM194.509 456V447.273H195.849V456H194.509ZM195.19 445.818C194.929 445.818 194.704 445.729 194.514 445.551C194.329 445.373 194.236 445.159 194.236 444.909C194.236 444.659 194.329 444.445 194.514 444.267C194.704 444.089 194.929 444 195.19 444C195.452 444 195.675 444.089 195.861 444.267C196.05 444.445 196.145 444.659 196.145 444.909C196.145 445.159 196.05 445.373 195.861 445.551C195.675 445.729 195.452 445.818 195.19 445.818ZM198.305 459.273V447.273H199.601V448.659H199.76C199.858 448.508 199.995 448.314 200.169 448.08C200.347 447.841 200.601 447.629 200.93 447.443C201.264 447.254 201.714 447.159 202.283 447.159C203.018 447.159 203.665 447.343 204.226 447.71C204.786 448.078 205.224 448.598 205.538 449.273C205.853 449.947 206.01 450.742 206.01 451.659C206.01 452.583 205.853 453.384 205.538 454.062C205.224 454.737 204.788 455.259 204.232 455.631C203.675 455.998 203.033 456.182 202.305 456.182C201.745 456.182 201.296 456.089 200.959 455.903C200.622 455.714 200.362 455.5 200.18 455.261C199.999 455.019 199.858 454.818 199.76 454.659H199.646V459.273H198.305ZM199.624 451.636C199.624 452.295 199.72 452.877 199.913 453.381C200.107 453.881 200.389 454.273 200.76 454.557C201.131 454.837 201.586 454.977 202.124 454.977C202.684 454.977 203.152 454.83 203.527 454.534C203.906 454.235 204.19 453.833 204.379 453.33C204.572 452.822 204.669 452.258 204.669 451.636C204.669 451.023 204.574 450.47 204.385 449.977C204.199 449.481 203.917 449.089 203.538 448.801C203.163 448.509 202.692 448.364 202.124 448.364C201.578 448.364 201.12 448.502 200.749 448.778C200.377 449.051 200.097 449.434 199.908 449.926C199.718 450.415 199.624 450.985 199.624 451.636ZM208.055 456V447.273H209.396V456H208.055ZM208.737 445.818C208.476 445.818 208.25 445.729 208.061 445.551C207.875 445.373 207.783 445.159 207.783 444.909C207.783 444.659 207.875 444.445 208.061 444.267C208.25 444.089 208.476 444 208.737 444C208.999 444 209.222 444.089 209.408 444.267C209.597 444.445 209.692 444.659 209.692 444.909C209.692 445.159 209.597 445.373 209.408 445.551C209.222 445.729 208.999 445.818 208.737 445.818ZM218.034 449.227L216.83 449.568C216.754 449.367 216.642 449.172 216.494 448.983C216.35 448.79 216.153 448.631 215.903 448.506C215.653 448.381 215.333 448.318 214.943 448.318C214.409 448.318 213.964 448.441 213.608 448.688C213.256 448.93 213.08 449.239 213.08 449.614C213.08 449.947 213.201 450.21 213.443 450.403C213.686 450.597 214.064 450.758 214.58 450.886L215.875 451.205C216.655 451.394 217.237 451.684 217.619 452.074C218.002 452.46 218.193 452.958 218.193 453.568C218.193 454.068 218.049 454.515 217.761 454.909C217.477 455.303 217.08 455.614 216.568 455.841C216.057 456.068 215.462 456.182 214.784 456.182C213.894 456.182 213.157 455.989 212.574 455.602C211.991 455.216 211.621 454.652 211.466 453.909L212.739 453.591C212.86 454.061 213.089 454.413 213.426 454.648C213.767 454.883 214.212 455 214.761 455C215.386 455 215.883 454.867 216.25 454.602C216.621 454.333 216.807 454.011 216.807 453.636C216.807 453.333 216.701 453.08 216.489 452.875C216.277 452.667 215.951 452.511 215.511 452.409L214.057 452.068C213.258 451.879 212.67 451.585 212.295 451.188C211.924 450.786 211.739 450.284 211.739 449.682C211.739 449.189 211.877 448.754 212.153 448.375C212.434 447.996 212.814 447.699 213.295 447.483C213.78 447.267 214.33 447.159 214.943 447.159C215.807 447.159 216.485 447.348 216.977 447.727C217.473 448.106 217.826 448.606 218.034 449.227ZM223.757 456.182C222.939 456.182 222.234 455.989 221.643 455.602C221.053 455.216 220.598 454.684 220.28 454.006C219.962 453.328 219.803 452.553 219.803 451.682C219.803 450.795 219.965 450.013 220.291 449.335C220.621 448.653 221.079 448.121 221.666 447.739C222.257 447.352 222.946 447.159 223.734 447.159C224.348 447.159 224.901 447.273 225.393 447.5C225.886 447.727 226.289 448.045 226.604 448.455C226.918 448.864 227.113 449.341 227.189 449.886H225.848C225.746 449.489 225.518 449.136 225.166 448.83C224.818 448.519 224.348 448.364 223.757 448.364C223.234 448.364 222.776 448.5 222.382 448.773C221.992 449.042 221.687 449.422 221.467 449.915C221.251 450.403 221.143 450.977 221.143 451.636C221.143 452.311 221.25 452.898 221.462 453.398C221.678 453.898 221.981 454.286 222.371 454.562C222.765 454.839 223.227 454.977 223.757 454.977C224.106 454.977 224.422 454.917 224.706 454.795C224.99 454.674 225.231 454.5 225.428 454.273C225.625 454.045 225.765 453.773 225.848 453.455H227.189C227.113 453.97 226.926 454.434 226.626 454.847C226.331 455.256 225.939 455.581 225.45 455.824C224.965 456.062 224.401 456.182 223.757 456.182ZM229.149 456V447.273H230.49V456H229.149ZM229.831 445.818C229.57 445.818 229.344 445.729 229.155 445.551C228.969 445.373 228.876 445.159 228.876 444.909C228.876 444.659 228.969 444.445 229.155 444.267C229.344 444.089 229.57 444 229.831 444C230.092 444 230.316 444.089 230.501 444.267C230.691 444.445 230.786 444.659 230.786 444.909C230.786 445.159 230.691 445.373 230.501 445.551C230.316 445.729 230.092 445.818 229.831 445.818ZM234.287 450.75V456H232.946V447.273H234.241V448.636H234.355C234.56 448.193 234.87 447.837 235.287 447.568C235.704 447.295 236.241 447.159 236.901 447.159C237.491 447.159 238.009 447.28 238.452 447.523C238.895 447.761 239.24 448.125 239.486 448.614C239.732 449.098 239.855 449.712 239.855 450.455V456H238.514V450.545C238.514 449.86 238.336 449.326 237.98 448.943C237.624 448.557 237.135 448.364 236.514 448.364C236.086 448.364 235.704 448.456 235.366 448.642C235.033 448.828 234.77 449.098 234.577 449.455C234.384 449.811 234.287 450.242 234.287 450.75ZM245.828 459.455C245.18 459.455 244.624 459.371 244.158 459.205C243.692 459.042 243.304 458.826 242.993 458.557C242.686 458.292 242.442 458.008 242.26 457.705L243.328 456.955C243.449 457.114 243.603 457.295 243.788 457.5C243.974 457.708 244.228 457.888 244.55 458.04C244.875 458.195 245.302 458.273 245.828 458.273C246.533 458.273 247.114 458.102 247.572 457.761C248.031 457.42 248.26 456.886 248.26 456.159V454.386H248.146C248.048 454.545 247.908 454.742 247.726 454.977C247.548 455.208 247.29 455.415 246.953 455.597C246.62 455.775 246.169 455.864 245.601 455.864C244.896 455.864 244.264 455.697 243.703 455.364C243.146 455.03 242.705 454.545 242.379 453.909C242.057 453.273 241.896 452.5 241.896 451.591C241.896 450.697 242.054 449.919 242.368 449.256C242.682 448.589 243.12 448.074 243.68 447.71C244.241 447.343 244.889 447.159 245.624 447.159C246.192 447.159 246.643 447.254 246.976 447.443C247.313 447.629 247.571 447.841 247.749 448.08C247.93 448.314 248.071 448.508 248.169 448.659H248.305V447.273H249.601V456.25C249.601 457 249.43 457.61 249.089 458.08C248.752 458.553 248.298 458.9 247.726 459.119C247.158 459.343 246.525 459.455 245.828 459.455ZM245.783 454.659C246.321 454.659 246.775 454.536 247.146 454.29C247.518 454.044 247.8 453.689 247.993 453.227C248.186 452.765 248.283 452.212 248.283 451.568C248.283 450.939 248.188 450.384 247.999 449.903C247.809 449.422 247.529 449.045 247.158 448.773C246.786 448.5 246.328 448.364 245.783 448.364C245.214 448.364 244.741 448.508 244.362 448.795C243.987 449.083 243.705 449.47 243.516 449.955C243.33 450.439 243.237 450.977 243.237 451.568C243.237 452.174 243.332 452.71 243.521 453.176C243.714 453.638 243.999 454.002 244.374 454.267C244.752 454.528 245.222 454.659 245.783 454.659ZM28.8864 475.182C28.0455 475.182 27.3201 474.996 26.7102 474.625C26.1042 474.25 25.6364 473.727 25.3068 473.057C24.9811 472.383 24.8182 471.598 24.8182 470.705C24.8182 469.811 24.9811 469.023 25.3068 468.341C25.6364 467.655 26.0947 467.121 26.6818 466.739C27.2727 466.352 27.9621 466.159 28.75 466.159C29.2045 466.159 29.6534 466.235 30.0966 466.386C30.5398 466.538 30.9432 466.784 31.3068 467.125C31.6705 467.462 31.9602 467.909 32.1761 468.466C32.392 469.023 32.5 469.708 32.5 470.523V471.091H25.7727V469.932H31.1364C31.1364 469.439 31.0379 469 30.8409 468.614C30.6477 468.227 30.3712 467.922 30.0114 467.699C29.6553 467.475 29.2348 467.364 28.75 467.364C28.2159 467.364 27.7538 467.496 27.3636 467.761C26.9773 468.023 26.6799 468.364 26.4716 468.784C26.2633 469.205 26.1591 469.655 26.1591 470.136V470.909C26.1591 471.568 26.2727 472.127 26.5 472.585C26.7311 473.04 27.0511 473.386 27.4602 473.625C27.8693 473.86 28.3447 473.977 28.8864 473.977C29.2386 473.977 29.5568 473.928 29.8409 473.83C30.1288 473.727 30.3769 473.576 30.5852 473.375C30.7936 473.17 30.9545 472.917 31.0682 472.614L32.3636 472.977C32.2273 473.417 31.9981 473.803 31.6761 474.136C31.3542 474.466 30.9564 474.723 30.483 474.909C30.0095 475.091 29.4773 475.182 28.8864 475.182ZM35.8807 463.364V475H34.5398V463.364H35.8807ZM38.3366 475V466.273H39.6776V475H38.3366ZM39.0185 464.818C38.7571 464.818 38.5317 464.729 38.3423 464.551C38.1567 464.373 38.0639 464.159 38.0639 463.909C38.0639 463.659 38.1567 463.445 38.3423 463.267C38.5317 463.089 38.7571 463 39.0185 463C39.2798 463 39.5033 463.089 39.6889 463.267C39.8783 463.445 39.973 463.659 39.973 463.909C39.973 464.159 39.8783 464.373 39.6889 464.551C39.5033 464.729 39.2798 464.818 39.0185 464.818ZM45.929 466.273V467.409H41.4062V466.273H45.929ZM42.7244 464.182H44.0653V472.5C44.0653 472.879 44.1203 473.163 44.2301 473.352C44.3438 473.538 44.4877 473.663 44.6619 473.727C44.84 473.788 45.0275 473.818 45.2244 473.818C45.3722 473.818 45.4934 473.811 45.5881 473.795C45.6828 473.777 45.7585 473.761 45.8153 473.75L46.0881 474.955C45.9972 474.989 45.8703 475.023 45.7074 475.057C45.5445 475.095 45.3381 475.114 45.0881 475.114C44.7093 475.114 44.3381 475.032 43.9744 474.869C43.6146 474.706 43.3153 474.458 43.0767 474.125C42.8419 473.792 42.7244 473.371 42.7244 472.864V464.182ZM48.9233 475.091C48.643 475.091 48.4025 474.991 48.2017 474.79C48.0009 474.589 47.9006 474.348 47.9006 474.068C47.9006 473.788 48.0009 473.547 48.2017 473.347C48.4025 473.146 48.643 473.045 48.9233 473.045C49.2036 473.045 49.4441 473.146 49.6449 473.347C49.8456 473.547 49.946 473.788 49.946 474.068C49.946 474.254 49.8987 474.424 49.804 474.58C49.7131 474.735 49.59 474.86 49.4347 474.955C49.2831 475.045 49.1127 475.091 48.9233 475.091ZM57.0341 475V463.364H64.0568V464.614H58.4432V468.545H63.6932V469.795H58.4432V473.75H64.1477V475H57.0341ZM70.2102 466.273V467.409H65.6875V466.273H70.2102ZM67.0057 464.182H68.3466V472.5C68.3466 472.879 68.4015 473.163 68.5114 473.352C68.625 473.538 68.7689 473.663 68.9432 473.727C69.1212 473.788 69.3087 473.818 69.5057 473.818C69.6534 473.818 69.7746 473.811 69.8693 473.795C69.964 473.777 70.0398 473.761 70.0966 473.75L70.3693 474.955C70.2784 474.989 70.1515 475.023 69.9886 475.057C69.8258 475.095 69.6193 475.114 69.3693 475.114C68.9905 475.114 68.6193 475.032 68.2557 474.869C67.8958 474.706 67.5966 474.458 67.358 474.125C67.1231 473.792 67.0057 473.371 67.0057 472.864V464.182ZM72.2273 475V466.273H73.5682V475H72.2273ZM72.9091 464.818C72.6477 464.818 72.4223 464.729 72.233 464.551C72.0473 464.373 71.9545 464.159 71.9545 463.909C71.9545 463.659 72.0473 463.445 72.233 463.267C72.4223 463.089 72.6477 463 72.9091 463C73.1705 463 73.3939 463.089 73.5795 463.267C73.7689 463.445 73.8636 463.659 73.8636 463.909C73.8636 464.159 73.7689 464.373 73.5795 464.551C73.3939 464.729 73.1705 464.818 72.9091 464.818ZM78.5923 475.205C78.0393 475.205 77.5374 475.1 77.0866 474.892C76.6359 474.68 76.2779 474.375 76.0128 473.977C75.7476 473.576 75.6151 473.091 75.6151 472.523C75.6151 472.023 75.7135 471.617 75.9105 471.307C76.1075 470.992 76.3707 470.746 76.7003 470.568C77.0298 470.39 77.3935 470.258 77.7912 470.17C78.1927 470.08 78.5961 470.008 79.0014 469.955C79.5317 469.886 79.9616 469.835 80.2912 469.801C80.6245 469.763 80.867 469.701 81.0185 469.614C81.1738 469.527 81.2514 469.375 81.2514 469.159V469.114C81.2514 468.553 81.098 468.117 80.7912 467.807C80.4882 467.496 80.0279 467.341 79.4105 467.341C78.7704 467.341 78.2685 467.481 77.9048 467.761C77.5412 468.042 77.2855 468.341 77.1378 468.659L75.8651 468.205C76.0923 467.674 76.3954 467.261 76.7741 466.966C77.1567 466.667 77.5734 466.458 78.0241 466.341C78.4787 466.22 78.9257 466.159 79.3651 466.159C79.6454 466.159 79.9673 466.193 80.331 466.261C80.6984 466.326 81.0526 466.46 81.3935 466.665C81.7382 466.869 82.0241 467.178 82.2514 467.591C82.4787 468.004 82.5923 468.557 82.5923 469.25V475H81.2514V473.818H81.1832C81.0923 474.008 80.9408 474.21 80.7287 474.426C80.5166 474.642 80.2344 474.826 79.8821 474.977C79.5298 475.129 79.0999 475.205 78.5923 475.205ZM78.7969 474C79.3272 474 79.7741 473.896 80.1378 473.688C80.5052 473.479 80.7817 473.21 80.9673 472.881C81.1567 472.551 81.2514 472.205 81.2514 471.841V470.614C81.1946 470.682 81.0696 470.744 80.8764 470.801C80.687 470.854 80.4673 470.902 80.2173 470.943C79.9711 470.981 79.7306 471.015 79.4957 471.045C79.2647 471.072 79.0772 471.095 78.9332 471.114C78.5848 471.159 78.259 471.233 77.956 471.335C77.6567 471.434 77.4143 471.583 77.2287 471.784C77.0469 471.981 76.956 472.25 76.956 472.591C76.956 473.057 77.1283 473.409 77.473 473.648C77.8215 473.883 78.2628 474 78.7969 474ZM85.0398 475V466.273H86.3352V467.636H86.4489C86.6307 467.17 86.9242 466.809 87.3295 466.551C87.7348 466.29 88.2216 466.159 88.7898 466.159C89.3655 466.159 89.8447 466.29 90.2273 466.551C90.6136 466.809 90.9148 467.17 91.1307 467.636H91.2216C91.4451 467.186 91.7803 466.828 92.2273 466.562C92.6742 466.294 93.2102 466.159 93.8352 466.159C94.6155 466.159 95.2538 466.403 95.75 466.892C96.2462 467.377 96.4943 468.133 96.4943 469.159V475H95.1534V469.159C95.1534 468.515 94.9773 468.055 94.625 467.778C94.2727 467.502 93.858 467.364 93.3807 467.364C92.767 467.364 92.2917 467.549 91.9545 467.92C91.6174 468.288 91.4489 468.754 91.4489 469.318V475H90.0852V469.023C90.0852 468.527 89.9242 468.127 89.6023 467.824C89.2803 467.517 88.8655 467.364 88.358 467.364C88.0095 467.364 87.6837 467.456 87.3807 467.642C87.0814 467.828 86.839 468.085 86.6534 468.415C86.4716 468.741 86.3807 469.117 86.3807 469.545V475H85.0398ZM107.105 475.182C106.264 475.182 105.539 474.996 104.929 474.625C104.323 474.25 103.855 473.727 103.526 473.057C103.2 472.383 103.037 471.598 103.037 470.705C103.037 469.811 103.2 469.023 103.526 468.341C103.855 467.655 104.313 467.121 104.901 466.739C105.491 466.352 106.181 466.159 106.969 466.159C107.423 466.159 107.872 466.235 108.315 466.386C108.759 466.538 109.162 466.784 109.526 467.125C109.889 467.462 110.179 467.909 110.395 468.466C110.611 469.023 110.719 469.708 110.719 470.523V471.091H103.991V469.932H109.355C109.355 469.439 109.257 469 109.06 468.614C108.866 468.227 108.59 467.922 108.23 467.699C107.874 467.475 107.454 467.364 106.969 467.364C106.435 467.364 105.973 467.496 105.582 467.761C105.196 468.023 104.899 468.364 104.69 468.784C104.482 469.205 104.378 469.655 104.378 470.136V470.909C104.378 471.568 104.491 472.127 104.719 472.585C104.95 473.04 105.27 473.386 105.679 473.625C106.088 473.86 106.563 473.977 107.105 473.977C107.457 473.977 107.776 473.928 108.06 473.83C108.348 473.727 108.596 473.576 108.804 473.375C109.012 473.17 109.173 472.917 109.287 472.614L110.582 472.977C110.446 473.417 110.217 473.803 109.895 474.136C109.573 474.466 109.175 474.723 108.702 474.909C108.228 475.091 107.696 475.182 107.105 475.182ZM118.259 471.432V466.273H119.599V475H118.259V473.523H118.168C117.963 473.966 117.645 474.343 117.213 474.653C116.781 474.96 116.236 475.114 115.577 475.114C115.031 475.114 114.546 474.994 114.122 474.756C113.698 474.513 113.365 474.15 113.122 473.665C112.88 473.176 112.759 472.561 112.759 471.818V466.273H114.099V471.727C114.099 472.364 114.277 472.871 114.634 473.25C114.993 473.629 115.452 473.818 116.009 473.818C116.342 473.818 116.681 473.733 117.026 473.562C117.374 473.392 117.666 473.131 117.901 472.778C118.139 472.426 118.259 471.977 118.259 471.432ZM130.351 466.273V467.409H125.828V466.273H130.351ZM127.146 464.182H128.487V472.5C128.487 472.879 128.542 473.163 128.652 473.352C128.766 473.538 128.91 473.663 129.084 473.727C129.262 473.788 129.449 473.818 129.646 473.818C129.794 473.818 129.915 473.811 130.01 473.795C130.105 473.777 130.18 473.761 130.237 473.75L130.51 474.955C130.419 474.989 130.292 475.023 130.129 475.057C129.966 475.095 129.76 475.114 129.51 475.114C129.131 475.114 128.76 475.032 128.396 474.869C128.036 474.706 127.737 474.458 127.499 474.125C127.264 473.792 127.146 473.371 127.146 472.864V464.182ZM137.868 471.432V466.273H139.209V475H137.868V473.523H137.777C137.572 473.966 137.254 474.343 136.822 474.653C136.391 474.96 135.845 475.114 135.186 475.114C134.641 475.114 134.156 474.994 133.732 474.756C133.307 474.513 132.974 474.15 132.732 473.665C132.489 473.176 132.368 472.561 132.368 471.818V466.273H133.709V471.727C133.709 472.364 133.887 472.871 134.243 473.25C134.603 473.629 135.061 473.818 135.618 473.818C135.951 473.818 136.29 473.733 136.635 473.562C136.983 473.392 137.275 473.131 137.51 472.778C137.749 472.426 137.868 471.977 137.868 471.432ZM141.665 475V466.273H142.96V467.591H143.051C143.21 467.159 143.498 466.809 143.915 466.54C144.331 466.271 144.801 466.136 145.324 466.136C145.422 466.136 145.545 466.138 145.693 466.142C145.841 466.146 145.953 466.152 146.028 466.159V467.523C145.983 467.511 145.879 467.494 145.716 467.472C145.557 467.445 145.388 467.432 145.21 467.432C144.786 467.432 144.407 467.521 144.074 467.699C143.744 467.873 143.483 468.116 143.29 468.426C143.1 468.733 143.006 469.083 143.006 469.477V475H141.665ZM147.618 478.273V466.273H148.913V467.659H149.072C149.171 467.508 149.307 467.314 149.482 467.08C149.66 466.841 149.913 466.629 150.243 466.443C150.576 466.254 151.027 466.159 151.595 466.159C152.33 466.159 152.978 466.343 153.538 466.71C154.099 467.078 154.536 467.598 154.851 468.273C155.165 468.947 155.322 469.742 155.322 470.659C155.322 471.583 155.165 472.384 154.851 473.062C154.536 473.737 154.101 474.259 153.544 474.631C152.987 474.998 152.345 475.182 151.618 475.182C151.057 475.182 150.608 475.089 150.271 474.903C149.934 474.714 149.675 474.5 149.493 474.261C149.311 474.019 149.171 473.818 149.072 473.659H148.959V478.273H147.618ZM148.936 470.636C148.936 471.295 149.033 471.877 149.226 472.381C149.419 472.881 149.701 473.273 150.072 473.557C150.444 473.837 150.898 473.977 151.436 473.977C151.997 473.977 152.464 473.83 152.839 473.534C153.218 473.235 153.502 472.833 153.692 472.33C153.885 471.822 153.982 471.258 153.982 470.636C153.982 470.023 153.887 469.47 153.697 468.977C153.512 468.481 153.23 468.089 152.851 467.801C152.476 467.509 152.004 467.364 151.436 467.364C150.891 467.364 150.432 467.502 150.061 467.778C149.69 468.051 149.41 468.434 149.22 468.926C149.031 469.415 148.936 469.985 148.936 470.636ZM157.368 475V466.273H158.709V475H157.368ZM158.05 464.818C157.788 464.818 157.563 464.729 157.374 464.551C157.188 464.373 157.095 464.159 157.095 463.909C157.095 463.659 157.188 463.445 157.374 463.267C157.563 463.089 157.788 463 158.05 463C158.311 463 158.535 463.089 158.72 463.267C158.91 463.445 159.004 463.659 159.004 463.909C159.004 464.159 158.91 464.373 158.72 464.551C158.535 464.729 158.311 464.818 158.05 464.818ZM167.347 468.227L166.142 468.568C166.066 468.367 165.955 468.172 165.807 467.983C165.663 467.79 165.466 467.631 165.216 467.506C164.966 467.381 164.646 467.318 164.256 467.318C163.722 467.318 163.277 467.441 162.92 467.688C162.568 467.93 162.392 468.239 162.392 468.614C162.392 468.947 162.513 469.21 162.756 469.403C162.998 469.597 163.377 469.758 163.892 469.886L165.188 470.205C165.968 470.394 166.549 470.684 166.932 471.074C167.314 471.46 167.506 471.958 167.506 472.568C167.506 473.068 167.362 473.515 167.074 473.909C166.79 474.303 166.392 474.614 165.881 474.841C165.369 475.068 164.775 475.182 164.097 475.182C163.206 475.182 162.47 474.989 161.886 474.602C161.303 474.216 160.934 473.652 160.778 472.909L162.051 472.591C162.172 473.061 162.402 473.413 162.739 473.648C163.08 473.883 163.525 474 164.074 474C164.699 474 165.195 473.867 165.562 473.602C165.934 473.333 166.119 473.011 166.119 472.636C166.119 472.333 166.013 472.08 165.801 471.875C165.589 471.667 165.263 471.511 164.824 471.409L163.369 471.068C162.57 470.879 161.983 470.585 161.608 470.188C161.237 469.786 161.051 469.284 161.051 468.682C161.051 468.189 161.189 467.754 161.466 467.375C161.746 466.996 162.127 466.699 162.608 466.483C163.093 466.267 163.642 466.159 164.256 466.159C165.119 466.159 165.797 466.348 166.29 466.727C166.786 467.106 167.138 467.606 167.347 468.227ZM174.024 475V466.273H175.32V467.636H175.433C175.615 467.17 175.909 466.809 176.314 466.551C176.719 466.29 177.206 466.159 177.774 466.159C178.35 466.159 178.829 466.29 179.212 466.551C179.598 466.809 179.899 467.17 180.115 467.636H180.206C180.429 467.186 180.765 466.828 181.212 466.562C181.659 466.294 182.195 466.159 182.82 466.159C183.6 466.159 184.238 466.403 184.734 466.892C185.231 467.377 185.479 468.133 185.479 469.159V475H184.138V469.159C184.138 468.515 183.962 468.055 183.609 467.778C183.257 467.502 182.842 467.364 182.365 467.364C181.751 467.364 181.276 467.549 180.939 467.92C180.602 468.288 180.433 468.754 180.433 469.318V475H179.07V469.023C179.07 468.527 178.909 468.127 178.587 467.824C178.265 467.517 177.85 467.364 177.342 467.364C176.994 467.364 176.668 467.456 176.365 467.642C176.066 467.828 175.823 468.085 175.638 468.415C175.456 468.741 175.365 469.117 175.365 469.545V475H174.024ZM191.476 475.182C190.688 475.182 189.997 474.994 189.402 474.619C188.811 474.244 188.349 473.72 188.016 473.045C187.686 472.371 187.521 471.583 187.521 470.682C187.521 469.773 187.686 468.979 188.016 468.301C188.349 467.623 188.811 467.097 189.402 466.722C189.997 466.347 190.688 466.159 191.476 466.159C192.264 466.159 192.953 466.347 193.544 466.722C194.139 467.097 194.601 467.623 194.93 468.301C195.264 468.979 195.43 469.773 195.43 470.682C195.43 471.583 195.264 472.371 194.93 473.045C194.601 473.72 194.139 474.244 193.544 474.619C192.953 474.994 192.264 475.182 191.476 475.182ZM191.476 473.977C192.074 473.977 192.567 473.824 192.953 473.517C193.339 473.21 193.625 472.807 193.811 472.307C193.997 471.807 194.089 471.265 194.089 470.682C194.089 470.098 193.997 469.555 193.811 469.051C193.625 468.547 193.339 468.14 192.953 467.83C192.567 467.519 192.074 467.364 191.476 467.364C190.877 467.364 190.385 467.519 189.999 467.83C189.612 468.14 189.326 468.547 189.141 469.051C188.955 469.555 188.862 470.098 188.862 470.682C188.862 471.265 188.955 471.807 189.141 472.307C189.326 472.807 189.612 473.21 189.999 473.517C190.385 473.824 190.877 473.977 191.476 473.977ZM198.818 463.364V475H197.477V463.364H198.818ZM204.933 475.182C204.092 475.182 203.367 474.996 202.757 474.625C202.151 474.25 201.683 473.727 201.354 473.057C201.028 472.383 200.865 471.598 200.865 470.705C200.865 469.811 201.028 469.023 201.354 468.341C201.683 467.655 202.142 467.121 202.729 466.739C203.32 466.352 204.009 466.159 204.797 466.159C205.251 466.159 205.7 466.235 206.143 466.386C206.587 466.538 206.99 466.784 207.354 467.125C207.717 467.462 208.007 467.909 208.223 468.466C208.439 469.023 208.547 469.708 208.547 470.523V471.091H201.82V469.932H207.183C207.183 469.439 207.085 469 206.888 468.614C206.695 468.227 206.418 467.922 206.058 467.699C205.702 467.475 205.282 467.364 204.797 467.364C204.263 467.364 203.801 467.496 203.411 467.761C203.024 468.023 202.727 468.364 202.518 468.784C202.31 469.205 202.206 469.655 202.206 470.136V470.909C202.206 471.568 202.32 472.127 202.547 472.585C202.778 473.04 203.098 473.386 203.507 473.625C203.916 473.86 204.392 473.977 204.933 473.977C205.286 473.977 205.604 473.928 205.888 473.83C206.176 473.727 206.424 473.576 206.632 473.375C206.84 473.17 207.001 472.917 207.115 472.614L208.411 472.977C208.274 473.417 208.045 473.803 207.723 474.136C207.401 474.466 207.003 474.723 206.53 474.909C206.056 475.091 205.524 475.182 204.933 475.182ZM216.768 468.227L215.564 468.568C215.488 468.367 215.376 468.172 215.229 467.983C215.085 467.79 214.888 467.631 214.638 467.506C214.388 467.381 214.068 467.318 213.678 467.318C213.143 467.318 212.698 467.441 212.342 467.688C211.99 467.93 211.814 468.239 211.814 468.614C211.814 468.947 211.935 469.21 212.178 469.403C212.42 469.597 212.799 469.758 213.314 469.886L214.609 470.205C215.39 470.394 215.971 470.684 216.354 471.074C216.736 471.46 216.928 471.958 216.928 472.568C216.928 473.068 216.784 473.515 216.496 473.909C216.212 474.303 215.814 474.614 215.303 474.841C214.791 475.068 214.196 475.182 213.518 475.182C212.628 475.182 211.892 474.989 211.308 474.602C210.725 474.216 210.356 473.652 210.2 472.909L211.473 472.591C211.594 473.061 211.823 473.413 212.161 473.648C212.501 473.883 212.946 474 213.496 474C214.121 474 214.617 473.867 214.984 473.602C215.356 473.333 215.541 473.011 215.541 472.636C215.541 472.333 215.435 472.08 215.223 471.875C215.011 471.667 214.685 471.511 214.246 471.409L212.791 471.068C211.992 470.879 211.405 470.585 211.03 470.188C210.659 469.786 210.473 469.284 210.473 468.682C210.473 468.189 210.611 467.754 210.888 467.375C211.168 466.996 211.549 466.699 212.03 466.483C212.515 466.267 213.064 466.159 213.678 466.159C214.541 466.159 215.219 466.348 215.712 466.727C216.208 467.106 216.56 467.606 216.768 468.227ZM222.741 466.273V467.409H218.219V466.273H222.741ZM219.537 464.182H220.878V472.5C220.878 472.879 220.933 473.163 221.043 473.352C221.156 473.538 221.3 473.663 221.474 473.727C221.652 473.788 221.84 473.818 222.037 473.818C222.185 473.818 222.306 473.811 222.401 473.795C222.495 473.777 222.571 473.761 222.628 473.75L222.901 474.955C222.81 474.989 222.683 475.023 222.52 475.057C222.357 475.095 222.151 475.114 221.901 475.114C221.522 475.114 221.151 475.032 220.787 474.869C220.427 474.706 220.128 474.458 219.889 474.125C219.654 473.792 219.537 473.371 219.537 472.864V464.182ZM224.759 475V466.273H226.099V475H224.759ZM225.44 464.818C225.179 464.818 224.954 464.729 224.764 464.551C224.579 464.373 224.486 464.159 224.486 463.909C224.486 463.659 224.579 463.445 224.764 463.267C224.954 463.089 225.179 463 225.44 463C225.702 463 225.925 463.089 226.111 463.267C226.3 463.445 226.395 463.659 226.395 463.909C226.395 464.159 226.3 464.373 226.111 464.551C225.925 464.729 225.702 464.818 225.44 464.818ZM232.214 475.182C231.374 475.182 230.648 474.996 230.038 474.625C229.432 474.25 228.964 473.727 228.635 473.057C228.309 472.383 228.146 471.598 228.146 470.705C228.146 469.811 228.309 469.023 228.635 468.341C228.964 467.655 229.423 467.121 230.01 466.739C230.601 466.352 231.29 466.159 232.078 466.159C232.533 466.159 232.982 466.235 233.425 466.386C233.868 466.538 234.271 466.784 234.635 467.125C234.999 467.462 235.288 467.909 235.504 468.466C235.72 469.023 235.828 469.708 235.828 470.523V471.091H229.101V469.932H234.464C234.464 469.439 234.366 469 234.169 468.614C233.976 468.227 233.699 467.922 233.339 467.699C232.983 467.475 232.563 467.364 232.078 467.364C231.544 467.364 231.082 467.496 230.692 467.761C230.305 468.023 230.008 468.364 229.8 468.784C229.591 469.205 229.487 469.655 229.487 470.136V470.909C229.487 471.568 229.601 472.127 229.828 472.585C230.059 473.04 230.379 473.386 230.788 473.625C231.197 473.86 231.673 473.977 232.214 473.977C232.567 473.977 232.885 473.928 233.169 473.83C233.457 473.727 233.705 473.576 233.913 473.375C234.122 473.17 234.283 472.917 234.396 472.614L235.692 472.977C235.555 473.417 235.326 473.803 235.004 474.136C234.682 474.466 234.285 474.723 233.811 474.909C233.338 475.091 232.805 475.182 232.214 475.182ZM239.868 473.409L239.777 474.023C239.713 474.455 239.614 474.917 239.482 475.409C239.353 475.902 239.218 476.366 239.078 476.801C238.938 477.237 238.822 477.583 238.732 477.841H237.709C237.758 477.598 237.822 477.278 237.902 476.881C237.982 476.483 238.061 476.038 238.141 475.545C238.224 475.057 238.292 474.557 238.345 474.045L238.413 473.409H239.868ZM28.5227 494.182C27.7955 494.182 27.1534 493.998 26.5966 493.631C26.0398 493.259 25.6042 492.737 25.2898 492.062C24.9754 491.384 24.8182 490.583 24.8182 489.659C24.8182 488.742 24.9754 487.947 25.2898 487.273C25.6042 486.598 26.0417 486.078 26.6023 485.71C27.1629 485.343 27.8106 485.159 28.5455 485.159C29.1136 485.159 29.5625 485.254 29.892 485.443C30.2254 485.629 30.4792 485.841 30.6534 486.08C30.8314 486.314 30.9697 486.508 31.0682 486.659H31.1818V482.364H32.5227V494H31.2273V492.659H31.0682C30.9697 492.818 30.8295 493.019 30.6477 493.261C30.4659 493.5 30.2064 493.714 29.8693 493.903C29.5322 494.089 29.0833 494.182 28.5227 494.182ZM28.7045 492.977C29.2424 492.977 29.697 492.837 30.0682 492.557C30.4394 492.273 30.7216 491.881 30.9148 491.381C31.108 490.877 31.2045 490.295 31.2045 489.636C31.2045 488.985 31.1098 488.415 30.9205 487.926C30.7311 487.434 30.4508 487.051 30.0795 486.778C29.7083 486.502 29.25 486.364 28.7045 486.364C28.1364 486.364 27.6629 486.509 27.2841 486.801C26.9091 487.089 26.6269 487.481 26.4375 487.977C26.2519 488.47 26.1591 489.023 26.1591 489.636C26.1591 490.258 26.2538 490.822 26.4432 491.33C26.6364 491.833 26.9205 492.235 27.2955 492.534C27.6742 492.83 28.1439 492.977 28.7045 492.977ZM35.1648 494V485.273H36.5057V494H35.1648ZM35.8466 483.818C35.5852 483.818 35.3598 483.729 35.1705 483.551C34.9848 483.373 34.892 483.159 34.892 482.909C34.892 482.659 34.9848 482.445 35.1705 482.267C35.3598 482.089 35.5852 482 35.8466 482C36.108 482 36.3314 482.089 36.517 482.267C36.7064 482.445 36.8011 482.659 36.8011 482.909C36.8011 483.159 36.7064 483.373 36.517 483.551C36.3314 483.729 36.108 483.818 35.8466 483.818ZM42.5071 494.182C41.6889 494.182 40.9844 493.989 40.3935 493.602C39.8026 493.216 39.348 492.684 39.0298 492.006C38.7116 491.328 38.5526 490.553 38.5526 489.682C38.5526 488.795 38.7154 488.013 39.0412 487.335C39.3707 486.653 39.8291 486.121 40.4162 485.739C41.0071 485.352 41.6965 485.159 42.4844 485.159C43.098 485.159 43.651 485.273 44.1435 485.5C44.6359 485.727 45.0393 486.045 45.3537 486.455C45.6681 486.864 45.8632 487.341 45.9389 487.886H44.598C44.4957 487.489 44.2685 487.136 43.9162 486.83C43.5677 486.519 43.098 486.364 42.5071 486.364C41.9844 486.364 41.526 486.5 41.1321 486.773C40.742 487.042 40.437 487.422 40.2173 487.915C40.0014 488.403 39.8935 488.977 39.8935 489.636C39.8935 490.311 39.9995 490.898 40.2116 491.398C40.4276 491.898 40.7306 492.286 41.1207 492.562C41.5147 492.839 41.9768 492.977 42.5071 492.977C42.8556 492.977 43.1719 492.917 43.456 492.795C43.7401 492.674 43.9806 492.5 44.1776 492.273C44.3745 492.045 44.5147 491.773 44.598 491.455H45.9389C45.8632 491.97 45.6757 492.434 45.3764 492.847C45.081 493.256 44.6889 493.581 44.2003 493.824C43.7154 494.062 43.151 494.182 42.5071 494.182ZM51.6946 485.273V486.409H47.1719V485.273H51.6946ZM48.4901 483.182H49.831V491.5C49.831 491.879 49.8859 492.163 49.9957 492.352C50.1094 492.538 50.2533 492.663 50.4276 492.727C50.6056 492.788 50.7931 492.818 50.9901 492.818C51.1378 492.818 51.259 492.811 51.3537 492.795C51.4484 492.777 51.5241 492.761 51.581 492.75L51.8537 493.955C51.7628 493.989 51.6359 494.023 51.473 494.057C51.3101 494.095 51.1037 494.114 50.8537 494.114C50.4749 494.114 50.1037 494.032 49.7401 493.869C49.3802 493.706 49.081 493.458 48.8423 493.125C48.6075 492.792 48.4901 492.371 48.4901 491.864V483.182ZM59.2116 490.432V485.273H60.5526V494H59.2116V492.523H59.1207C58.9162 492.966 58.598 493.343 58.1662 493.653C57.7344 493.96 57.1889 494.114 56.5298 494.114C55.9844 494.114 55.4995 493.994 55.0753 493.756C54.651 493.513 54.3177 493.15 54.0753 492.665C53.8329 492.176 53.7116 491.561 53.7116 490.818V485.273H55.0526V490.727C55.0526 491.364 55.2306 491.871 55.5866 492.25C55.9465 492.629 56.4048 492.818 56.9616 492.818C57.295 492.818 57.634 492.733 57.9787 492.562C58.3272 492.392 58.6188 492.131 58.8537 491.778C59.0923 491.426 59.2116 490.977 59.2116 490.432ZM63.0085 494V485.273H64.304V486.636H64.4176C64.5994 486.17 64.893 485.809 65.2983 485.551C65.7036 485.29 66.1903 485.159 66.7585 485.159C67.3343 485.159 67.8134 485.29 68.196 485.551C68.5824 485.809 68.8835 486.17 69.0994 486.636H69.1903C69.4138 486.186 69.7491 485.828 70.196 485.562C70.643 485.294 71.179 485.159 71.804 485.159C72.5843 485.159 73.2225 485.403 73.7188 485.892C74.215 486.377 74.4631 487.133 74.4631 488.159V494H73.1222V488.159C73.1222 487.515 72.946 487.055 72.5938 486.778C72.2415 486.502 71.8267 486.364 71.3494 486.364C70.7358 486.364 70.2604 486.549 69.9233 486.92C69.5862 487.288 69.4176 487.754 69.4176 488.318V494H68.054V488.023C68.054 487.527 67.893 487.127 67.571 486.824C67.2491 486.517 66.8343 486.364 66.3267 486.364C65.9782 486.364 65.6525 486.456 65.3494 486.642C65.0502 486.828 64.8078 487.085 64.6222 487.415C64.4403 487.741 64.3494 488.117 64.3494 488.545V494H63.0085ZM78.2557 482.364V494H76.9148V482.364H78.2557ZM84.3707 494.182C83.5298 494.182 82.8045 493.996 82.1946 493.625C81.5885 493.25 81.1207 492.727 80.7912 492.057C80.4654 491.383 80.3026 490.598 80.3026 489.705C80.3026 488.811 80.4654 488.023 80.7912 487.341C81.1207 486.655 81.5791 486.121 82.1662 485.739C82.7571 485.352 83.4465 485.159 84.2344 485.159C84.6889 485.159 85.1378 485.235 85.581 485.386C86.0241 485.538 86.4276 485.784 86.7912 486.125C87.1548 486.462 87.4446 486.909 87.6605 487.466C87.8764 488.023 87.9844 488.708 87.9844 489.523V490.091H81.2571V488.932H86.6207C86.6207 488.439 86.5223 488 86.3253 487.614C86.1321 487.227 85.8556 486.922 85.4957 486.699C85.1397 486.475 84.7192 486.364 84.2344 486.364C83.7003 486.364 83.2382 486.496 82.848 486.761C82.4616 487.023 82.1643 487.364 81.956 487.784C81.7476 488.205 81.6435 488.655 81.6435 489.136V489.909C81.6435 490.568 81.7571 491.127 81.9844 491.585C82.2154 492.04 82.5355 492.386 82.9446 492.625C83.3537 492.86 83.8291 492.977 84.3707 492.977C84.723 492.977 85.0412 492.928 85.3253 492.83C85.6132 492.727 85.8613 492.576 86.0696 492.375C86.2779 492.17 86.4389 491.917 86.5526 491.614L87.848 491.977C87.7116 492.417 87.4825 492.803 87.1605 493.136C86.8385 493.466 86.4408 493.723 85.9673 493.909C85.4938 494.091 84.9616 494.182 84.3707 494.182ZM98.1832 494.182C97.3423 494.182 96.617 493.996 96.0071 493.625C95.401 493.25 94.9332 492.727 94.6037 492.057C94.2779 491.383 94.1151 490.598 94.1151 489.705C94.1151 488.811 94.2779 488.023 94.6037 487.341C94.9332 486.655 95.3916 486.121 95.9787 485.739C96.5696 485.352 97.259 485.159 98.0469 485.159C98.5014 485.159 98.9503 485.235 99.3935 485.386C99.8366 485.538 100.24 485.784 100.604 486.125C100.967 486.462 101.257 486.909 101.473 487.466C101.689 488.023 101.797 488.708 101.797 489.523V490.091H95.0696V488.932H100.433C100.433 488.439 100.335 488 100.138 487.614C99.9446 487.227 99.6681 486.922 99.3082 486.699C98.9522 486.475 98.5317 486.364 98.0469 486.364C97.5128 486.364 97.0507 486.496 96.6605 486.761C96.2741 487.023 95.9768 487.364 95.7685 487.784C95.5601 488.205 95.456 488.655 95.456 489.136V489.909C95.456 490.568 95.5696 491.127 95.7969 491.585C96.0279 492.04 96.348 492.386 96.7571 492.625C97.1662 492.86 97.6416 492.977 98.1832 492.977C98.5355 492.977 98.8537 492.928 99.1378 492.83C99.4257 492.727 99.6738 492.576 99.8821 492.375C100.09 492.17 100.251 491.917 100.365 491.614L101.661 491.977C101.524 492.417 101.295 492.803 100.973 493.136C100.651 493.466 100.253 493.723 99.7798 493.909C99.3063 494.091 98.7741 494.182 98.1832 494.182ZM110.018 487.227L108.814 487.568C108.738 487.367 108.626 487.172 108.479 486.983C108.335 486.79 108.138 486.631 107.888 486.506C107.638 486.381 107.318 486.318 106.928 486.318C106.393 486.318 105.948 486.441 105.592 486.688C105.24 486.93 105.064 487.239 105.064 487.614C105.064 487.947 105.185 488.21 105.428 488.403C105.67 488.597 106.049 488.758 106.564 488.886L107.859 489.205C108.64 489.394 109.221 489.684 109.604 490.074C109.986 490.46 110.178 490.958 110.178 491.568C110.178 492.068 110.034 492.515 109.746 492.909C109.462 493.303 109.064 493.614 108.553 493.841C108.041 494.068 107.446 494.182 106.768 494.182C105.878 494.182 105.142 493.989 104.558 493.602C103.975 493.216 103.606 492.652 103.45 491.909L104.723 491.591C104.844 492.061 105.073 492.413 105.411 492.648C105.751 492.883 106.196 493 106.746 493C107.371 493 107.867 492.867 108.234 492.602C108.606 492.333 108.791 492.011 108.791 491.636C108.791 491.333 108.685 491.08 108.473 490.875C108.261 490.667 107.935 490.511 107.496 490.409L106.041 490.068C105.242 489.879 104.655 489.585 104.28 489.188C103.909 488.786 103.723 488.284 103.723 487.682C103.723 487.189 103.861 486.754 104.138 486.375C104.418 485.996 104.799 485.699 105.28 485.483C105.765 485.267 106.314 485.159 106.928 485.159C107.791 485.159 108.469 485.348 108.962 485.727C109.458 486.106 109.81 486.606 110.018 487.227ZM115.991 485.273V486.409H111.469V485.273H115.991ZM112.787 483.182H114.128V491.5C114.128 491.879 114.183 492.163 114.293 492.352C114.406 492.538 114.55 492.663 114.724 492.727C114.902 492.788 115.09 492.818 115.287 492.818C115.435 492.818 115.556 492.811 115.651 492.795C115.745 492.777 115.821 492.761 115.878 492.75L116.151 493.955C116.06 493.989 115.933 494.023 115.77 494.057C115.607 494.095 115.401 494.114 115.151 494.114C114.772 494.114 114.401 494.032 114.037 493.869C113.677 493.706 113.378 493.458 113.139 493.125C112.904 492.792 112.787 492.371 112.787 491.864V483.182ZM125.077 494.205C124.524 494.205 124.022 494.1 123.571 493.892C123.12 493.68 122.762 493.375 122.497 492.977C122.232 492.576 122.099 492.091 122.099 491.523C122.099 491.023 122.198 490.617 122.395 490.307C122.592 489.992 122.855 489.746 123.185 489.568C123.514 489.39 123.878 489.258 124.276 489.17C124.677 489.08 125.08 489.008 125.486 488.955C126.016 488.886 126.446 488.835 126.776 488.801C127.109 488.763 127.351 488.701 127.503 488.614C127.658 488.527 127.736 488.375 127.736 488.159V488.114C127.736 487.553 127.582 487.117 127.276 486.807C126.973 486.496 126.512 486.341 125.895 486.341C125.255 486.341 124.753 486.481 124.389 486.761C124.026 487.042 123.77 487.341 123.622 487.659L122.349 487.205C122.577 486.674 122.88 486.261 123.259 485.966C123.641 485.667 124.058 485.458 124.509 485.341C124.963 485.22 125.41 485.159 125.849 485.159C126.13 485.159 126.452 485.193 126.815 485.261C127.183 485.326 127.537 485.46 127.878 485.665C128.223 485.869 128.509 486.178 128.736 486.591C128.963 487.004 129.077 487.557 129.077 488.25V494H127.736V492.818H127.668C127.577 493.008 127.425 493.21 127.213 493.426C127.001 493.642 126.719 493.826 126.366 493.977C126.014 494.129 125.584 494.205 125.077 494.205ZM125.281 493C125.812 493 126.259 492.896 126.622 492.688C126.99 492.479 127.266 492.21 127.452 491.881C127.641 491.551 127.736 491.205 127.736 490.841V489.614C127.679 489.682 127.554 489.744 127.361 489.801C127.171 489.854 126.952 489.902 126.702 489.943C126.455 489.981 126.215 490.015 125.98 490.045C125.749 490.072 125.562 490.095 125.418 490.114C125.069 490.159 124.743 490.233 124.44 490.335C124.141 490.434 123.899 490.583 123.713 490.784C123.531 490.981 123.44 491.25 123.44 491.591C123.44 492.057 123.613 492.409 123.957 492.648C124.306 492.883 124.747 493 125.281 493ZM133.524 492.409L133.433 493.023C133.369 493.455 133.27 493.917 133.138 494.409C133.009 494.902 132.875 495.366 132.734 495.801C132.594 496.237 132.479 496.583 132.388 496.841H131.365C131.414 496.598 131.479 496.278 131.558 495.881C131.638 495.483 131.717 495.038 131.797 494.545C131.88 494.057 131.948 493.557 132.001 493.045L132.07 492.409H133.524ZM140.509 494V485.273H141.804V486.636H141.918C142.099 486.17 142.393 485.809 142.798 485.551C143.204 485.29 143.69 485.159 144.259 485.159C144.834 485.159 145.313 485.29 145.696 485.551C146.082 485.809 146.384 486.17 146.599 486.636H146.69C146.914 486.186 147.249 485.828 147.696 485.562C148.143 485.294 148.679 485.159 149.304 485.159C150.084 485.159 150.723 485.403 151.219 485.892C151.715 486.377 151.963 487.133 151.963 488.159V494H150.622V488.159C150.622 487.515 150.446 487.055 150.094 486.778C149.741 486.502 149.327 486.364 148.849 486.364C148.236 486.364 147.76 486.549 147.423 486.92C147.086 487.288 146.918 487.754 146.918 488.318V494H145.554V488.023C145.554 487.527 145.393 487.127 145.071 486.824C144.749 486.517 144.334 486.364 143.827 486.364C143.478 486.364 143.152 486.456 142.849 486.642C142.55 486.828 142.308 487.085 142.122 487.415C141.94 487.741 141.849 488.117 141.849 488.545V494H140.509ZM156.983 494.205C156.43 494.205 155.928 494.1 155.477 493.892C155.027 493.68 154.669 493.375 154.403 492.977C154.138 492.576 154.006 492.091 154.006 491.523C154.006 491.023 154.104 490.617 154.301 490.307C154.498 489.992 154.761 489.746 155.091 489.568C155.42 489.39 155.784 489.258 156.182 489.17C156.583 489.08 156.987 489.008 157.392 488.955C157.922 488.886 158.352 488.835 158.682 488.801C159.015 488.763 159.258 488.701 159.409 488.614C159.564 488.527 159.642 488.375 159.642 488.159V488.114C159.642 487.553 159.489 487.117 159.182 486.807C158.879 486.496 158.419 486.341 157.801 486.341C157.161 486.341 156.659 486.481 156.295 486.761C155.932 487.042 155.676 487.341 155.528 487.659L154.256 487.205C154.483 486.674 154.786 486.261 155.165 485.966C155.547 485.667 155.964 485.458 156.415 485.341C156.869 485.22 157.316 485.159 157.756 485.159C158.036 485.159 158.358 485.193 158.722 485.261C159.089 485.326 159.443 485.46 159.784 485.665C160.129 485.869 160.415 486.178 160.642 486.591C160.869 487.004 160.983 487.557 160.983 488.25V494H159.642V492.818H159.574C159.483 493.008 159.331 493.21 159.119 493.426C158.907 493.642 158.625 493.826 158.273 493.977C157.92 494.129 157.491 494.205 156.983 494.205ZM157.188 493C157.718 493 158.165 492.896 158.528 492.688C158.896 492.479 159.172 492.21 159.358 491.881C159.547 491.551 159.642 491.205 159.642 490.841V489.614C159.585 489.682 159.46 489.744 159.267 489.801C159.078 489.854 158.858 489.902 158.608 489.943C158.362 489.981 158.121 490.015 157.886 490.045C157.655 490.072 157.468 490.095 157.324 490.114C156.975 490.159 156.65 490.233 156.347 490.335C156.047 490.434 155.805 490.583 155.619 490.784C155.438 490.981 155.347 491.25 155.347 491.591C155.347 492.057 155.519 492.409 155.864 492.648C156.212 492.883 156.653 493 157.188 493ZM167.226 485.273V486.409H162.703V485.273H167.226ZM164.021 483.182H165.362V491.5C165.362 491.879 165.417 492.163 165.527 492.352C165.641 492.538 165.785 492.663 165.959 492.727C166.137 492.788 166.324 492.818 166.521 492.818C166.669 492.818 166.79 492.811 166.885 492.795C166.98 492.777 167.055 492.761 167.112 492.75L167.385 493.955C167.294 493.989 167.167 494.023 167.004 494.057C166.841 494.095 166.635 494.114 166.385 494.114C166.006 494.114 165.635 494.032 165.271 493.869C164.911 493.706 164.612 493.458 164.374 493.125C164.139 492.792 164.021 492.371 164.021 491.864V483.182ZM173.038 485.273V486.409H168.516V485.273H173.038ZM169.834 483.182H171.175V491.5C171.175 491.879 171.23 492.163 171.339 492.352C171.453 492.538 171.597 492.663 171.771 492.727C171.949 492.788 172.137 492.818 172.334 492.818C172.482 492.818 172.603 492.811 172.697 492.795C172.792 492.777 172.868 492.761 172.925 492.75L173.197 493.955C173.107 493.989 172.98 494.023 172.817 494.057C172.654 494.095 172.447 494.114 172.197 494.114C171.819 494.114 171.447 494.032 171.084 493.869C170.724 493.706 170.425 493.458 170.186 493.125C169.951 492.792 169.834 492.371 169.834 491.864V483.182ZM175.055 494V485.273H176.396V494H175.055ZM175.737 483.818C175.476 483.818 175.25 483.729 175.061 483.551C174.875 483.373 174.783 483.159 174.783 482.909C174.783 482.659 174.875 482.445 175.061 482.267C175.25 482.089 175.476 482 175.737 482C175.999 482 176.222 482.089 176.408 482.267C176.597 482.445 176.692 482.659 176.692 482.909C176.692 483.159 176.597 483.373 176.408 483.551C176.222 483.729 175.999 483.818 175.737 483.818ZM185.034 487.227L183.83 487.568C183.754 487.367 183.642 487.172 183.494 486.983C183.35 486.79 183.153 486.631 182.903 486.506C182.653 486.381 182.333 486.318 181.943 486.318C181.409 486.318 180.964 486.441 180.608 486.688C180.256 486.93 180.08 487.239 180.08 487.614C180.08 487.947 180.201 488.21 180.443 488.403C180.686 488.597 181.064 488.758 181.58 488.886L182.875 489.205C183.655 489.394 184.237 489.684 184.619 490.074C185.002 490.46 185.193 490.958 185.193 491.568C185.193 492.068 185.049 492.515 184.761 492.909C184.477 493.303 184.08 493.614 183.568 493.841C183.057 494.068 182.462 494.182 181.784 494.182C180.894 494.182 180.157 493.989 179.574 493.602C178.991 493.216 178.621 492.652 178.466 491.909L179.739 491.591C179.86 492.061 180.089 492.413 180.426 492.648C180.767 492.883 181.212 493 181.761 493C182.386 493 182.883 492.867 183.25 492.602C183.621 492.333 183.807 492.011 183.807 491.636C183.807 491.333 183.701 491.08 183.489 490.875C183.277 490.667 182.951 490.511 182.511 490.409L181.057 490.068C180.258 489.879 179.67 489.585 179.295 489.188C178.924 488.786 178.739 488.284 178.739 487.682C178.739 487.189 178.877 486.754 179.153 486.375C179.434 485.996 179.814 485.699 180.295 485.483C180.78 485.267 181.33 485.159 181.943 485.159C182.807 485.159 183.485 485.348 183.977 485.727C184.473 486.106 184.826 486.606 185.034 487.227ZM195.507 485.273V486.409H190.984V485.273H195.507ZM192.303 483.182H193.643V491.5C193.643 491.879 193.698 492.163 193.808 492.352C193.922 492.538 194.066 492.663 194.24 492.727C194.418 492.788 194.606 492.818 194.803 492.818C194.95 492.818 195.071 492.811 195.166 492.795C195.261 492.777 195.337 492.761 195.393 492.75L195.666 493.955C195.575 493.989 195.448 494.023 195.286 494.057C195.123 494.095 194.916 494.114 194.666 494.114C194.287 494.114 193.916 494.032 193.553 493.869C193.193 493.706 192.893 493.458 192.655 493.125C192.42 492.792 192.303 492.371 192.303 491.864V483.182ZM201.089 494.182C200.249 494.182 199.523 493.996 198.913 493.625C198.307 493.25 197.839 492.727 197.51 492.057C197.184 491.383 197.021 490.598 197.021 489.705C197.021 488.811 197.184 488.023 197.51 487.341C197.839 486.655 198.298 486.121 198.885 485.739C199.476 485.352 200.165 485.159 200.953 485.159C201.408 485.159 201.857 485.235 202.3 485.386C202.743 485.538 203.146 485.784 203.51 486.125C203.874 486.462 204.163 486.909 204.379 487.466C204.595 488.023 204.703 488.708 204.703 489.523V490.091H197.976V488.932H203.339C203.339 488.439 203.241 488 203.044 487.614C202.851 487.227 202.574 486.922 202.214 486.699C201.858 486.475 201.438 486.364 200.953 486.364C200.419 486.364 199.957 486.496 199.567 486.761C199.18 487.023 198.883 487.364 198.675 487.784C198.466 488.205 198.362 488.655 198.362 489.136V489.909C198.362 490.568 198.476 491.127 198.703 491.585C198.934 492.04 199.254 492.386 199.663 492.625C200.072 492.86 200.548 492.977 201.089 492.977C201.442 492.977 201.76 492.928 202.044 492.83C202.332 492.727 202.58 492.576 202.788 492.375C202.997 492.17 203.158 491.917 203.271 491.614L204.567 491.977C204.43 492.417 204.201 492.803 203.879 493.136C203.557 493.466 203.16 493.723 202.686 493.909C202.213 494.091 201.68 494.182 201.089 494.182ZM208.084 482.364V494H206.743V482.364H208.084ZM211.881 482.364V494H210.54V482.364H211.881ZM219.837 490.432V485.273H221.178V494H219.837V492.523H219.746C219.541 492.966 219.223 493.343 218.791 493.653C218.359 493.96 217.814 494.114 217.155 494.114C216.609 494.114 216.125 493.994 215.7 493.756C215.276 493.513 214.943 493.15 214.7 492.665C214.458 492.176 214.337 491.561 214.337 490.818V485.273H215.678V490.727C215.678 491.364 215.856 491.871 216.212 492.25C216.571 492.629 217.03 492.818 217.587 492.818C217.92 492.818 218.259 492.733 218.604 492.562C218.952 492.392 219.244 492.131 219.479 491.778C219.717 491.426 219.837 490.977 219.837 490.432ZM229.815 487.227L228.611 487.568C228.535 487.367 228.423 487.172 228.276 486.983C228.132 486.79 227.935 486.631 227.685 486.506C227.435 486.381 227.115 486.318 226.724 486.318C226.19 486.318 225.745 486.441 225.389 486.688C225.037 486.93 224.861 487.239 224.861 487.614C224.861 487.947 224.982 488.21 225.224 488.403C225.467 488.597 225.846 488.758 226.361 488.886L227.656 489.205C228.437 489.394 229.018 489.684 229.401 490.074C229.783 490.46 229.974 490.958 229.974 491.568C229.974 492.068 229.83 492.515 229.543 492.909C229.259 493.303 228.861 493.614 228.349 493.841C227.838 494.068 227.243 494.182 226.565 494.182C225.675 494.182 224.938 493.989 224.355 493.602C223.772 493.216 223.402 492.652 223.247 491.909L224.52 491.591C224.641 492.061 224.87 492.413 225.207 492.648C225.548 492.883 225.993 493 226.543 493C227.168 493 227.664 492.867 228.031 492.602C228.402 492.333 228.588 492.011 228.588 491.636C228.588 491.333 228.482 491.08 228.27 490.875C228.058 490.667 227.732 490.511 227.293 490.409L225.838 490.068C225.039 489.879 224.452 489.585 224.077 489.188C223.705 488.786 223.52 488.284 223.52 487.682C223.52 487.189 223.658 486.754 223.935 486.375C224.215 485.996 224.596 485.699 225.077 485.483C225.562 485.267 226.111 485.159 226.724 485.159C227.588 485.159 228.266 485.348 228.759 485.727C229.255 486.106 229.607 486.606 229.815 487.227ZM232.97 494.091C232.69 494.091 232.449 493.991 232.249 493.79C232.048 493.589 231.947 493.348 231.947 493.068C231.947 492.788 232.048 492.547 232.249 492.347C232.449 492.146 232.69 492.045 232.97 492.045C233.25 492.045 233.491 492.146 233.692 492.347C233.893 492.547 233.993 492.788 233.993 493.068C233.993 493.254 233.946 493.424 233.851 493.58C233.76 493.735 233.637 493.86 233.482 493.955C233.33 494.045 233.16 494.091 232.97 494.091Z" fill="#282828"/>
<path d="M36.6831 384.428L38.5174 387.745C38.7688 388.2 39.3996 388.633 39.9183 388.692L43.006 389.08C44.983 389.324 45.4929 390.727 44.1474 392.197L41.8551 394.686C41.4725 395.103 41.2739 395.899 41.4276 396.446L42.2308 399.377C42.8625 401.691 41.6611 402.65 39.5499 401.514L36.6007 399.925C36.0636 399.635 35.2104 399.677 34.7058 400.003L31.8983 401.82C29.8885 403.119 28.6096 402.264 29.0506 399.908L29.6153 396.926C29.7208 396.369 29.468 395.591 29.0508 395.208L26.5474 392.912C25.0865 391.562 25.4794 390.123 27.4262 389.715L30.466 389.08C30.979 388.968 31.5735 388.498 31.7823 388.02L33.3396 384.557C34.1909 382.691 35.6927 382.633 36.6831 384.428Z" fill="black"/>
<path d="M65.6831 384.428L67.5174 387.745C67.7688 388.2 68.3996 388.633 68.9183 388.692L72.006 389.08C73.983 389.324 74.4929 390.727 73.1474 392.197L70.8551 394.686C70.4725 395.103 70.2739 395.899 70.4276 396.446L71.2308 399.377C71.8625 401.691 70.6611 402.65 68.5499 401.514L65.6007 399.925C65.0636 399.635 64.2104 399.677 63.7058 400.003L60.8983 401.82C58.8885 403.119 57.6096 402.264 58.0506 399.908L58.6153 396.926C58.7208 396.369 58.468 395.591 58.0508 395.208L55.5474 392.912C54.0865 391.562 54.4794 390.123 56.4262 389.715L59.466 389.08C59.979 388.968 60.5735 388.498 60.7823 388.02L62.3396 384.557C63.1909 382.691 64.6927 382.633 65.6831 384.428Z" fill="black"/>
<path d="M94.6831 384.428L96.5174 387.745C96.7688 388.2 97.3996 388.633 97.9183 388.692L101.006 389.08C102.983 389.324 103.493 390.727 102.147 392.197L99.8551 394.686C99.4725 395.103 99.2739 395.899 99.4276 396.446L100.231 399.377C100.862 401.691 99.6611 402.65 97.5499 401.514L94.6007 399.925C94.0636 399.635 93.2104 399.677 92.7058 400.003L89.8983 401.82C87.8885 403.119 86.6096 402.264 87.0506 399.908L87.6153 396.926C87.7208 396.369 87.468 395.591 87.0508 395.208L84.5474 392.912C83.0865 391.562 83.4794 390.123 85.4262 389.715L88.466 389.08C88.979 388.968 89.5735 388.498 89.7823 388.02L91.3396 384.557C92.1909 382.691 93.6927 382.633 94.6831 384.428Z" fill="black"/>
<path d="M123.683 384.428L125.517 387.745C125.769 388.2 126.4 388.633 126.918 388.692L130.006 389.08C131.983 389.324 132.493 390.727 131.147 392.197L128.855 394.686C128.472 395.103 128.274 395.899 128.428 396.446L129.231 399.377C129.862 401.691 128.661 402.65 126.55 401.514L123.601 399.925C123.064 399.635 122.21 399.677 121.706 400.003L118.898 401.82C116.888 403.119 115.61 402.264 116.051 399.908L116.615 396.926C116.721 396.369 116.468 395.591 116.051 395.208L113.547 392.912C112.086 391.562 112.479 390.123 114.426 389.715L117.466 389.08C117.979 388.968 118.574 388.498 118.782 388.02L120.34 384.557C121.191 382.691 122.693 382.633 123.683 384.428Z" fill="black"/>
<path d="M157.66 404.67C157.13 404.67 156.45 404.5 155.6 404L152.61 402.23C152.3 402.05 151.7 402.05 151.4 402.23L148.4 404C146.63 405.05 145.59 404.63 145.12 404.29C144.66 403.95 143.94 403.08 144.41 401.08L145.12 398.01C145.2 397.69 145.04 397.14 144.8 396.9L142.32 394.42C141.08 393.18 141.18 392.12 141.35 391.6C141.52 391.08 142.06 390.16 143.78 389.87L146.97 389.34C147.27 389.29 147.7 388.97 147.83 388.7L149.6 385.17C150.4 383.56 151.45 383.32 152 383.32C152.55 383.32 153.6 383.56 154.4 385.17L156.16 388.69C156.3 388.96 156.73 389.28 157.03 389.33L160.22 389.86C161.95 390.15 162.49 391.07 162.65 391.59C162.81 392.11 162.91 393.17 161.68 394.41L159.2 396.9C158.96 397.14 158.81 397.68 158.88 398.01L159.59 401.08C160.05 403.08 159.34 403.95 158.88 404.29C158.63 404.47 158.23 404.67 157.66 404.67ZM152 400.59C152.49 400.59 152.98 400.71 153.37 400.94L156.36 402.71C157.23 403.23 157.78 403.23 157.99 403.08C158.2 402.93 158.35 402.4 158.13 401.42L157.42 398.35C157.23 397.52 157.54 396.45 158.14 395.84L160.62 393.36C161.11 392.87 161.33 392.39 161.23 392.06C161.12 391.73 160.66 391.46 159.98 391.35L156.79 390.82C156.02 390.69 155.18 390.07 154.83 389.37L153.07 385.85C152.75 385.21 152.35 384.83 152 384.83C151.65 384.83 151.25 385.21 150.94 385.85L149.17 389.37C148.82 390.07 147.98 390.69 147.21 390.82L144.03 391.35C143.35 391.46 142.89 391.73 142.78 392.06C142.67 392.39 142.9 392.88 143.39 393.36L145.87 395.84C146.47 396.44 146.78 397.52 146.59 398.35L145.88 401.42C145.65 402.41 145.81 402.93 146.02 403.08C146.23 403.23 146.77 403.22 147.65 402.71L150.64 400.94C151.02 400.71 151.51 400.59 152 400.59Z" fill="black"/>
<path d="M248.392 383.773H258.163C257.996 393.502 256.079 395.106 250.1 398.648C249.413 399.065 249.183 399.94 249.6 400.648C250.017 401.335 250.892 401.565 251.6 401.148C258.642 396.981 261.1 394.44 261.1 382.315V371.085C261.1 367.523 258.204 364.648 254.663 364.648H248.413C244.746 364.648 241.975 367.419 241.975 371.085V377.335C241.954 381.002 244.725 383.773 248.392 383.773ZM225.854 383.773H235.625C235.458 393.502 233.542 395.106 227.563 398.648C226.875 399.065 226.646 399.94 227.063 400.648C227.479 401.335 228.354 401.565 229.063 401.148C236.104 396.981 238.563 394.44 238.563 382.315V371.085C238.563 367.523 235.667 364.648 232.125 364.648H225.875C222.188 364.648 219.417 367.419 219.417 371.085V377.335C219.417 381.002 222.188 383.773 225.854 383.773Z" fill="#282828" fill-opacity="0.43"/>
<rect x="622" y="194" width="40" height="40" rx="20" fill="black"/>
<rect x="622" y="254" width="40" height="40" rx="20" fill="black"/>
<rect x="622" y="314" width="40" height="40" rx="20" fill="black"/>
<path d="M649.05 206.91C648.133 205.984 647.041 205.25 645.838 204.75C644.634 204.25 643.343 203.996 642.04 204C636.58 204 632.13 208.45 632.13 213.91C632.13 215.66 632.59 217.36 633.45 218.86L632.05 224L637.3 222.62C638.75 223.41 640.38 223.83 642.04 223.83C647.5 223.83 651.95 219.38 651.95 213.92C651.95 211.27 650.92 208.78 649.05 206.91ZM642.04 222.15C640.56 222.15 639.11 221.75 637.84 221L637.54 220.82L634.42 221.64L635.25 218.6L635.05 218.29C634.228 216.977 633.791 215.459 633.79 213.91C633.79 209.37 637.49 205.67 642.03 205.67C644.23 205.67 646.3 206.53 647.85 208.09C648.618 208.854 649.226 209.763 649.639 210.763C650.053 211.764 650.264 212.837 650.26 213.92C650.28 218.46 646.58 222.15 642.04 222.15ZM646.56 215.99C646.31 215.87 645.09 215.27 644.87 215.18C644.64 215.1 644.48 215.06 644.31 215.3C644.14 215.55 643.67 216.11 643.53 216.27C643.39 216.44 643.24 216.46 642.99 216.33C642.74 216.21 641.94 215.94 641 215.1C640.26 214.44 639.77 213.63 639.62 213.38C639.48 213.13 639.6 213 639.73 212.87C639.84 212.76 639.98 212.58 640.1 212.44C640.22 212.3 640.27 212.19 640.35 212.03C640.43 211.86 640.39 211.72 640.33 211.6C640.27 211.48 639.77 210.26 639.57 209.76C639.37 209.28 639.16 209.34 639.01 209.33H638.53C638.36 209.33 638.1 209.39 637.87 209.64C637.65 209.89 637.01 210.49 637.01 211.71C637.01 212.93 637.9 214.11 638.02 214.27C638.14 214.44 639.77 216.94 642.25 218.01C642.84 218.27 643.3 218.42 643.66 218.53C644.25 218.72 644.79 218.69 645.22 218.63C645.7 218.56 646.69 218.03 646.89 217.45C647.1 216.87 647.1 216.38 647.03 216.27C646.96 216.16 646.81 216.11 646.56 215.99Z" fill="white"/>
<path d="M637.8 264H646.2C649.4 264 652 266.6 652 269.8V278.2C652 279.738 651.389 281.214 650.301 282.301C649.214 283.389 647.738 284 646.2 284H637.8C634.6 284 632 281.4 632 278.2V269.8C632 268.262 632.611 266.786 633.699 265.699C634.786 264.611 636.262 264 637.8 264ZM637.6 266C636.645 266 635.73 266.379 635.054 267.054C634.379 267.73 634 268.645 634 269.6V278.4C634 280.39 635.61 282 637.6 282H646.4C647.355 282 648.27 281.621 648.946 280.946C649.621 280.27 650 279.355 650 278.4V269.6C650 267.61 648.39 266 646.4 266H637.6ZM647.25 267.5C647.582 267.5 647.899 267.632 648.134 267.866C648.368 268.101 648.5 268.418 648.5 268.75C648.5 269.082 648.368 269.399 648.134 269.634C647.899 269.868 647.582 270 647.25 270C646.918 270 646.601 269.868 646.366 269.634C646.132 269.399 646 269.082 646 268.75C646 268.418 646.132 268.101 646.366 267.866C646.601 267.632 646.918 267.5 647.25 267.5ZM642 269C643.326 269 644.598 269.527 645.536 270.464C646.473 271.402 647 272.674 647 274C647 275.326 646.473 276.598 645.536 277.536C644.598 278.473 643.326 279 642 279C640.674 279 639.402 278.473 638.464 277.536C637.527 276.598 637 275.326 637 274C637 272.674 637.527 271.402 638.464 270.464C639.402 269.527 640.674 269 642 269ZM642 271C641.204 271 640.441 271.316 639.879 271.879C639.316 272.441 639 273.204 639 274C639 274.796 639.316 275.559 639.879 276.121C640.441 276.684 641.204 277 642 277C642.796 277 643.559 276.684 644.121 276.121C644.684 275.559 645 274.796 645 274C645 273.204 644.684 272.441 644.121 271.879C643.559 271.316 642.796 271 642 271Z" fill="white"/>
<path d="M644 335.5H646.5L647.5 331.5H644V329.5C644 328.47 644 327.5 646 327.5H647.5V324.14C647.174 324.097 645.943 324 644.643 324C641.928 324 640 325.657 640 328.7V331.5H637V335.5H640V344H644V335.5Z" fill="white"/>
<path d="M405.953 258.307L384.304 207.746C376.972 190.593 363.485 189.901 354.424 206.224L341.352 229.81C334.712 241.776 322.331 242.813 313.754 232.093L312.232 230.156C303.31 218.951 290.722 220.334 284.289 233.13L272.392 256.993C264.023 273.593 276.127 293.167 294.664 293.167H382.921C400.904 293.167 413.008 274.838 405.953 258.307ZM304.209 196.333C309.712 196.333 314.99 194.147 318.882 190.256C322.773 186.365 324.959 181.087 324.959 175.583C324.959 170.08 322.773 164.802 318.882 160.911C314.99 157.02 309.712 154.833 304.209 154.833C298.706 154.833 293.428 157.02 289.537 160.911C285.645 164.802 283.459 170.08 283.459 175.583C283.459 181.087 285.645 186.365 289.537 190.256C293.428 194.147 298.706 196.333 304.209 196.333V196.333Z" stroke="#949393" stroke-width="2.5" stroke-linecap="round" stroke-linejoin="round"/>
</svg>
