<svg width="62" height="62" viewBox="0 0 62 62" fill="none" xmlns="http://www.w3.org/2000/svg">
<rect width="62" height="62" rx="10" fill="#A6A4A4"/>
<path d="M19.2025 31.5374C19.817 33.2268 19.9892 35.0452 19.7027 36.82C19.3778 39.0887 19.5128 41.3995 20.0997 43.615C20.6865 45.8304 21.7133 47.905 23.1187 49.7154C23.801 50.5912 24.6259 51.3459 25.5587 51.948C25.9857 52.2164 26.4127 52.3994 26.8641 52.0456C27.0593 51.8922 27.1961 51.6765 27.2516 51.4345C27.3071 51.1926 27.278 50.9389 27.1691 50.7158C26.2793 47.9594 26.0824 45.0263 26.5957 42.1758C26.8144 40.7846 27.2946 39.4475 28.0109 38.2352C28.4359 37.4605 29.0756 36.825 29.8531 36.4052C30.337 36.1442 30.8887 36.036 31.4353 36.0948C31.982 36.1536 32.498 36.3767 32.9153 36.7346C33.9914 37.6051 34.7748 38.7845 35.1601 40.114C36.1776 43.4126 36.1776 46.9413 35.1601 50.24C35.0991 50.4474 35.0259 50.6426 34.9771 50.85C34.9094 51.0436 34.9061 51.2539 34.9677 51.4496C35.0292 51.6452 35.1524 51.8158 35.3187 51.9358C35.4783 52.0624 35.6761 52.1314 35.8799 52.1314C36.0837 52.1314 36.2815 52.0624 36.4411 51.9358C37.9503 51.0069 39.2074 49.7206 40.1011 48.1904C42.2329 44.7536 43.096 40.6796 42.5411 36.6736C42.4393 35.7704 42.4189 34.8598 42.4801 33.953L42.8461 32.1352C43.5293 30.049 44.5907 28.1092 45.1519 25.9742C45.7476 24.0078 45.6659 21.8984 44.9201 19.984C44.4122 18.7376 43.519 17.6864 42.371 16.984C41.223 16.2816 39.8804 15.9648 38.5395 16.08H38.0149C37.7587 16.08 37.5513 15.9946 37.5513 15.7018C37.5513 15.409 37.7831 15.2992 38.0393 15.287C39.1797 15.1852 40.329 15.3138 41.4187 15.6652C42.8388 16.1405 44.0738 17.0497 44.9494 18.2646C45.8249 19.4795 46.2969 20.9386 46.2987 22.4362C46.3564 24.7172 45.8845 26.9806 44.9201 29.0486C44.7493 29.4634 44.5907 29.8904 44.4199 30.2686L44.1515 30.7444C44.0413 30.7568 43.9384 30.8055 43.8589 30.8828C43.7794 30.9601 43.7278 31.0616 43.7123 31.1714V31.1714C43.6563 31.1869 43.6058 31.2181 43.5669 31.2613C43.528 31.3045 43.5022 31.358 43.4927 31.4154V31.4886C43.4084 31.5662 43.3412 31.6606 43.2951 31.7656C43.2491 31.8705 43.2254 31.9839 43.2254 32.0986C43.2254 32.2132 43.2491 32.3266 43.2951 32.4316C43.3412 32.5366 43.4084 32.6309 43.4927 32.7086V32.8184C43.4071 33.0141 43.3695 33.2274 43.3829 33.4406C43.2183 34.3604 43.2183 35.3023 43.3829 36.2222C44.1155 40.9503 42.9442 45.776 40.1255 49.6422C39.3017 50.8481 38.2488 51.8803 37.0267 52.68C36.7125 52.9077 36.333 53.0274 35.945 53.021C35.557 53.0147 35.1815 52.8827 34.875 52.6448C34.5684 52.407 34.3472 52.0761 34.2446 51.7019C34.1421 51.3277 34.1636 50.9303 34.3061 50.5694C35.4101 47.2217 35.4101 43.608 34.3061 40.2604C34.0318 39.3657 33.5795 38.5358 32.9763 37.8204C32.7698 37.5134 32.491 37.2619 32.1644 37.088C31.8379 36.9141 31.4736 36.8231 31.1036 36.8231C30.7336 36.8231 30.3693 36.9141 30.0428 37.088C29.7162 37.2619 29.4374 37.5134 29.2309 37.8204C28.1853 39.1514 27.5343 40.7492 27.3521 42.432C26.894 45.1109 27.0907 47.8609 27.9255 50.4474C28.1027 50.8284 28.1425 51.2591 28.0379 51.6662C27.9334 52.0732 27.691 52.4315 27.3521 52.68C27.0328 52.9188 26.6421 53.0427 26.2435 53.0317C25.8449 53.0206 25.4617 52.8752 25.1561 52.619C22.7964 50.9889 21.0084 48.6588 20.0443 45.9578C18.8383 42.88 18.4679 39.5381 18.9707 36.271C19.0623 35.6276 19.0623 34.9745 18.9707 34.3312V34.1238V33.7944L18.8121 32.6476C19.0073 32.2694 18.7633 31.7692 19.2025 31.5374Z" fill="white"/>
<path d="M19.2024 31.5374C18.7632 31.7692 19.0072 32.2694 18.7754 32.5866C18.5192 32.1108 18.4826 31.5374 18.1776 31.0738C18.1259 30.8196 18.031 30.5762 17.897 30.354L17.47 29.317C16.8576 27.9192 16.3994 26.4588 16.1036 24.9616C15.6625 22.8949 15.9514 20.7393 16.921 18.8616C17.6709 17.5781 18.7903 16.5504 20.1331 15.9128C21.4759 15.2751 22.9798 15.057 24.4484 15.287C25.8637 15.4701 27.2148 15.9888 28.389 16.7998C28.7998 17.076 29.2849 17.2206 29.7798 17.2146C31.045 17.2408 32.3048 17.0425 33.5008 16.629L33.8058 16.5192C34.0498 16.446 34.306 16.4094 34.4158 16.7144C34.5256 17.0194 34.3304 17.1658 34.0864 17.2756C33.1333 17.6351 32.1362 17.8649 31.1218 17.9588C30.9754 17.9588 30.8046 17.9588 30.6826 18.0442C30.5606 18.1296 30.8534 18.215 30.951 18.2638C31.5623 18.5738 32.2042 18.8192 32.8664 18.9958C33.1592 19.0812 33.513 19.1666 33.3788 19.5692C33.2446 19.9718 32.903 19.8376 32.6224 19.7522C31.9479 19.565 31.2907 19.3201 30.6582 19.0202C29.6105 18.5036 28.5923 17.9294 27.6082 17.3C25.9773 16.2557 24.0114 15.8678 22.106 16.2142C20.6941 16.43 19.3979 17.1204 18.431 18.1716C17.464 19.2228 16.8841 20.5721 16.7868 21.997C16.648 24.1537 17.0419 26.3114 17.9336 28.28C18.3606 29.378 18.873 30.415 19.2024 31.5374Z" fill="white"/>
<path d="M44.1149 10.8584H42.6997C42.4478 10.8764 42.1949 10.8402 41.9582 10.7523C41.7215 10.6644 41.5063 10.5268 41.3271 10.3488C41.148 10.1708 41.009 9.95654 40.9196 9.72037C40.8302 9.48421 40.7923 9.23163 40.8087 8.97962C40.8087 8.47942 40.6379 8.33302 40.1743 8.36962C39.7107 8.40622 39.1495 8.36962 38.6493 8.36962C38.3478 8.36457 38.0484 8.42062 37.7692 8.53441C37.49 8.6482 37.2368 8.81736 37.0247 9.03169C36.8127 9.24602 36.6462 9.50108 36.5354 9.78149C36.4246 10.0619 36.3718 10.3618 36.3801 10.6632C36.3801 11.017 36.3801 11.3708 36.3801 11.7124C36.3801 12.054 36.2703 12.1394 36.0019 12.1516C35.9487 12.1571 35.895 12.1509 35.8445 12.1334C35.794 12.1159 35.7479 12.0875 35.7095 12.0503C35.6711 12.0131 35.6414 11.9679 35.6223 11.918C35.6033 11.868 35.5954 11.8145 35.5993 11.7612C35.5319 11.0967 35.569 10.4257 35.7091 9.77262C35.8718 9.14903 36.2317 8.59473 36.7352 8.19239C37.2387 7.79006 37.8587 7.56123 38.5029 7.54002H40.3451C40.6501 7.54002 40.7843 7.45462 40.7965 7.12522C40.8941 5.64902 41.4919 5.10002 43.0291 5.10002H45.3959C45.7375 5.10002 46.2621 4.95362 46.2743 5.49042C46.2865 6.02722 45.7619 5.88082 45.4325 5.89302H42.8461C41.9555 5.89302 41.6261 6.25902 41.6261 7.11302C41.6261 7.71082 41.6261 8.33302 41.6261 8.89422C41.6081 9.04542 41.6248 9.19872 41.6751 9.34245C41.7253 9.48618 41.8077 9.61655 41.9159 9.72362C42.0242 9.83069 42.1555 9.91164 42.2997 9.96031C42.444 10.009 42.5975 10.0241 42.7485 10.0044H45.9083C46.1279 10.0044 46.3231 10.1264 46.3353 10.3826C46.3475 10.6388 46.1401 10.7852 45.8961 10.7974H44.1149V10.8584Z" fill="white"/>
</svg>
