<svg width="180" height="30" viewBox="0 0 180 30" fill="none" xmlns="http://www.w3.org/2000/svg">
<path d="M77.5 15C77.5 8.1 71.9 2.5 65 2.5C58.1 2.5 52.5 8.1 52.5 15C52.5 21.05 56.8 26.0875 62.5 27.25V18.75H60V15H62.5V11.875C62.5 9.4625 64.4625 7.5 66.875 7.5H70V11.25H67.5C66.8125 11.25 66.25 11.8125 66.25 12.5V15H70V18.75H66.25V27.4375C72.5625 26.8125 77.5 21.4875 77.5 15Z" fill="white"/>
<path d="M122.919 22.9238H119.588V17.7025C119.588 16.4575 119.562 14.855 117.85 14.855C116.114 14.855 115.849 16.21 115.849 17.6112V22.9238H112.516V12.1875H115.716V13.65H115.76C116.207 12.8075 117.295 11.9162 118.92 11.9162C122.295 11.9162 122.92 14.1387 122.92 17.03V22.9238H122.919ZM108.754 10.7187C108.499 10.7191 108.248 10.6692 108.013 10.572C107.778 10.4748 107.564 10.3322 107.384 10.1523C107.205 9.97242 107.062 9.75882 106.965 9.52377C106.868 9.28871 106.818 9.03681 106.819 8.7825C106.819 8.39979 106.933 8.02575 107.146 7.70768C107.358 7.38961 107.661 7.14179 108.014 6.99557C108.368 6.84934 108.757 6.81127 109.132 6.88618C109.508 6.96108 109.852 7.14559 110.123 7.41638C110.393 7.68717 110.577 8.03208 110.652 8.40748C110.726 8.78288 110.688 9.17192 110.541 9.5254C110.394 9.87888 110.146 10.1809 109.828 10.3933C109.509 10.6058 109.135 10.719 108.752 10.7187H108.754ZM110.424 22.9238H107.082V12.1875H110.425V22.9238H110.424ZM124.588 3.75H105.411C104.491 3.75 103.75 4.475 103.75 5.37125V24.6287C103.75 25.525 104.493 26.25 105.41 26.25H124.583C125.5 26.25 126.25 25.525 126.25 24.6287V5.37125C126.25 4.475 125.5 3.75 124.583 3.75H124.586H124.588Z" fill="white"/>
<path d="M2.50502 27.5L4.19502 21.29C3.08144 19.3811 2.49639 17.21 2.50002 15C2.50002 8.09625 8.09627 2.5 15 2.5C21.9038 2.5 27.5 8.09625 27.5 15C27.5 21.9037 21.9038 27.5 15 27.5C12.791 27.5036 10.6208 26.919 8.71252 25.8063L2.50502 27.5ZM10.4888 9.135C10.3273 9.14502 10.1696 9.18754 10.025 9.26C9.88942 9.33679 9.76564 9.43278 9.65752 9.545C9.50752 9.68625 9.42252 9.80875 9.33127 9.9275C8.86928 10.5287 8.62078 11.2668 8.62502 12.025C8.62752 12.6375 8.78752 13.2337 9.03752 13.7912C9.54877 14.9188 10.39 16.1125 11.5013 17.2187C11.7688 17.485 12.03 17.7525 12.3113 18.0013C13.6905 19.2156 15.3341 20.0913 17.1113 20.5588L17.8225 20.6675C18.0538 20.68 18.285 20.6625 18.5175 20.6512C18.8816 20.6325 19.237 20.5339 19.5588 20.3625C19.7225 20.2782 19.8822 20.1864 20.0375 20.0875C20.0375 20.0875 20.0913 20.0525 20.1938 19.975C20.3625 19.85 20.4663 19.7613 20.6063 19.615C20.71 19.5075 20.8 19.3813 20.8688 19.2375C20.9663 19.0338 21.0638 18.645 21.1038 18.3212C21.1338 18.0737 21.125 17.9388 21.1213 17.855C21.1163 17.7213 21.005 17.5825 20.8838 17.5238L20.1563 17.1975C20.1563 17.1975 19.0688 16.7238 18.405 16.4213C18.335 16.3907 18.26 16.3734 18.1838 16.37C18.0982 16.3612 18.0118 16.3708 17.9303 16.3982C17.8488 16.4256 17.7741 16.4701 17.7113 16.5287V16.5262C17.705 16.5262 17.6213 16.5975 16.7175 17.6925C16.6656 17.7622 16.5942 17.8149 16.5123 17.8438C16.4303 17.8728 16.3417 17.8767 16.2575 17.855C16.1761 17.8332 16.0963 17.8057 16.0188 17.7725C15.8638 17.7075 15.81 17.6825 15.7038 17.6363L15.6975 17.6338C14.9824 17.3215 14.3203 16.8998 13.735 16.3838C13.5775 16.2463 13.4313 16.0962 13.2813 15.9512C12.7895 15.4803 12.3609 14.9475 12.0063 14.3663L11.9325 14.2475C11.8795 14.1677 11.8367 14.0816 11.805 13.9912C11.7575 13.8075 11.8813 13.66 11.8813 13.66C11.8813 13.66 12.185 13.3275 12.3263 13.1475C12.4439 12.9979 12.5536 12.8423 12.655 12.6813C12.8025 12.4438 12.8488 12.2 12.7713 12.0113C12.4213 11.1563 12.0588 10.305 11.6863 9.46C11.6125 9.2925 11.3938 9.1725 11.195 9.14875C11.1275 9.14125 11.06 9.13375 10.9925 9.12875C10.8246 9.12041 10.6564 9.12208 10.4888 9.13375V9.135Z" fill="white"/>
<path d="M165 11.0947C162.85 11.0947 161.095 12.8496 161.095 15C161.095 17.1504 162.85 18.9053 165 18.9053C167.15 18.9053 168.905 17.1504 168.905 15C168.905 12.8496 167.15 11.0947 165 11.0947ZM176.713 15C176.713 13.3828 176.727 11.7803 176.637 10.166C176.546 8.29103 176.118 6.62697 174.747 5.25588C173.373 3.88185 171.712 3.45705 169.837 3.36623C168.22 3.27541 166.617 3.29006 165.003 3.29006C163.386 3.29006 161.783 3.27541 160.169 3.36623C158.294 3.45705 156.63 3.88478 155.259 5.25588C153.885 6.6299 153.46 8.29103 153.369 10.166C153.278 11.7832 153.293 13.3858 153.293 15C153.293 16.6143 153.278 18.2197 153.369 19.834C153.46 21.709 153.888 23.3731 155.259 24.7442C156.633 26.1182 158.294 26.543 160.169 26.6338C161.786 26.7246 163.389 26.71 165.003 26.71C166.62 26.71 168.223 26.7246 169.837 26.6338C171.712 26.543 173.376 26.1152 174.747 24.7442C176.121 23.3701 176.546 21.709 176.637 19.834C176.73 18.2197 176.713 16.6172 176.713 15V15ZM165 21.0088C161.675 21.0088 158.991 18.3252 158.991 15C158.991 11.6748 161.675 8.99123 165 8.99123C168.325 8.99123 171.009 11.6748 171.009 15C171.009 18.3252 168.325 21.0088 165 21.0088ZM171.255 10.1485C170.478 10.1485 169.851 9.5215 169.851 8.74513C169.851 7.96877 170.478 7.34181 171.255 7.34181C172.031 7.34181 172.658 7.96877 172.658 8.74513C172.658 8.92948 172.622 9.11207 172.552 9.28243C172.481 9.4528 172.378 9.60759 172.248 9.73795C172.117 9.8683 171.962 9.97166 171.792 10.0421C171.622 10.1125 171.439 10.1487 171.255 10.1485V10.1485Z" fill="white"/>
</svg>
