<svg width="51" height="51" viewBox="0 0 51 51" fill="none" xmlns="http://www.w3.org/2000/svg">
<rect width="51" height="51" rx="10" fill="#D9D9D9"/>
<path d="M38.4625 33.9125C38.4625 34.3625 38.3625 34.825 38.15 35.275C37.9375 35.725 37.6625 36.15 37.3 36.55C36.6875 37.225 36.0125 37.7125 35.25 38.025C34.5 38.3375 33.6875 38.5 32.8125 38.5C31.5375 38.5 30.175 38.2 28.7375 37.5875C27.3 36.975 25.8625 36.15 24.4375 35.1125C22.9851 34.0501 21.6146 32.8802 20.3375 31.6125C19.0735 30.34 17.9076 28.9736 16.85 27.525C15.825 26.1 15 24.675 14.4 23.2625C13.8 21.8375 13.5 20.475 13.5 19.175C13.5 18.325 13.65 17.5125 13.95 16.7625C14.25 16 14.725 15.3 15.3875 14.675C16.1875 13.8875 17.0625 13.5 17.9875 13.5C18.3375 13.5 18.6875 13.575 19 13.725C19.325 13.875 19.6125 14.1 19.8375 14.425L22.7375 18.5125C22.9625 18.825 23.125 19.1125 23.2375 19.3875C23.35 19.65 23.4125 19.9125 23.4125 20.15C23.4125 20.45 23.325 20.75 23.15 21.0375C22.9875 21.325 22.75 21.625 22.45 21.925L21.5 22.9125C21.3625 23.05 21.3 23.2125 21.3 23.4125C21.3 23.5125 21.3125 23.6 21.3375 23.7C21.375 23.8 21.4125 23.875 21.4375 23.95C21.6625 24.3625 22.05 24.9 22.6 25.55C23.1625 26.2 23.7625 26.8625 24.4125 27.525C25.0875 28.1875 25.7375 28.8 26.4 29.3625C27.05 29.9125 27.5875 30.2875 28.0125 30.5125C28.075 30.5375 28.15 30.575 28.2375 30.6125C28.3375 30.65 28.4375 30.6625 28.55 30.6625C28.7625 30.6625 28.925 30.5875 29.0625 30.45L30.0125 29.5125C30.325 29.2 30.625 28.9625 30.9125 28.8125C31.2 28.6375 31.4875 28.55 31.8 28.55C32.0375 28.55 32.2875 28.6 32.5625 28.7125C32.8375 28.825 33.125 28.9875 33.4375 29.2L37.575 32.1375C37.9 32.3625 38.125 32.625 38.2625 32.9375C38.3875 33.25 38.4625 33.5625 38.4625 33.9125V33.9125Z" stroke="black" stroke-width="1.5" stroke-miterlimit="10"/>
<path d="M34.125 22.25C34.125 21.5 33.5375 20.35 32.6625 19.4125C31.8625 18.55 30.8 17.875 29.75 17.875M38.5 22.25C38.5 17.4125 34.5875 13.5 29.75 13.5" stroke="black" stroke-width="1.5" stroke-linecap="round" stroke-linejoin="round"/>
</svg>
