<svg width="62" height="62" viewBox="0 0 62 62" fill="none" xmlns="http://www.w3.org/2000/svg">
<rect width="62" height="62" rx="10" fill="#A6A4A4"/>
<path d="M49.06 22.7647V24.4897C49.0642 25.4753 48.7069 26.4282 48.0559 27.1682C47.4049 27.9083 46.5053 28.384 45.5272 28.5055C45.3541 28.5095 45.1877 28.5737 45.0568 28.687C44.9258 28.8003 44.8384 28.9557 44.8096 29.1265C44.3767 30.6418 44.2731 32.2323 44.506 33.7909C44.8617 36.2976 44.7155 38.85 44.0758 41.2997C43.4362 43.7493 42.3158 46.0473 40.78 48.0601C39.9481 49.1555 38.924 50.0907 37.7578 50.8201C37.4294 51.0786 37.0235 51.2192 36.6055 51.2192C36.1875 51.2192 35.7817 51.0786 35.4532 50.8201C35.1269 50.561 34.8938 50.2027 34.7893 49.7993C34.6847 49.396 34.7143 48.9695 34.8736 48.5845C36.0086 45.1358 36.0568 41.4217 35.0116 37.9447C34.7223 36.8715 34.2045 35.8736 33.4936 35.0191C33.2609 34.6567 32.9383 34.3607 32.5574 34.1597C32.1765 33.9588 31.75 33.8598 31.3195 33.8723C30.889 33.8848 30.469 34.0084 30.1004 34.2311C29.7318 34.4538 29.427 34.768 29.2156 35.1433C28.2534 36.4439 27.6234 37.9598 27.3802 39.5593C26.8111 42.5778 27.0104 45.6909 27.9598 48.6121C28.1184 48.9987 28.1435 49.4272 28.031 49.8297C27.9185 50.2322 27.6749 50.5856 27.3388 50.8339C27.019 51.088 26.6226 51.2264 26.2141 51.2264C25.8056 51.2264 25.4092 51.088 25.0894 50.8339C22.4791 49.0487 20.5143 46.4692 19.4866 43.4785C18.267 40.3561 17.8771 36.9709 18.355 33.6529C18.6319 31.5411 18.3265 29.3938 17.4718 27.4429C16.5261 25.4749 15.8084 23.4053 15.3328 21.2743C15.0249 19.6279 15.1004 17.9326 15.5536 16.3201C15.9968 14.8707 16.8653 13.5878 18.0464 12.638C19.2275 11.6882 20.6668 11.1152 22.1776 10.9933C24.3983 10.7638 26.6274 11.3419 28.4566 12.6217C28.8928 12.9135 29.4086 13.0629 29.9332 13.0495C31.7736 13.086 33.5973 12.6938 35.26 11.9041C37.4356 10.8229 39.9387 10.6012 42.2704 11.2831C43.6199 11.6611 44.8315 12.4209 45.7594 13.4712C46.6873 14.5215 47.2919 15.8175 47.5006 17.2033C47.5583 17.5755 47.7266 17.9217 47.9836 18.1969C48.6763 18.9102 49.0626 19.866 49.06 20.8603C49.06 21.4951 49.06 22.1299 49.06 22.7647ZM46.5208 17.1481H46.6726V17.0515C46.4529 15.8516 45.8944 14.7397 45.0629 13.8471C44.2315 12.9545 43.1619 12.3186 41.9806 12.0145C39.8949 11.4274 37.6664 11.6237 35.7154 12.5665C34.4502 13.175 33.0935 13.5713 31.6996 13.7395L30.8026 13.8223C30.9622 14.0116 31.166 14.1585 31.396 14.2501L33.19 14.9263C33.4384 15.0091 33.7006 15.1333 33.5902 15.4507C33.4798 15.7681 33.19 15.7129 32.9416 15.6577L32.3896 15.4783C31.056 15.0049 29.7896 14.3601 28.6222 13.5601C28.2772 13.3393 28.0702 13.3393 27.8494 13.6981C27.4253 14.4325 27.0916 15.2156 26.8558 16.0303C26.8287 16.0927 26.8144 16.1599 26.8137 16.228C26.8129 16.296 26.8258 16.3635 26.8515 16.4265C26.8772 16.4895 26.9152 16.5467 26.9634 16.5948C27.0115 16.6429 27.0688 16.6809 27.1318 16.7065C28.3876 17.4241 29.5744 18.2521 30.8854 18.8455C31.1614 18.9697 31.5064 19.0939 31.3132 19.4803C31.12 19.8667 30.8026 19.6459 30.5404 19.4803C29.349 18.9112 28.2006 18.2563 27.1042 17.5207C26.7592 17.3137 26.6074 17.3137 26.566 17.7829C26.48 19.0788 26.5823 20.3803 26.8696 21.6469C26.8795 21.74 26.9109 21.8296 26.9611 21.9086C27.0114 21.9876 27.0793 22.0539 27.1594 22.1023C28.5895 23.0148 30.0683 23.8487 31.5892 24.6001C31.879 24.7243 32.2654 24.8347 32.0722 25.2625C31.879 25.6903 31.5616 25.4281 31.2994 25.2625C30.1757 24.7593 29.0956 24.1639 28.0702 23.4823C27.9575 23.3792 27.8242 23.3013 27.679 23.2537C27.5339 23.2061 27.3803 23.19 27.2284 23.2063C28.3462 25.3039 28.1806 28.0639 30.913 29.1127C31.0924 29.1817 31.2442 29.3059 31.4098 29.3887C31.5754 29.4715 31.8652 29.6923 31.6858 29.9959C31.5064 30.2995 31.258 30.2167 31.0234 30.0649L29.9884 29.4439C29.8642 29.3749 29.7262 29.2231 29.5882 29.3059C29.4502 29.3887 29.5882 29.6233 29.5882 29.7751C29.5882 30.1339 29.74 30.4789 29.7952 30.8377C29.8504 31.1965 29.7952 31.3897 29.4916 31.4311C29.188 31.4725 29.0776 31.2379 29.0362 30.9619C28.9243 30.2478 28.7629 29.5423 28.5532 28.8505C28.4958 28.6255 28.352 28.4321 28.153 28.3123C26.8018 27.5348 25.2683 27.13 23.7094 27.1393C23.2678 27.1393 23.2126 27.3049 23.3506 27.6775C23.8132 28.868 24.0744 30.1272 24.1234 31.4035C24.1234 31.7899 24.3166 31.9003 24.6754 31.9003C25.2914 31.9046 25.9057 31.9647 26.5108 32.0797C26.7868 32.0797 27.1042 32.1901 27.0628 32.5627C27.0214 32.9353 26.635 32.8939 26.359 32.8387C25.8156 32.7494 25.2671 32.6941 24.7168 32.6731C24.3166 32.6731 24.1234 32.6731 24.0682 33.2113C23.8222 34.9344 23.7759 36.6802 23.9302 38.4139C23.9302 38.7037 24.013 39.0625 23.5852 39.1039C23.1574 39.1453 23.1988 38.7865 23.1712 38.5105C22.9964 36.8201 23.0288 35.1146 23.2678 33.4321C23.3644 32.7559 23.3368 32.7283 22.6744 32.8663C21.4608 33.1066 20.3267 33.6475 19.3762 34.4395C19.2522 34.5352 19.1525 34.6588 19.0854 34.8003C19.0182 34.9418 18.9855 35.0971 18.9898 35.2537C18.8504 37.9541 19.283 40.6534 20.2594 43.1749C21.2334 45.9641 23.0579 48.3774 25.4758 50.0749C25.6616 50.2436 25.8988 50.3448 26.1491 50.3623C26.3994 50.3799 26.6483 50.3126 26.8558 50.1715C27.0589 50.0129 27.2041 49.7917 27.269 49.5423C27.3338 49.2929 27.3147 49.029 27.2146 48.7915C26.4195 46.3406 26.1331 43.7532 26.3728 41.1877C26.4777 39.0361 27.1283 36.9465 28.2634 35.1157C30.016 32.4385 32.6794 32.3557 34.4872 35.0329C35.6125 36.7901 36.277 38.8024 36.4192 40.8841C36.708 43.5725 36.4211 46.2916 35.5774 48.8605C35.4684 49.0953 35.4432 49.3604 35.506 49.6115C35.5688 49.8626 35.7157 50.0846 35.9224 50.2405C36.1182 50.3973 36.3616 50.4827 36.6124 50.4827C36.8633 50.4827 37.1066 50.3973 37.3024 50.2405C37.9905 49.817 38.6213 49.3069 39.1792 48.7225C40.8325 46.9469 42.1004 44.8484 42.9032 42.5589C43.7059 40.2694 44.0261 37.8386 43.8436 35.4193C43.7608 33.2389 43.2916 31.0723 44.0368 28.9333C44.1748 28.5055 43.8436 28.5193 43.5952 28.5469C42.9328 28.6297 42.7672 28.3261 42.781 27.7051C42.781 26.1319 42.781 24.5587 42.781 22.9855C42.781 21.1915 42.781 19.3837 42.781 17.5759C42.781 17.1895 42.781 16.8445 43.333 16.8445C44.4053 16.7462 45.4864 16.8491 46.5208 17.1481ZM43.54 22.6681V26.3941C43.54 27.7741 43.54 27.7741 44.92 27.7741C45.3495 27.7759 45.7752 27.6931 46.1727 27.5304C46.5702 27.3678 46.9318 27.1284 47.2367 26.8259C47.5417 26.5235 47.7842 26.164 47.9502 25.7679C48.1162 25.3718 48.2026 24.9468 48.2044 24.5173C48.2044 23.2753 48.2044 22.0471 48.2044 20.8189C48.1844 20.0855 47.9194 19.3799 47.4517 18.8147C46.984 18.2494 46.3405 17.8571 45.6238 17.7001C45.1213 17.6263 44.6136 17.594 44.1058 17.6035C43.6642 17.6035 43.5262 17.7553 43.5262 18.1969C43.54 19.7011 43.54 21.2053 43.54 22.7095V22.6681ZM25.7518 18.5281C25.764 18.1311 25.7962 17.735 25.8484 17.3413C25.8484 16.9273 25.738 16.7479 25.3654 16.5823C24.208 16.1018 22.9608 15.8758 21.7084 15.9199C21.2806 15.9199 21.0736 16.0717 20.9908 16.5133C20.7466 17.8154 20.7187 19.1489 20.908 20.4601C20.908 20.9155 21.1702 21.0121 21.5842 20.9707C22.9152 20.8085 24.2657 20.9549 25.531 21.3985C26.0278 21.5779 26.014 21.3295 25.9588 20.9845C25.8358 20.1943 25.7667 19.3967 25.7518 18.5971V18.5281ZM27.9874 27.4015C27.3802 25.8007 26.8006 24.4207 26.4004 22.9717C26.3666 22.8086 26.29 22.6575 26.1784 22.5338C26.0668 22.4101 25.9244 22.3183 25.7656 22.2679C24.477 21.7608 23.0875 21.5623 21.7084 21.6883C21.253 21.6883 21.1978 21.8953 21.3082 22.2817C21.7043 23.5736 22.1649 24.8448 22.6882 26.0905C22.7208 26.213 22.799 26.3183 22.9068 26.385C23.0145 26.4517 23.1437 26.4747 23.2678 26.4493C23.7919 26.4218 24.317 26.4218 24.841 26.4493C25.9404 26.6076 27.0046 26.953 27.9874 27.4705V27.4015ZM16.5748 23.0821C17.5422 22.2194 18.7012 21.5997 19.9558 21.2743C20.2594 21.1915 20.218 20.9983 20.1766 20.7775C19.9248 19.409 19.9248 18.006 20.1766 16.6375C20.2594 16.2787 20.1766 16.1683 19.7902 16.2649C18.3774 16.5957 17.0978 17.3461 16.1194 18.4177C15.9937 18.5267 15.9146 18.6799 15.8986 18.8455C15.8699 20.2867 16.0989 21.7214 16.5748 23.0821ZM19.252 32.0659C19.252 32.4247 19.252 32.7835 19.252 33.1423C19.252 33.5011 19.3486 33.6115 19.6798 33.3907C20.6334 32.7603 21.711 32.3415 22.84 32.1625C23.254 32.1625 23.323 31.9003 23.3092 31.5277C23.2247 30.236 22.9407 28.9652 22.4674 27.7603C22.3708 27.4705 22.219 27.3877 21.9016 27.4567C20.9474 27.6588 20.0364 28.0279 19.2106 28.5469C19.1337 28.5785 19.0638 28.6252 19.0053 28.6843C18.9467 28.7433 18.9006 28.8136 18.8698 28.8908C18.8389 28.968 18.8238 29.0507 18.8255 29.1338C18.8271 29.217 18.8455 29.299 18.8794 29.3749C19.1483 30.2459 19.2741 31.1547 19.252 32.0659ZM18.6862 27.9259L18.8794 27.8155C19.7141 27.2597 20.6532 26.8794 21.6394 26.6977C22.0672 26.6149 22.0258 26.4217 21.9016 26.1181C21.3493 24.8792 20.888 23.6016 20.5216 22.2955C20.425 21.9505 20.2456 21.9229 19.9558 22.0057C18.9403 22.3143 18.0002 22.8313 17.1958 23.5237C17.0777 23.5956 16.9909 23.7093 16.9525 23.8422C16.9142 23.9751 16.9272 24.1175 16.9888 24.2413C17.4718 25.3867 17.941 26.5459 18.3688 27.6913C18.4516 27.8569 18.4654 28.0225 18.7 27.9811L18.6862 27.9259ZM24.5236 11.7247C24.4549 11.7154 24.3853 11.7154 24.3166 11.7247C23.0849 12.4085 22.1144 13.4809 21.5566 14.7745C21.4048 15.1057 21.6808 15.1057 21.9016 15.1057C23.1952 15.0783 24.4797 15.3277 25.669 15.8371C25.9036 15.9475 26.0554 15.9613 26.1382 15.6577C26.3753 14.7336 26.7673 13.8564 27.2974 13.0633C27.4078 12.8977 27.4492 12.7597 27.2974 12.6493C26.4335 12.1929 25.4935 11.8983 24.5236 11.7799V11.7247ZM16.2436 17.1757C17.4387 16.2062 18.8654 15.5642 20.3836 15.3127C20.632 15.3127 20.7286 15.1057 20.8114 14.8987C21.2495 13.7629 21.9492 12.7464 22.8538 11.9317C22.8538 11.9317 23.0194 11.8075 22.9366 11.6833C21.3279 11.6285 19.7543 12.1614 18.5098 13.1824C17.2654 14.2033 16.4353 15.6425 16.1746 17.2309L16.2436 17.1757Z" fill="white"/>
<path d="M38.2271 28.5606C37.8436 28.5679 37.4602 28.5402 37.0817 28.4778C36.4375 28.3199 35.8759 27.9261 35.508 27.3742C35.1401 26.8223 34.9925 26.1524 35.0945 25.497C35.0945 25.2624 35.2049 25.083 35.4809 25.083C35.7569 25.083 35.8121 25.2348 35.8397 25.4418C35.8673 25.6488 35.8397 25.704 35.8397 25.8282C35.8255 26.0166 35.8255 26.2057 35.8397 26.394C36.0881 27.4428 36.9299 27.843 38.6963 27.774C39.1256 27.7729 39.5394 27.613 39.8578 27.3251C40.1763 27.0372 40.377 26.6417 40.4213 26.2146C40.4765 25.7286 40.4765 25.2379 40.4213 24.7518C40.39 24.3039 40.1906 23.8844 39.863 23.5773C39.5354 23.2702 39.1039 23.0982 38.6549 23.0958C38.1581 23.0958 37.6751 23.0958 37.1921 23.0958C36.9299 23.0958 36.6953 23.0958 36.6815 22.737C36.6677 22.3782 36.9299 22.323 37.2059 22.323C37.4819 22.323 38.1857 22.323 38.6687 22.323C39.1097 22.3212 39.534 22.1546 39.8583 21.8558C40.1826 21.557 40.3834 21.1478 40.4213 20.7084C40.4696 20.2036 40.4696 19.6953 40.4213 19.1904C40.3982 18.8448 40.2673 18.515 40.047 18.2477C39.8266 17.9803 39.528 17.7888 39.1931 17.7C38.511 17.5134 37.7914 17.5134 37.1093 17.7C36.7813 17.7967 36.4894 17.9887 36.2707 18.2516C36.052 18.5145 35.9164 18.8365 35.8811 19.1766C35.8811 19.3836 35.8811 19.6044 35.8811 19.8114C35.8811 20.0184 35.7983 20.2944 35.5085 20.3082C35.2187 20.322 35.1359 20.0874 35.1083 19.8252C35.0577 19.4553 35.0858 19.0788 35.1908 18.7205C35.2958 18.3622 35.4754 18.0301 35.7178 17.746C35.9601 17.462 36.2598 17.2324 36.5971 17.0722C36.9344 16.9121 37.3018 16.8251 37.6751 16.8168C38.0564 16.7892 38.4392 16.7892 38.8205 16.8168C39.4742 16.8337 40.0971 17.0982 40.5634 17.5567C41.0296 18.0153 41.3043 18.6337 41.3321 19.287C41.4639 19.8586 41.4441 20.4547 41.2747 21.0162C41.1052 21.5778 40.792 22.0853 40.3661 22.4886C40.1591 22.668 40.2695 22.7784 40.3661 22.8888C40.8479 23.3761 41.1796 23.9915 41.3215 24.6619C41.4634 25.3323 41.4096 26.0294 41.1665 26.67C40.9043 27.981 39.8693 28.5468 38.2271 28.5606Z" fill="white"/>
</svg>
